G04 #@! TF.GenerationSoftware,KiCad,Pcbnew,10.0.6*
G04 #@! TF.CreationDate,2026-09-16T08:03:40+02:00*
G04 #@! TF.ProjectId,canfd-mc,63616e66-642d-46d6-932e-6b696361645f,1.1*
G04 #@! TF.SameCoordinates,Original*
G04 #@! TF.FileFunction,Copper,L1,Top*
G04 #@! TF.FilePolarity,Positive*
%FSLAX46Y46*%
G04 Gerber Fmt 4.6, Leading zero omitted, Abs format (unit mm)*
G04 Created by KiCad (PCBNEW 10.0.6) date 2026-09-16 08:03:40*
%MOMM*%
%LPD*%
G01*
G04 APERTURE LIST*
G04 Aperture macros list*
%AMRoundRect*
0 Rectangle with rounded corners*
0 $1 Rounding radius*
0 $2 $3 $4 $5 $6 $7 $8 $9 X,Y pos of 4 corners*
0 Add a 4 corners polygon primitive as box body*
4,1,4,$2,$3,$4,$5,$6,$7,$8,$9,$2,$3,0*
0 Add four circle primitives for the rounded corners*
1,1,$1+$1,$2,$3*
1,1,$1+$1,$4,$5*
1,1,$1+$1,$6,$7*
1,1,$1+$1,$8,$9*
0 Add four rect primitives between the rounded corners*
20,1,$1+$1,$2,$3,$4,$5,0*
20,1,$1+$1,$4,$5,$6,$7,0*
20,1,$1+$1,$6,$7,$8,$9,0*
20,1,$1+$1,$8,$9,$2,$3,0*%
G04 Aperture macros list end*
G04 #@! TA.AperFunction,SMDPad,CuDef*
%ADD10RoundRect,0.200000X-0.200000X-0.275000X0.200000X-0.275000X0.200000X0.275000X-0.200000X0.275000X0*%
G04 #@! TD*
G04 #@! TA.AperFunction,SMDPad,CuDef*
%ADD11RoundRect,0.225000X0.225000X0.250000X-0.225000X0.250000X-0.225000X-0.250000X0.225000X-0.250000X0*%
G04 #@! TD*
G04 #@! TA.AperFunction,SMDPad,CuDef*
%ADD12RoundRect,0.250000X-0.450000X-0.350000X0.450000X-0.350000X0.450000X0.350000X-0.450000X0.350000X0*%
G04 #@! TD*
G04 #@! TA.AperFunction,SMDPad,CuDef*
%ADD13RoundRect,0.225000X-0.225000X-0.250000X0.225000X-0.250000X0.225000X0.250000X-0.225000X0.250000X0*%
G04 #@! TD*
G04 #@! TA.AperFunction,SMDPad,CuDef*
%ADD14RoundRect,0.250000X0.625000X-0.312500X0.625000X0.312500X-0.625000X0.312500X-0.625000X-0.312500X0*%
G04 #@! TD*
G04 #@! TA.AperFunction,SMDPad,CuDef*
%ADD15RoundRect,0.200000X0.200000X0.275000X-0.200000X0.275000X-0.200000X-0.275000X0.200000X-0.275000X0*%
G04 #@! TD*
G04 #@! TA.AperFunction,SMDPad,CuDef*
%ADD16RoundRect,0.249999X-1.850001X0.450001X-1.850001X-0.450001X1.850001X-0.450001X1.850001X0.450001X0*%
G04 #@! TD*
G04 #@! TA.AperFunction,SMDPad,CuDef*
%ADD17RoundRect,0.250000X-0.325000X-1.100000X0.325000X-1.100000X0.325000X1.100000X-0.325000X1.100000X0*%
G04 #@! TD*
G04 #@! TA.AperFunction,SMDPad,CuDef*
%ADD18RoundRect,0.150000X-0.825000X-0.150000X0.825000X-0.150000X0.825000X0.150000X-0.825000X0.150000X0*%
G04 #@! TD*
G04 #@! TA.AperFunction,SMDPad,CuDef*
%ADD19RoundRect,0.250000X0.650000X-1.000000X0.650000X1.000000X-0.650000X1.000000X-0.650000X-1.000000X0*%
G04 #@! TD*
G04 #@! TA.AperFunction,SMDPad,CuDef*
%ADD20RoundRect,0.225000X0.250000X-0.225000X0.250000X0.225000X-0.250000X0.225000X-0.250000X-0.225000X0*%
G04 #@! TD*
G04 #@! TA.AperFunction,SMDPad,CuDef*
%ADD21RoundRect,0.150000X-0.150000X0.587500X-0.150000X-0.587500X0.150000X-0.587500X0.150000X0.587500X0*%
G04 #@! TD*
G04 #@! TA.AperFunction,ComponentPad*
%ADD22C,3.400000*%
G04 #@! TD*
G04 #@! TA.AperFunction,SMDPad,CuDef*
%ADD23RoundRect,0.250000X0.900000X-1.000000X0.900000X1.000000X-0.900000X1.000000X-0.900000X-1.000000X0*%
G04 #@! TD*
G04 #@! TA.AperFunction,ComponentPad*
%ADD24C,2.800000*%
G04 #@! TD*
G04 #@! TA.AperFunction,SMDPad,CuDef*
%ADD25RoundRect,0.250000X-0.625000X0.375000X-0.625000X-0.375000X0.625000X-0.375000X0.625000X0.375000X0*%
G04 #@! TD*
G04 #@! TA.AperFunction,SMDPad,CuDef*
%ADD26RoundRect,0.250000X-0.525000X0.325000X-0.525000X-0.325000X0.525000X-0.325000X0.525000X0.325000X0*%
G04 #@! TD*
G04 #@! TA.AperFunction,SMDPad,CuDef*
%ADD27RoundRect,0.200000X0.275000X-0.200000X0.275000X0.200000X-0.275000X0.200000X-0.275000X-0.200000X0*%
G04 #@! TD*
G04 #@! TA.AperFunction,SMDPad,CuDef*
%ADD28RoundRect,0.250000X-0.250000X-0.475000X0.250000X-0.475000X0.250000X0.475000X-0.250000X0.475000X0*%
G04 #@! TD*
G04 #@! TA.AperFunction,SMDPad,CuDef*
%ADD29R,0.600000X1.550000*%
G04 #@! TD*
G04 #@! TA.AperFunction,ComponentPad*
%ADD30C,0.600000*%
G04 #@! TD*
G04 #@! TA.AperFunction,SMDPad,CuDef*
%ADD31R,3.100000X2.600000*%
G04 #@! TD*
G04 #@! TA.AperFunction,SMDPad,CuDef*
%ADD32R,4.500000X2.950000*%
G04 #@! TD*
G04 #@! TA.AperFunction,SMDPad,CuDef*
%ADD33R,0.900000X1.500000*%
G04 #@! TD*
G04 #@! TA.AperFunction,SMDPad,CuDef*
%ADD34R,1.500000X0.900000*%
G04 #@! TD*
G04 #@! TA.AperFunction,HeatsinkPad*
%ADD35C,0.500000*%
G04 #@! TD*
G04 #@! TA.AperFunction,HeatsinkPad*
%ADD36R,3.900000X3.900000*%
G04 #@! TD*
G04 #@! TA.AperFunction,SMDPad,CuDef*
%ADD37RoundRect,0.250000X-1.100000X0.325000X-1.100000X-0.325000X1.100000X-0.325000X1.100000X0.325000X0*%
G04 #@! TD*
G04 #@! TA.AperFunction,SMDPad,CuDef*
%ADD38RoundRect,0.250000X0.475000X-0.250000X0.475000X0.250000X-0.475000X0.250000X-0.475000X-0.250000X0*%
G04 #@! TD*
G04 #@! TA.AperFunction,ComponentPad*
%ADD39R,1.700000X1.700000*%
G04 #@! TD*
G04 #@! TA.AperFunction,ComponentPad*
%ADD40C,1.700000*%
G04 #@! TD*
G04 #@! TA.AperFunction,ViaPad*
%ADD41C,0.600000*%
G04 #@! TD*
G04 #@! TA.AperFunction,Conductor*
%ADD42C,0.500000*%
G04 #@! TD*
G04 #@! TA.AperFunction,Conductor*
%ADD43C,0.800000*%
G04 #@! TD*
G04 #@! TA.AperFunction,Conductor*
%ADD44C,0.250000*%
G04 #@! TD*
G04 #@! TA.AperFunction,Conductor*
%ADD45C,0.300000*%
G04 #@! TD*
G04 #@! TA.AperFunction,Conductor*
%ADD46C,0.400000*%
G04 #@! TD*
G04 APERTURE END LIST*
D10*
G04 #@! TO.P,R4,1*
G04 #@! TO.N,/SW*
X42875000Y10200000D03*
G04 #@! TO.P,R4,2*
G04 #@! TO.N,/RIPPLE*
X44525000Y10200000D03*
G04 #@! TD*
D11*
G04 #@! TO.P,C11,1*
G04 #@! TO.N,/OSC2*
X26775000Y27700000D03*
G04 #@! TO.P,C11,2*
G04 #@! TO.N,GND*
X25225000Y27700000D03*
G04 #@! TD*
D10*
G04 #@! TO.P,R5,1*
G04 #@! TO.N,/VIN_PROT*
X42875000Y13400000D03*
G04 #@! TO.P,R5,2*
G04 #@! TO.N,/EN_UVLO*
X44525000Y13400000D03*
G04 #@! TD*
D12*
G04 #@! TO.P,X1,1,1_1*
G04 #@! TO.N,/OSC1*
X24400000Y24050000D03*
G04 #@! TO.P,X1,2,G_2*
G04 #@! TO.N,GND*
X26600000Y24050000D03*
G04 #@! TO.P,X1,3,3_3*
G04 #@! TO.N,/OSC2*
X26600000Y25750000D03*
G04 #@! TO.P,X1,4,G_4*
G04 #@! TO.N,GND*
X24400000Y25750000D03*
G04 #@! TD*
D13*
G04 #@! TO.P,C5,1*
G04 #@! TO.N,/BST*
X51825000Y7050000D03*
G04 #@! TO.P,C5,2*
G04 #@! TO.N,/SW*
X53375000Y7050000D03*
G04 #@! TD*
D14*
G04 #@! TO.P,RT2,1*
G04 #@! TO.N,/CANL*
X23700000Y9137500D03*
G04 #@! TO.P,RT2,2*
G04 #@! TO.N,/RT_MID*
X23700000Y12062500D03*
G04 #@! TD*
D11*
G04 #@! TO.P,C17,1*
G04 #@! TO.N,+3V3*
X24500000Y17300000D03*
G04 #@! TO.P,C17,2*
G04 #@! TO.N,GND*
X22950000Y17300000D03*
G04 #@! TD*
D15*
G04 #@! TO.P,R7,1*
G04 #@! TO.N,+3V3*
X16725000Y2000000D03*
G04 #@! TO.P,R7,2*
G04 #@! TO.N,/ESP_EN*
X15075000Y2000000D03*
G04 #@! TD*
D16*
G04 #@! TO.P,L2,1,1_1*
G04 #@! TO.N,/SW*
X51700000Y5250000D03*
G04 #@! TO.P,L2,2,2_2*
G04 #@! TO.N,+3V3*
X51700000Y1550000D03*
G04 #@! TD*
D11*
G04 #@! TO.P,C19,1*
G04 #@! TO.N,/ESP_EN*
X13675000Y2000000D03*
G04 #@! TO.P,C19,2*
G04 #@! TO.N,GND*
X12125000Y2000000D03*
G04 #@! TD*
D17*
G04 #@! TO.P,C1,1*
G04 #@! TO.N,/VIN_PROT*
X50725000Y17100000D03*
G04 #@! TO.P,C1,2*
G04 #@! TO.N,GND*
X53675000Y17100000D03*
G04 #@! TD*
D18*
G04 #@! TO.P,U2,1,TXCAN_1*
G04 #@! TO.N,/CAN_TX*
X29000000Y30540000D03*
G04 #@! TO.P,U2,2,RXCAN_2*
G04 #@! TO.N,/CAN_RX*
X29000000Y29270000D03*
G04 #@! TO.P,U2,3,CLKO/SOF_3*
G04 #@! TO.N,unconnected-(U2-CLKO{slash}SOF-Pad3)*
X29000000Y28000000D03*
G04 #@! TO.P,U2,4,~{INT}_4*
G04 #@! TO.N,/MCP_INT*
X29000000Y26730000D03*
G04 #@! TO.P,U2,5,OSC2_5*
G04 #@! TO.N,/OSC2*
X29000000Y25460000D03*
G04 #@! TO.P,U2,6,OSC1_6*
G04 #@! TO.N,/OSC1*
X29000000Y24190000D03*
G04 #@! TO.P,U2,7,VSS_7*
G04 #@! TO.N,GND*
X29000000Y22920000D03*
G04 #@! TO.P,U2,8,~{INT1}/GPIO1_8*
G04 #@! TO.N,/MCP_INT1*
X33950000Y22920000D03*
G04 #@! TO.P,U2,9,~{INT0}/GPIO0/XSTBY_9*
G04 #@! TO.N,/MCP_INT0*
X33950000Y24190000D03*
G04 #@! TO.P,U2,10,SCK_10*
G04 #@! TO.N,/SPI_SCLK*
X33950000Y25460000D03*
G04 #@! TO.P,U2,11,SDI_11*
G04 #@! TO.N,/SPI_MOSI*
X33950000Y26730000D03*
G04 #@! TO.P,U2,12,SDO_12*
G04 #@! TO.N,/SPI_MISO*
X33950000Y28000000D03*
G04 #@! TO.P,U2,13,~{CS}_13*
G04 #@! TO.N,/SPI_CS*
X33950000Y29270000D03*
G04 #@! TO.P,U2,14,VDD_14*
G04 #@! TO.N,+3V3*
X33950000Y30540000D03*
G04 #@! TD*
D19*
G04 #@! TO.P,D1,1,K_1*
G04 #@! TO.N,/VIN_PROT*
X52500000Y20550000D03*
G04 #@! TO.P,D1,2,A_2*
G04 #@! TO.N,/VBAT_F*
X52500000Y24550000D03*
G04 #@! TD*
D20*
G04 #@! TO.P,CT1,1*
G04 #@! TO.N,/RT_MID*
X25750000Y7725000D03*
G04 #@! TO.P,CT1,2*
G04 #@! TO.N,GND*
X25750000Y9275000D03*
G04 #@! TD*
D15*
G04 #@! TO.P,R1,1*
G04 #@! TO.N,/RON*
X47625000Y13400000D03*
G04 #@! TO.P,R1,2*
G04 #@! TO.N,GND*
X45975000Y13400000D03*
G04 #@! TD*
D13*
G04 #@! TO.P,C18,1*
G04 #@! TO.N,+3V3*
X23000000Y19100000D03*
G04 #@! TO.P,C18,2*
G04 #@! TO.N,GND*
X24550000Y19100000D03*
G04 #@! TD*
G04 #@! TO.P,C7,1*
G04 #@! TO.N,/RIPPLE*
X46025000Y10200000D03*
G04 #@! TO.P,C7,2*
G04 #@! TO.N,/FB*
X47575000Y10200000D03*
G04 #@! TD*
G04 #@! TO.P,C14,1*
G04 #@! TO.N,+3V3*
X2025000Y2000000D03*
G04 #@! TO.P,C14,2*
G04 #@! TO.N,GND*
X3575000Y2000000D03*
G04 #@! TD*
D21*
G04 #@! TO.P,D3,1,A1_1*
G04 #@! TO.N,/CANH*
X29890000Y9437500D03*
G04 #@! TO.P,D3,2,A2_2*
G04 #@! TO.N,/CANL*
X27990000Y9437500D03*
G04 #@! TO.P,D3,3,common_3*
G04 #@! TO.N,GND*
X28940000Y7562500D03*
G04 #@! TD*
D10*
G04 #@! TO.P,R8,1*
G04 #@! TO.N,+3V3*
X15675000Y24500000D03*
G04 #@! TO.P,R8,2*
G04 #@! TO.N,/IO0*
X17325000Y24500000D03*
G04 #@! TD*
D22*
G04 #@! TO.P,P1,1,1_1*
G04 #@! TO.N,/VBAT*
X43500000Y4700000D03*
G04 #@! TD*
D23*
G04 #@! TO.P,D2,1,A1_1*
G04 #@! TO.N,/VIN_PROT*
X48300000Y20400000D03*
G04 #@! TO.P,D2,2,A2_2*
G04 #@! TO.N,GND*
X48300000Y24700000D03*
G04 #@! TD*
D24*
G04 #@! TO.P,P4,1,1_1*
G04 #@! TO.N,/CANL*
X23400000Y5400000D03*
G04 #@! TD*
D18*
G04 #@! TO.P,U4,1,TXD_1*
G04 #@! TO.N,/CAN_TX*
X26525000Y20905000D03*
G04 #@! TO.P,U4,2,GND_2*
G04 #@! TO.N,GND*
X26525000Y19635000D03*
G04 #@! TO.P,U4,3,VCC_3*
G04 #@! TO.N,+3V3*
X26525000Y18365000D03*
G04 #@! TO.P,U4,4,RXD_4*
G04 #@! TO.N,/CAN_RX*
X26525000Y17095000D03*
G04 #@! TO.P,U4,5,NC_5*
G04 #@! TO.N,unconnected-(U4-NC-Pad5)*
X31475000Y17095000D03*
G04 #@! TO.P,U4,6,CANL_6*
G04 #@! TO.N,/CANL_XCVR*
X31475000Y18365000D03*
G04 #@! TO.P,U4,7,CANH_7*
G04 #@! TO.N,/CANH_XCVR*
X31475000Y19635000D03*
G04 #@! TO.P,U4,8,NC_8*
G04 #@! TO.N,unconnected-(U4-NC-Pad8)*
X31475000Y20905000D03*
G04 #@! TD*
D24*
G04 #@! TO.P,P3,1,1_1*
G04 #@! TO.N,/CANH*
X32700000Y5700000D03*
G04 #@! TD*
D25*
G04 #@! TO.P,F1,1*
G04 #@! TO.N,/VBAT*
X53300000Y29900000D03*
G04 #@! TO.P,F1,2*
G04 #@! TO.N,/VBAT_F*
X53300000Y27100000D03*
G04 #@! TD*
D26*
G04 #@! TO.P,L1,1,1_1*
G04 #@! TO.N,/CANH_XCVR*
X29625000Y15025000D03*
G04 #@! TO.P,L1,2,2_2*
G04 #@! TO.N,/CANH*
X29625000Y11375000D03*
G04 #@! TO.P,L1,3,3_3*
G04 #@! TO.N,/CANL*
X27375000Y11375000D03*
G04 #@! TO.P,L1,4,4_4*
G04 #@! TO.N,/CANL_XCVR*
X27375000Y15025000D03*
G04 #@! TD*
D27*
G04 #@! TO.P,R9,1*
G04 #@! TO.N,+3V3*
X20900000Y1175000D03*
G04 #@! TO.P,R9,2*
G04 #@! TO.N,/MCP_INT*
X20900000Y2825000D03*
G04 #@! TD*
D28*
G04 #@! TO.P,C12,1*
G04 #@! TO.N,+3V3*
X8650000Y2000000D03*
G04 #@! TO.P,C12,2*
G04 #@! TO.N,GND*
X10550000Y2000000D03*
G04 #@! TD*
D10*
G04 #@! TO.P,R2,1*
G04 #@! TO.N,+3V3*
X45975000Y8600000D03*
G04 #@! TO.P,R2,2*
G04 #@! TO.N,/FB*
X47625000Y8600000D03*
G04 #@! TD*
D15*
G04 #@! TO.P,R3,1*
G04 #@! TO.N,/FB*
X47625000Y7000000D03*
G04 #@! TO.P,R3,2*
G04 #@! TO.N,GND*
X45975000Y7000000D03*
G04 #@! TD*
D13*
G04 #@! TO.P,C6,1*
G04 #@! TO.N,/RIPPLE*
X42925000Y8600000D03*
G04 #@! TO.P,C6,2*
G04 #@! TO.N,+3V3*
X44475000Y8600000D03*
G04 #@! TD*
D20*
G04 #@! TO.P,C10,1*
G04 #@! TO.N,/OSC1*
X22600000Y21025000D03*
G04 #@! TO.P,C10,2*
G04 #@! TO.N,GND*
X22600000Y22575000D03*
G04 #@! TD*
D10*
G04 #@! TO.P,R6,1*
G04 #@! TO.N,/EN_UVLO*
X45975000Y11800000D03*
G04 #@! TO.P,R6,2*
G04 #@! TO.N,GND*
X47625000Y11800000D03*
G04 #@! TD*
D13*
G04 #@! TO.P,C16,1*
G04 #@! TO.N,+3V3*
X36025000Y30400000D03*
G04 #@! TO.P,C16,2*
G04 #@! TO.N,GND*
X37575000Y30400000D03*
G04 #@! TD*
D29*
G04 #@! TO.P,U3,1,GND_1*
G04 #@! TO.N,GND*
X53205000Y14300000D03*
G04 #@! TO.P,U3,2,VIN_2*
G04 #@! TO.N,/VIN_PROT*
X51935000Y14300000D03*
G04 #@! TO.P,U3,3,EN/UVLO_3*
G04 #@! TO.N,/EN_UVLO*
X50665000Y14300000D03*
G04 #@! TO.P,U3,4,RON_4*
G04 #@! TO.N,/RON*
X49395000Y14300000D03*
G04 #@! TO.P,U3,5,FB_5*
G04 #@! TO.N,/FB*
X49395000Y8900000D03*
G04 #@! TO.P,U3,6,PGOOD_6*
G04 #@! TO.N,unconnected-(U3-PGOOD-Pad6)*
X50665000Y8900000D03*
G04 #@! TO.P,U3,7,BST_7*
G04 #@! TO.N,/BST*
X51935000Y8900000D03*
G04 #@! TO.P,U3,8,SW_8*
G04 #@! TO.N,/SW*
X53205000Y8900000D03*
D30*
G04 #@! TO.P,U3,9,EP_9*
G04 #@! TO.N,GND*
X53100000Y12200000D03*
X51900000Y12200000D03*
X50600000Y12200000D03*
X49500000Y12200000D03*
D31*
X51300000Y11600000D03*
D32*
X51300000Y11600000D03*
D30*
X53100000Y11000000D03*
X51900000Y11000000D03*
X50600000Y11000000D03*
X49500000Y11000000D03*
G04 #@! TD*
D14*
G04 #@! TO.P,RT1,1*
G04 #@! TO.N,/CANH*
X32000000Y8237500D03*
G04 #@! TO.P,RT1,2*
G04 #@! TO.N,/RT_MID*
X32000000Y11162500D03*
G04 #@! TD*
D33*
G04 #@! TO.P,U1,1,GND_1*
G04 #@! TO.N,GND*
X2380000Y4854394D03*
G04 #@! TO.P,U1,2,3V3_2*
G04 #@! TO.N,+3V3*
X3650000Y4854394D03*
G04 #@! TO.P,U1,3,EN_3*
G04 #@! TO.N,/ESP_EN*
X4920000Y4854394D03*
G04 #@! TO.P,U1,4,IO4_4*
G04 #@! TO.N,unconnected-(U1-IO4-Pad4)*
X6190000Y4854394D03*
G04 #@! TO.P,U1,5,IO5_5*
G04 #@! TO.N,unconnected-(U1-IO5-Pad5)*
X7460000Y4854394D03*
G04 #@! TO.P,U1,6,IO6_6*
G04 #@! TO.N,unconnected-(U1-IO6-Pad6)*
X8730000Y4854394D03*
G04 #@! TO.P,U1,7,IO7_7*
G04 #@! TO.N,unconnected-(U1-IO7-Pad7)*
X10000000Y4854394D03*
G04 #@! TO.P,U1,8,IO15_8*
G04 #@! TO.N,unconnected-(U1-IO15-Pad8)*
X11270000Y4854394D03*
G04 #@! TO.P,U1,9,IO16_9*
G04 #@! TO.N,unconnected-(U1-IO16-Pad9)*
X12540000Y4854394D03*
G04 #@! TO.P,U1,10,IO17_10*
G04 #@! TO.N,unconnected-(U1-IO17-Pad10)*
X13810000Y4854394D03*
G04 #@! TO.P,U1,11,IO18_11*
G04 #@! TO.N,unconnected-(U1-IO18-Pad11)*
X15080000Y4854394D03*
G04 #@! TO.P,U1,12,IO8_12*
G04 #@! TO.N,/MCP_INT*
X16350000Y4854394D03*
G04 #@! TO.P,U1,13,USB_D-_13*
G04 #@! TO.N,/USB_DN*
X17620000Y4854394D03*
G04 #@! TO.P,U1,14,USB_D+_14*
G04 #@! TO.N,/USB_DP*
X18890000Y4854394D03*
D34*
G04 #@! TO.P,U1,15,IO3_15*
G04 #@! TO.N,/MCP_INT1*
X20140000Y6619394D03*
G04 #@! TO.P,U1,16,IO46_16*
G04 #@! TO.N,unconnected-(U1-IO46-Pad16)*
X20140000Y7889394D03*
G04 #@! TO.P,U1,17,IO9_17*
G04 #@! TO.N,/MCP_INT0*
X20140000Y9159394D03*
G04 #@! TO.P,U1,18,IO10_18*
G04 #@! TO.N,/SPI_CS*
X20140000Y10429394D03*
G04 #@! TO.P,U1,19,IO11_19*
G04 #@! TO.N,/SPI_MOSI*
X20140000Y11699394D03*
G04 #@! TO.P,U1,20,IO12_20*
G04 #@! TO.N,/SPI_SCLK*
X20140000Y12969394D03*
G04 #@! TO.P,U1,21,IO13_21*
G04 #@! TO.N,/SPI_MISO*
X20140000Y14239394D03*
G04 #@! TO.P,U1,22,IO14_22*
G04 #@! TO.N,unconnected-(U1-IO14-Pad22)*
X20140000Y15509394D03*
G04 #@! TO.P,U1,23,IO21_23*
G04 #@! TO.N,unconnected-(U1-IO21-Pad23)*
X20140000Y16779394D03*
G04 #@! TO.P,U1,24,IO47_24*
G04 #@! TO.N,unconnected-(U1-IO47-Pad24)*
X20140000Y18049394D03*
G04 #@! TO.P,U1,25,IO48_25*
G04 #@! TO.N,unconnected-(U1-IO48-Pad25)*
X20140000Y19319394D03*
G04 #@! TO.P,U1,26,IO45_26*
G04 #@! TO.N,unconnected-(U1-IO45-Pad26)*
X20140000Y20589394D03*
D33*
G04 #@! TO.P,U1,27,IO0_27*
G04 #@! TO.N,/IO0*
X18890000Y22354394D03*
G04 #@! TO.P,U1,28,IO35_28*
G04 #@! TO.N,unconnected-(U1-IO35-Pad28)*
X17620000Y22354394D03*
G04 #@! TO.P,U1,29,IO36_29*
G04 #@! TO.N,unconnected-(U1-IO36-Pad29)*
X16350000Y22354394D03*
G04 #@! TO.P,U1,30,IO37_30*
G04 #@! TO.N,unconnected-(U1-IO37-Pad30)*
X15080000Y22354394D03*
G04 #@! TO.P,U1,31,IO38_31*
G04 #@! TO.N,unconnected-(U1-IO38-Pad31)*
X13810000Y22354394D03*
G04 #@! TO.P,U1,32,IO39_32*
G04 #@! TO.N,unconnected-(U1-IO39-Pad32)*
X12540000Y22354394D03*
G04 #@! TO.P,U1,33,IO40_33*
G04 #@! TO.N,unconnected-(U1-IO40-Pad33)*
X11270000Y22354394D03*
G04 #@! TO.P,U1,34,IO41_34*
G04 #@! TO.N,unconnected-(U1-IO41-Pad34)*
X10000000Y22354394D03*
G04 #@! TO.P,U1,35,IO42_35*
G04 #@! TO.N,unconnected-(U1-IO42-Pad35)*
X8730000Y22354394D03*
G04 #@! TO.P,U1,36,RXD0_36*
G04 #@! TO.N,/UART_RX*
X7460000Y22354394D03*
G04 #@! TO.P,U1,37,TXD0_37*
G04 #@! TO.N,/UART_TX*
X6190000Y22354394D03*
G04 #@! TO.P,U1,38,IO2_38*
G04 #@! TO.N,unconnected-(U1-IO2-Pad38)*
X4920000Y22354394D03*
G04 #@! TO.P,U1,39,IO1_39*
G04 #@! TO.N,N/C*
X3650000Y22354394D03*
G04 #@! TO.P,U1,40,GND_40*
G04 #@! TO.N,GND*
X2380000Y22354394D03*
D35*
G04 #@! TO.P,U1,41,GND_41*
X9400000Y10704394D03*
X10800000Y10704394D03*
X8700000Y11404394D03*
X10100000Y11404394D03*
X11500000Y11404394D03*
X9400000Y12104394D03*
D36*
X10100000Y12104394D03*
D35*
X10800000Y12104394D03*
X8700000Y12804394D03*
X10100000Y12804394D03*
X11500000Y12804394D03*
X9400000Y13504394D03*
X10800000Y13504394D03*
G04 #@! TD*
D37*
G04 #@! TO.P,C2,1*
G04 #@! TO.N,/VIN_PROT*
X46600000Y17975000D03*
G04 #@! TO.P,C2,2*
G04 #@! TO.N,GND*
X46600000Y15025000D03*
G04 #@! TD*
D38*
G04 #@! TO.P,C3,1*
G04 #@! TO.N,+3V3*
X41000000Y7550000D03*
G04 #@! TO.P,C3,2*
G04 #@! TO.N,GND*
X41000000Y9450000D03*
G04 #@! TD*
D28*
G04 #@! TO.P,C13,1*
G04 #@! TO.N,+3V3*
X5150000Y2000000D03*
G04 #@! TO.P,C13,2*
G04 #@! TO.N,GND*
X7050000Y2000000D03*
G04 #@! TD*
D22*
G04 #@! TO.P,P2,1,1_1*
G04 #@! TO.N,GND*
X38000000Y4700000D03*
G04 #@! TD*
D38*
G04 #@! TO.P,C4,1*
G04 #@! TO.N,+3V3*
X47900000Y1550000D03*
G04 #@! TO.P,C4,2*
G04 #@! TO.N,GND*
X47900000Y3450000D03*
G04 #@! TD*
D13*
G04 #@! TO.P,C15,1*
G04 #@! TO.N,+3V3*
X39125000Y30400000D03*
G04 #@! TO.P,C15,2*
G04 #@! TO.N,GND*
X40675000Y30400000D03*
G04 #@! TD*
D39*
G04 #@! TO.P,J1,1*
G04 #@! TO.N,GND*
X1500000Y26500000D03*
D40*
G04 #@! TO.P,J1,2*
G04 #@! TO.N,/ESP_EN*
X4040000Y26500000D03*
G04 #@! TO.P,J1,3*
G04 #@! TO.N,/UART_TX*
X6580000Y26500000D03*
G04 #@! TO.P,J1,4*
G04 #@! TO.N,/UART_RX*
X9120000Y26500000D03*
G04 #@! TO.P,J1,5*
G04 #@! TO.N,/IO0*
X11660000Y26500000D03*
G04 #@! TO.P,J1,6*
G04 #@! TO.N,/USB_DP*
X14200000Y26500000D03*
G04 #@! TO.P,J1,7*
G04 #@! TO.N,/USB_DN*
X16740000Y26500000D03*
G04 #@! TD*
D39*
G04 #@! TO.P,TP1,1*
G04 #@! TO.N,+3V3*
X38000000Y9000000D03*
G04 #@! TD*
G04 #@! TO.P,TP2,1*
G04 #@! TO.N,/VIN_PROT*
X44000000Y20000000D03*
G04 #@! TD*
D41*
G04 #@! TO.N,/SW*
X42200000Y10200000D03*
X49000000Y6000000D03*
G04 #@! TO.N,GND*
X44530000Y15030000D03*
X3580000Y750000D03*
X38200000Y29310000D03*
X24200000Y27400000D03*
X28940000Y6170000D03*
X12030000Y2000000D03*
X49380000Y3450000D03*
X22600000Y23900000D03*
X10870000Y2000000D03*
X53350000Y15920000D03*
X41000000Y10930000D03*
X24550000Y18500000D03*
X1360000Y23420000D03*
X26300000Y9300000D03*
X45200000Y6100000D03*
X45360000Y14460000D03*
X22400000Y17300000D03*
X53670000Y15030000D03*
X41930000Y30400000D03*
X48300000Y27000000D03*
X27300000Y22100000D03*
X7050000Y750000D03*
X1400000Y3700000D03*
G04 #@! TO.N,/EN_UVLO*
X45250000Y12550000D03*
X48550000Y15650001D03*
G04 #@! TO.N,+3V3*
X22000000Y1150000D03*
X17600000Y1100000D03*
X48890000Y1550000D03*
X7910000Y720000D03*
X34590000Y31230000D03*
X39520000Y7550000D03*
X22300000Y18300000D03*
X35300000Y30500000D03*
X39120000Y29150000D03*
X15000000Y23700000D03*
X770000Y2000000D03*
X50000000Y1000000D03*
X5890000Y720000D03*
X46620000Y810000D03*
G04 #@! TO.N,/ESP_EN*
X4920000Y3400000D03*
G04 #@! TO.N,/CAN_TX*
X25000000Y20100000D03*
X27900000Y30700000D03*
G04 #@! TO.N,/MCP_INT*
X20600000Y2800000D03*
X22700000Y28400000D03*
X16349999Y3400000D03*
G04 #@! TO.N,/MCP_INT1*
X36600000Y22500000D03*
X21500000Y6620000D03*
G04 #@! TO.N,/MCP_INT0*
X36600000Y23800000D03*
X21500000Y9160000D03*
G04 #@! TO.N,/SPI_SCLK*
X35400000Y25460000D03*
X21500000Y12970000D03*
G04 #@! TO.N,/SPI_MOSI*
X35400000Y26730000D03*
X22300000Y14500000D03*
G04 #@! TO.N,/SPI_MISO*
X21500000Y14700000D03*
X35400000Y28000000D03*
G04 #@! TO.N,/SPI_CS*
X37400000Y25500000D03*
X22300000Y11000000D03*
G04 #@! TO.N,/RT_MID*
X23000000Y12700000D03*
X32900000Y10650000D03*
X25750000Y7700000D03*
G04 #@! TO.N,/IO0*
X16400000Y23600000D03*
G04 #@! TO.N,/VBAT*
X51800000Y29900000D03*
G04 #@! TO.N,/USB_DN*
X17700000Y2500000D03*
G04 #@! TO.N,/USB_DP*
X19700000Y3500000D03*
G04 #@! TO.N,/UART_RX*
X7460000Y24000000D03*
G04 #@! TO.N,/UART_TX*
X6190000Y24000000D03*
G04 #@! TD*
G04 #@! TO.N,/SW*
D42*
X49000000Y6000000D02*
X51700000Y5250000D01*
D43*
X53375000Y7050000D02*
X51700000Y5250000D01*
X53205000Y8900000D02*
X53375000Y7050000D01*
D44*
X42875000Y10200000D02*
X42200000Y10200000D01*
G04 #@! TO.N,/RIPPLE*
X46025000Y10200000D02*
X44525000Y10200000D01*
X44525000Y10200000D02*
X42925000Y8600000D01*
G04 #@! TO.N,/OSC2*
X26775000Y27700000D02*
X26600000Y25750000D01*
X26600000Y25750000D02*
X28000000Y25460000D01*
X28000000Y25460000D02*
X29000000Y25460000D01*
G04 #@! TO.N,GND*
D45*
X7050000Y2000000D02*
X7050000Y750000D01*
X53205000Y14300000D02*
X53350000Y15920000D01*
X22600000Y22575000D02*
X22600000Y23900000D01*
X46600000Y15025001D02*
X44530000Y15030000D01*
X22950000Y17300000D02*
X22400000Y17300000D01*
X24400000Y25750000D02*
X24200000Y27400000D01*
X26600000Y24050000D02*
X24400000Y25750000D01*
X2380000Y4854394D02*
X1400000Y3700000D01*
X53675000Y17100000D02*
X53670000Y15030000D01*
X24550000Y19100000D02*
X24550000Y18500000D01*
X37575000Y30400000D02*
X38200000Y29310000D01*
X47625000Y11800000D02*
X45360000Y14460000D01*
X47900000Y3450000D02*
X49380000Y3450000D01*
X10550000Y2000000D02*
X12030000Y2000000D01*
X41000000Y9450000D02*
X41000000Y10930000D01*
X12125000Y2000000D02*
X10870000Y2000000D01*
X48300000Y24700000D02*
X48300000Y27000000D01*
X25750000Y9275000D02*
X26300000Y9300000D01*
X45975000Y13400000D02*
X45360000Y14460000D01*
X40675000Y30400000D02*
X41930000Y30400000D01*
X25225000Y27700000D02*
X24200000Y27400000D01*
X45975000Y7000000D02*
X45200000Y6100000D01*
X2380000Y22354394D02*
X1360000Y23420000D01*
X29000000Y22920000D02*
X27300000Y22100000D01*
X28940000Y7562500D02*
X28940000Y6170000D01*
X26525000Y19635000D02*
X24550000Y19100000D01*
X3575000Y2000000D02*
X3580000Y750000D01*
G04 #@! TO.N,/VIN_PROT*
D46*
X46900000Y20000000D02*
X48300000Y20400000D01*
D44*
X42875000Y13400000D02*
X42850000Y16000000D01*
X44800000Y17950000D02*
X46600000Y17975000D01*
D46*
X44000000Y20000000D02*
X46900000Y20000000D01*
D42*
X48300000Y20400000D02*
X50725000Y17100000D01*
X46600000Y17975000D02*
X48300000Y20400000D01*
X50725000Y17100000D02*
X51935000Y14300000D01*
X52500000Y20550000D02*
X50725000Y17100000D01*
D44*
X42850000Y16000000D02*
X44800000Y17950000D01*
G04 #@! TO.N,/EN_UVLO*
X50665000Y15400001D02*
X48800000Y15400001D01*
X45250000Y12550000D02*
X44525000Y13400000D01*
X45250000Y12550000D02*
X45975000Y11800000D01*
X50665000Y14300000D02*
X50665000Y15400001D01*
X48800000Y15400001D02*
X48550000Y15650001D01*
G04 #@! TO.N,/OSC1*
X27700000Y24190000D02*
X29000000Y24190000D01*
X23500000Y21020000D02*
X24400000Y23100000D01*
X24400000Y23100000D02*
X27400000Y23100000D01*
X27400000Y23100000D02*
X27700000Y23500000D01*
X27700000Y23500000D02*
X27700000Y24190000D01*
X24400000Y24050000D02*
X24400000Y23100000D01*
X22600000Y21025000D02*
X23500000Y21020000D01*
G04 #@! TO.N,/BST*
X51935000Y8900000D02*
X51825000Y7050000D01*
G04 #@! TO.N,+3V3*
D45*
X26525000Y18365000D02*
X24500000Y17300000D01*
X45975000Y8600000D02*
X44475000Y8600000D01*
X44475000Y7700000D02*
X42300000Y7700000D01*
X23000000Y18400000D02*
X23000000Y19100000D01*
D42*
X51700000Y1550000D02*
X50000000Y1000000D01*
D45*
X5150000Y2000000D02*
X5890000Y720000D01*
X44475000Y8600000D02*
X44475000Y7700000D01*
X51700000Y1550000D02*
X48890000Y1550000D01*
X42300000Y7700000D02*
X41500000Y7550000D01*
X3650000Y3500000D02*
X2230000Y2600000D01*
X23000000Y19100000D02*
X22300000Y18300000D01*
X3650000Y4854394D02*
X3650000Y3500000D01*
X15675000Y24500000D02*
X15000000Y23700000D01*
X2230000Y2600000D02*
X2025000Y2000000D01*
X20900000Y1175000D02*
X22000000Y1150000D01*
X24500000Y17300000D02*
X23800000Y18000000D01*
X2025000Y2000000D02*
X770000Y2000000D01*
X47900000Y1550000D02*
X46620000Y810000D01*
X36025000Y30400000D02*
X34590000Y31230000D01*
X41000000Y7550000D02*
X39520000Y7550000D01*
X16724999Y2000000D02*
X17600000Y1100000D01*
X39125000Y30400000D02*
X39120000Y29150000D01*
X23800000Y18000000D02*
X23000000Y18400000D01*
X41500000Y7550000D02*
X41000000Y7550000D01*
X33950000Y30540000D02*
X35300000Y30500000D01*
X8650000Y2000000D02*
X7910000Y720000D01*
D42*
X50000000Y1000000D02*
X47900000Y1550000D01*
G04 #@! TO.N,/ESP_EN*
D44*
X13000000Y3400000D02*
X13675000Y2000000D01*
X4920000Y3400000D02*
X13000000Y3400000D01*
X4920000Y4854394D02*
X4920000Y3400000D01*
X13675000Y2000000D02*
X15075000Y2000000D01*
G04 #@! TO.N,/CAN_TX*
X29000000Y30540000D02*
X27900000Y30700000D01*
X25000000Y20100000D02*
X25200000Y20400000D01*
X25200000Y20400000D02*
X26525000Y20905000D01*
G04 #@! TO.N,/CAN_RX*
X29000000Y29270000D02*
X21400000Y29270000D01*
X21400000Y29270000D02*
X21400000Y16450000D01*
X21400000Y16450000D02*
X26530000Y16450000D01*
X26530000Y16450000D02*
X26525000Y17095000D01*
G04 #@! TO.N,/MCP_INT*
X16349999Y4854394D02*
X16349999Y3400000D01*
X27550000Y28700000D02*
X24000000Y28700000D01*
X29000000Y26730000D02*
X28000000Y26730000D01*
X24000000Y28700000D02*
X22700000Y28400000D01*
X20900000Y2825000D02*
X20600000Y2800000D01*
X27550000Y27400000D02*
X27550000Y28700000D01*
X28000000Y26730000D02*
X27550000Y27400000D01*
G04 #@! TO.N,/MCP_INT1*
X35900000Y22920000D02*
X36600000Y22500000D01*
X20140000Y6619394D02*
X21500000Y6620000D01*
X33950000Y22920000D02*
X35900000Y22920000D01*
G04 #@! TO.N,/MCP_INT0*
X20140000Y9159394D02*
X21500000Y9160000D01*
X35900000Y24190000D02*
X36600000Y23800000D01*
X33950000Y24190000D02*
X35900000Y24190000D01*
G04 #@! TO.N,/SPI_SCLK*
X33950000Y25460000D02*
X35400000Y25460000D01*
X20140000Y12969394D02*
X21500000Y12970000D01*
G04 #@! TO.N,/SPI_MOSI*
X21900000Y11700000D02*
X22300000Y12100000D01*
X33950000Y26730000D02*
X35400000Y26730000D01*
X22300000Y12100000D02*
X22300000Y14500000D01*
X20140000Y11699394D02*
X21900000Y11700000D01*
G04 #@! TO.N,/SPI_MISO*
X33950000Y28000000D02*
X35400000Y28000000D01*
X20140000Y14239394D02*
X21500000Y14700000D01*
G04 #@! TO.N,/SPI_CS*
X33950000Y29270000D02*
X36200000Y29270000D01*
X36200000Y29270000D02*
X37400000Y28100000D01*
X20140000Y10429394D02*
X21900000Y10430000D01*
X21900000Y10430000D02*
X22300000Y11000000D01*
X37400000Y28100000D02*
X37400000Y25500000D01*
G04 #@! TO.N,/VBAT_F*
D42*
X53300000Y27100000D02*
X52500000Y24550000D01*
G04 #@! TO.N,/RT_MID*
D44*
X24000000Y11512500D02*
X23000000Y12700000D01*
X25750000Y7725000D02*
X25750000Y7700000D01*
X32000000Y10612500D02*
X32900000Y10650000D01*
G04 #@! TO.N,/RON*
X49395000Y14300000D02*
X47625000Y13400000D01*
G04 #@! TO.N,/FB*
X47625000Y8600000D02*
X47575000Y10200000D01*
X49395000Y8900000D02*
X47625000Y8600000D01*
X47625000Y8600000D02*
X47625000Y7000000D01*
G04 #@! TO.N,/CANH*
D45*
X30900000Y9100000D02*
X32000000Y8787500D01*
X29625000Y11375000D02*
X29890000Y9437500D01*
X32000000Y8787500D02*
X32700000Y5700000D01*
X29890000Y9437500D02*
X30900000Y9100000D01*
G04 #@! TO.N,/CANL*
X24000000Y7100000D02*
X23400000Y5400000D01*
X24500000Y10100000D02*
X24000000Y9687500D01*
X24000000Y9687500D02*
X24000000Y7100000D01*
X27375000Y11375000D02*
X27990000Y9437500D01*
X27600000Y10100000D02*
X24500000Y10100000D01*
X27990000Y9437500D02*
X27600000Y10100000D01*
G04 #@! TO.N,/IO0*
D44*
X17325000Y24500000D02*
X16400000Y23600000D01*
X18890000Y23500000D02*
X17900000Y24300000D01*
X17900000Y24300000D02*
X17325000Y24500000D01*
X18890000Y22354394D02*
X18890000Y23500000D01*
G04 #@! TO.N,/VBAT*
D43*
X53300000Y29900000D02*
X51800000Y29900000D01*
G04 #@! TO.N,/CANL_XCVR*
D45*
X27400000Y16000000D02*
X27375000Y15025001D01*
X31475000Y17800000D02*
X28400000Y17800000D01*
X31475000Y18365000D02*
X31475000Y17800000D01*
X28400000Y17800000D02*
X28000000Y16600000D01*
X28000000Y16600000D02*
X27400000Y16000000D01*
G04 #@! TO.N,/CANH_XCVR*
X30300000Y15225000D02*
X29625000Y15025001D01*
X32900000Y16700000D02*
X30300000Y15225000D01*
X31475000Y19635000D02*
X32900000Y19635000D01*
X32900000Y19635000D02*
X32900000Y16700000D01*
G04 #@! TO.N,/USB_DN*
D44*
X17620000Y4854394D02*
X17700000Y2500000D01*
G04 #@! TO.N,/USB_DP*
X18890000Y4854394D02*
X19700000Y3500000D01*
G04 #@! TO.N,/UART_RX*
X7460000Y22354394D02*
X7460000Y24000000D01*
G04 #@! TO.N,/UART_TX*
X6190000Y22354394D02*
X6190000Y24000000D01*
G04 #@! TD*
M02*
