G04 #@! TF.GenerationSoftware,KiCad,Pcbnew,10.0.6*
G04 #@! TF.CreationDate,2026-09-16T08:03:40+02:00*
G04 #@! TF.ProjectId,canfd-mc,63616e66-642d-46d6-932e-6b696361645f,1.1*
G04 #@! TF.SameCoordinates,Original*
G04 #@! TF.FileFunction,Copper,L3,Inr*
G04 #@! TF.FilePolarity,Positive*
%FSLAX46Y46*%
G04 Gerber Fmt 4.6, Leading zero omitted, Abs format (unit mm)*
G04 Created by KiCad (PCBNEW 10.0.6) date 2026-09-16 08:03:40*
%MOMM*%
%LPD*%
G01*
G04 APERTURE LIST*
G04 #@! TA.AperFunction,ComponentPad*
%ADD10C,3.400000*%
G04 #@! TD*
G04 #@! TA.AperFunction,ComponentPad*
%ADD11C,2.800000*%
G04 #@! TD*
G04 #@! TA.AperFunction,ComponentPad*
%ADD12C,0.600000*%
G04 #@! TD*
G04 #@! TA.AperFunction,HeatsinkPad*
%ADD13C,0.500000*%
G04 #@! TD*
G04 #@! TA.AperFunction,ComponentPad*
%ADD14R,1.700000X1.700000*%
G04 #@! TD*
G04 #@! TA.AperFunction,ComponentPad*
%ADD15C,1.700000*%
G04 #@! TD*
G04 #@! TA.AperFunction,ViaPad*
%ADD16C,0.600000*%
G04 #@! TD*
G04 #@! TA.AperFunction,Conductor*
%ADD17C,0.250000*%
G04 #@! TD*
G04 APERTURE END LIST*
D10*
G04 #@! TO.N,/VBAT*
G04 #@! TO.C,P1*
X43500000Y4700000D03*
G04 #@! TD*
D11*
G04 #@! TO.N,/CANL*
G04 #@! TO.C,P4*
X23400000Y5400000D03*
G04 #@! TD*
G04 #@! TO.N,/CANH*
G04 #@! TO.C,P3*
X32700000Y5700000D03*
G04 #@! TD*
D12*
G04 #@! TO.N,GND*
G04 #@! TO.C,U3*
X53100000Y12200000D03*
X51900000Y12200000D03*
X50600000Y12200000D03*
X49500000Y12200000D03*
X53100000Y11000000D03*
X51900000Y11000000D03*
X50600000Y11000000D03*
X49500000Y11000000D03*
G04 #@! TD*
D13*
G04 #@! TO.N,GND*
G04 #@! TO.C,U1*
X9400000Y10704394D03*
X10800000Y10704394D03*
X8700000Y11404394D03*
X10100000Y11404394D03*
X11500000Y11404394D03*
X9400000Y12104394D03*
X10800000Y12104394D03*
X8700000Y12804394D03*
X10100000Y12804394D03*
X11500000Y12804394D03*
X9400000Y13504394D03*
X10800000Y13504394D03*
G04 #@! TD*
D10*
G04 #@! TO.N,GND*
G04 #@! TO.C,P2*
X38000000Y4700000D03*
G04 #@! TD*
D14*
G04 #@! TO.N,GND*
G04 #@! TO.C,J1*
X1500000Y26500000D03*
D15*
G04 #@! TO.N,/ESP_EN*
X4040000Y26500000D03*
G04 #@! TO.N,/UART_TX*
X6580000Y26500000D03*
G04 #@! TO.N,/UART_RX*
X9120000Y26500000D03*
G04 #@! TO.N,/IO0*
X11660000Y26500000D03*
G04 #@! TO.N,/USB_DP*
X14200000Y26500000D03*
G04 #@! TO.N,/USB_DN*
X16740000Y26500000D03*
G04 #@! TD*
D14*
G04 #@! TO.N,+3V3*
G04 #@! TO.C,TP1*
X38000000Y9000000D03*
G04 #@! TD*
G04 #@! TO.N,/VIN_PROT*
G04 #@! TO.C,TP2*
X44000000Y20000000D03*
G04 #@! TD*
D16*
G04 #@! TO.N,/SW*
X42200000Y10200000D03*
X49000000Y6000000D03*
G04 #@! TO.N,GND*
X44530000Y15030000D03*
X3580000Y750000D03*
X38200000Y29310000D03*
X24200000Y27400000D03*
X28940000Y6170000D03*
X12030000Y2000000D03*
X49380000Y3450000D03*
X22600000Y23900000D03*
X10870000Y2000000D03*
X53350000Y15920000D03*
X41000000Y10930000D03*
X24550000Y18500000D03*
X1360000Y23420000D03*
X26300000Y9300000D03*
X45200000Y6100000D03*
X45360000Y14460000D03*
X22400000Y17300000D03*
X53670000Y15030000D03*
X41930000Y30400000D03*
X48300000Y27000000D03*
X27300000Y22100000D03*
X7050000Y750000D03*
X1400000Y3700000D03*
G04 #@! TO.N,/EN_UVLO*
X45250000Y12550000D03*
X48550000Y15650001D03*
G04 #@! TO.N,+3V3*
X22000000Y1150000D03*
X17600000Y1100000D03*
X48890000Y1550000D03*
X7910000Y720000D03*
X34590000Y31230000D03*
X39520000Y7550000D03*
X22300000Y18300000D03*
X35300000Y30500000D03*
X39120000Y29150000D03*
X15000000Y23700000D03*
X770000Y2000000D03*
X50000000Y1000000D03*
X5890000Y720000D03*
X46620000Y810000D03*
G04 #@! TO.N,/ESP_EN*
X4920000Y3400000D03*
G04 #@! TO.N,/CAN_TX*
X25000000Y20100000D03*
X27900000Y30700000D03*
G04 #@! TO.N,/MCP_INT*
X20600000Y2800000D03*
X22700000Y28400000D03*
X16349999Y3400000D03*
G04 #@! TO.N,/MCP_INT1*
X36600000Y22500000D03*
X21500000Y6620000D03*
G04 #@! TO.N,/MCP_INT0*
X36600000Y23800000D03*
X21500000Y9160000D03*
G04 #@! TO.N,/SPI_SCLK*
X35400000Y25460000D03*
X21500000Y12970000D03*
G04 #@! TO.N,/SPI_MOSI*
X35400000Y26730000D03*
X22300000Y14500000D03*
G04 #@! TO.N,/SPI_MISO*
X21500000Y14700000D03*
X35400000Y28000000D03*
G04 #@! TO.N,/SPI_CS*
X37400000Y25500000D03*
X22300000Y11000000D03*
G04 #@! TO.N,/RT_MID*
X23000000Y12700000D03*
X32900000Y10650000D03*
X25750000Y7700000D03*
G04 #@! TO.N,/IO0*
X16400000Y23600000D03*
G04 #@! TO.N,/VBAT*
X51800000Y29900000D03*
G04 #@! TO.N,/USB_DN*
X17700000Y2500000D03*
G04 #@! TO.N,/USB_DP*
X19700000Y3500000D03*
G04 #@! TO.N,/UART_RX*
X7460000Y24000000D03*
G04 #@! TO.N,/UART_TX*
X6190000Y24000000D03*
G04 #@! TD*
G04 #@! TO.N,/RT_MID*
D17*
X23000000Y12700000D02*
X25750000Y7700000D01*
X25750000Y7700000D02*
X32900000Y10650000D01*
G04 #@! TD*
G04 #@! TA.AperFunction,Conductor*
G04 #@! TO.N,+3V3*
G36*
X54442539Y31479815D02*
G01*
X54488294Y31427011D01*
X54499500Y31375500D01*
X54499500Y624500D01*
X54479815Y557461D01*
X54427011Y511706D01*
X54375500Y500500D01*
X7714666Y500500D01*
X7647627Y520185D01*
X7601872Y572989D01*
X7591928Y642147D01*
X7594891Y656593D01*
X7600500Y677525D01*
X7600500Y822475D01*
X7562984Y962485D01*
X7490509Y1088015D01*
X7388015Y1190509D01*
X7388013Y1190510D01*
X7388011Y1190512D01*
X7262488Y1262983D01*
X7262489Y1262983D01*
X7251006Y1266060D01*
X7122475Y1300500D01*
X6977525Y1300500D01*
X6848993Y1266060D01*
X6837511Y1262983D01*
X6711988Y1190512D01*
X6711982Y1190507D01*
X6609493Y1088018D01*
X6609488Y1088012D01*
X6537017Y962489D01*
X6537016Y962485D01*
X6499500Y822475D01*
X6499500Y822473D01*
X6499500Y677526D01*
X6505109Y656593D01*
X6503446Y586743D01*
X6464283Y528881D01*
X6400055Y501377D01*
X6385334Y500500D01*
X4244666Y500500D01*
X4177627Y520185D01*
X4131872Y572989D01*
X4121928Y642147D01*
X4124891Y656593D01*
X4130500Y677525D01*
X4130500Y822475D01*
X4092984Y962485D01*
X4020509Y1088015D01*
X3918015Y1190509D01*
X3918013Y1190510D01*
X3918011Y1190512D01*
X3792488Y1262983D01*
X3792489Y1262983D01*
X3781006Y1266060D01*
X3652475Y1300500D01*
X3507525Y1300500D01*
X3378993Y1266060D01*
X3367511Y1262983D01*
X3241988Y1190512D01*
X3241982Y1190507D01*
X3139493Y1088018D01*
X3139488Y1088012D01*
X3067017Y962489D01*
X3067016Y962485D01*
X3029500Y822475D01*
X3029500Y822473D01*
X3029500Y677526D01*
X3035109Y656593D01*
X3033446Y586743D01*
X2994283Y528881D01*
X2930055Y501377D01*
X2915334Y500500D01*
X624500Y500500D01*
X557461Y520185D01*
X511706Y572989D01*
X500500Y624500D01*
X500500Y2072475D01*
X10319500Y2072475D01*
X10319500Y1927525D01*
X10338173Y1857838D01*
X10357017Y1787512D01*
X10429488Y1661989D01*
X10429490Y1661987D01*
X10429491Y1661985D01*
X10531985Y1559491D01*
X10531986Y1559490D01*
X10531988Y1559489D01*
X10657511Y1487018D01*
X10657512Y1487018D01*
X10657515Y1487016D01*
X10797525Y1449500D01*
X10797528Y1449500D01*
X10942472Y1449500D01*
X10942475Y1449500D01*
X11082485Y1487016D01*
X11208015Y1559491D01*
X11310509Y1661985D01*
X11342613Y1717592D01*
X11393180Y1765807D01*
X11461787Y1779030D01*
X11526652Y1753062D01*
X11557386Y1717592D01*
X11589491Y1661985D01*
X11691985Y1559491D01*
X11691986Y1559490D01*
X11691988Y1559489D01*
X11817511Y1487018D01*
X11817512Y1487018D01*
X11817515Y1487016D01*
X11957525Y1449500D01*
X11957528Y1449500D01*
X12102472Y1449500D01*
X12102475Y1449500D01*
X12242485Y1487016D01*
X12368015Y1559491D01*
X12470509Y1661985D01*
X12542984Y1787515D01*
X12580500Y1927525D01*
X12580500Y2072475D01*
X12542984Y2212485D01*
X12530450Y2234194D01*
X12470511Y2338012D01*
X12470506Y2338018D01*
X12368017Y2440507D01*
X12368015Y2440509D01*
X12242485Y2512984D01*
X12102475Y2550500D01*
X11957525Y2550500D01*
X11844565Y2520232D01*
X11817511Y2512983D01*
X11691988Y2440512D01*
X11691982Y2440507D01*
X11589493Y2338018D01*
X11589491Y2338015D01*
X11557387Y2282409D01*
X11506819Y2234194D01*
X11438212Y2220972D01*
X11373348Y2246940D01*
X11342613Y2282409D01*
X11334108Y2297140D01*
X11310509Y2338015D01*
X11208015Y2440509D01*
X11208012Y2440511D01*
X11208011Y2440512D01*
X11082488Y2512983D01*
X11082489Y2512983D01*
X11055435Y2520232D01*
X10942475Y2550500D01*
X10797525Y2550500D01*
X10684565Y2520232D01*
X10657511Y2512983D01*
X10531988Y2440512D01*
X10531982Y2440507D01*
X10429493Y2338018D01*
X10429488Y2338012D01*
X10357017Y2212489D01*
X10357016Y2212485D01*
X10319500Y2072475D01*
X500500Y2072475D01*
X500500Y2572475D01*
X17149500Y2572475D01*
X17149500Y2427525D01*
X17179322Y2316229D01*
X17187017Y2287512D01*
X17259488Y2161989D01*
X17259490Y2161987D01*
X17259491Y2161985D01*
X17361985Y2059491D01*
X17361986Y2059490D01*
X17361988Y2059489D01*
X17487511Y1987018D01*
X17487512Y1987018D01*
X17487515Y1987016D01*
X17627525Y1949500D01*
X17627528Y1949500D01*
X17772472Y1949500D01*
X17772475Y1949500D01*
X17912485Y1987016D01*
X18038015Y2059491D01*
X18140509Y2161985D01*
X18212984Y2287515D01*
X18250500Y2427525D01*
X18250500Y2572475D01*
X18212984Y2712485D01*
X18191613Y2749500D01*
X18140511Y2838012D01*
X18140506Y2838018D01*
X18038017Y2940507D01*
X18038011Y2940512D01*
X17912488Y3012983D01*
X17912489Y3012983D01*
X17901006Y3016060D01*
X17772475Y3050500D01*
X17627525Y3050500D01*
X17498993Y3016060D01*
X17487511Y3012983D01*
X17361988Y2940512D01*
X17361982Y2940507D01*
X17259493Y2838018D01*
X17259488Y2838012D01*
X17187017Y2712489D01*
X17187016Y2712485D01*
X17149500Y2572475D01*
X500500Y2572475D01*
X500500Y3772475D01*
X849500Y3772475D01*
X849500Y3627525D01*
X887016Y3487515D01*
X887017Y3487512D01*
X959488Y3361989D01*
X959490Y3361987D01*
X959491Y3361985D01*
X1061985Y3259491D01*
X1061986Y3259490D01*
X1061988Y3259489D01*
X1187511Y3187018D01*
X1187512Y3187018D01*
X1187515Y3187016D01*
X1327525Y3149500D01*
X1327528Y3149500D01*
X1472472Y3149500D01*
X1472475Y3149500D01*
X1612485Y3187016D01*
X1738015Y3259491D01*
X1840509Y3361985D01*
X1904301Y3472475D01*
X4369500Y3472475D01*
X4369500Y3327525D01*
X4398897Y3217816D01*
X4407017Y3187512D01*
X4479488Y3061989D01*
X4479490Y3061987D01*
X4479491Y3061985D01*
X4581985Y2959491D01*
X4581986Y2959490D01*
X4581988Y2959489D01*
X4707511Y2887018D01*
X4707512Y2887018D01*
X4707515Y2887016D01*
X4847525Y2849500D01*
X4847528Y2849500D01*
X4992472Y2849500D01*
X4992475Y2849500D01*
X5132485Y2887016D01*
X5258015Y2959491D01*
X5360509Y3061985D01*
X5432984Y3187515D01*
X5470500Y3327525D01*
X5470500Y3472475D01*
X15799499Y3472475D01*
X15799499Y3327525D01*
X15828896Y3217816D01*
X15837016Y3187512D01*
X15909487Y3061989D01*
X15909489Y3061987D01*
X15909490Y3061985D01*
X16011984Y2959491D01*
X16011985Y2959490D01*
X16011987Y2959489D01*
X16137510Y2887018D01*
X16137511Y2887018D01*
X16137514Y2887016D01*
X16277524Y2849500D01*
X16277527Y2849500D01*
X16422471Y2849500D01*
X16422474Y2849500D01*
X16562484Y2887016D01*
X16688014Y2959491D01*
X16790508Y3061985D01*
X16862983Y3187515D01*
X16900499Y3327525D01*
X16900499Y3472475D01*
X16873704Y3572475D01*
X19149500Y3572475D01*
X19149500Y3427525D01*
X19178376Y3319759D01*
X19187017Y3287512D01*
X19259488Y3161989D01*
X19259490Y3161987D01*
X19259491Y3161985D01*
X19361985Y3059491D01*
X19361986Y3059490D01*
X19361988Y3059489D01*
X19487511Y2987018D01*
X19487512Y2987018D01*
X19487515Y2987016D01*
X19627525Y2949500D01*
X19627528Y2949500D01*
X19772472Y2949500D01*
X19772475Y2949500D01*
X19893410Y2981905D01*
X19963255Y2980242D01*
X20021118Y2941080D01*
X20048623Y2876852D01*
X20049500Y2862130D01*
X20049500Y2727525D01*
X20081438Y2608332D01*
X20087017Y2587512D01*
X20159488Y2461989D01*
X20159490Y2461987D01*
X20159491Y2461985D01*
X20261985Y2359491D01*
X20261986Y2359490D01*
X20261988Y2359489D01*
X20387511Y2287018D01*
X20387512Y2287018D01*
X20387515Y2287016D01*
X20527525Y2249500D01*
X20527528Y2249500D01*
X20672472Y2249500D01*
X20672475Y2249500D01*
X20812485Y2287016D01*
X20938015Y2359491D01*
X21040509Y2461985D01*
X21053088Y2483772D01*
X22549500Y2483772D01*
X22549500Y2316229D01*
X22582182Y2151926D01*
X22582184Y2151918D01*
X22646295Y1997140D01*
X22739373Y1857838D01*
X22857837Y1739374D01*
X22890438Y1717591D01*
X22997137Y1646297D01*
X23151918Y1582184D01*
X23316228Y1549501D01*
X23316232Y1549500D01*
X23316233Y1549500D01*
X23483768Y1549500D01*
X23483769Y1549501D01*
X23648082Y1582184D01*
X23802863Y1646297D01*
X23942162Y1739374D01*
X24060626Y1857838D01*
X24153703Y1997137D01*
X24217816Y2151918D01*
X24250500Y2316233D01*
X24250500Y2483767D01*
X24217816Y2648082D01*
X24161613Y2783767D01*
X24161611Y2783772D01*
X31849500Y2783772D01*
X31849500Y2616229D01*
X31882182Y2451926D01*
X31882184Y2451918D01*
X31946295Y2297140D01*
X32039373Y2157838D01*
X32157837Y2039374D01*
X32221045Y1997140D01*
X32297137Y1946297D01*
X32451918Y1882184D01*
X32574315Y1857838D01*
X32616228Y1849501D01*
X32616232Y1849500D01*
X32616233Y1849500D01*
X32783768Y1849500D01*
X32783769Y1849501D01*
X32948082Y1882184D01*
X33102863Y1946297D01*
X33242162Y2039374D01*
X33360626Y2157838D01*
X33453703Y2297137D01*
X33517816Y2451918D01*
X33550500Y2616233D01*
X33550500Y2783767D01*
X33517816Y2948082D01*
X33453703Y3102863D01*
X33376894Y3217816D01*
X33360626Y3242163D01*
X33242162Y3360627D01*
X33102860Y3453705D01*
X32948082Y3517816D01*
X32948074Y3517818D01*
X32783771Y3550500D01*
X32783767Y3550500D01*
X32616233Y3550500D01*
X32616228Y3550500D01*
X32451925Y3517818D01*
X32451917Y3517816D01*
X32297139Y3453705D01*
X32157837Y3360627D01*
X32039373Y3242163D01*
X31946295Y3102861D01*
X31882184Y2948083D01*
X31882182Y2948075D01*
X31849500Y2783772D01*
X24161611Y2783772D01*
X24153705Y2802859D01*
X24153704Y2802861D01*
X24060626Y2942163D01*
X23942162Y3060627D01*
X23802860Y3153705D01*
X23648082Y3217816D01*
X23648074Y3217818D01*
X23483771Y3250500D01*
X23483767Y3250500D01*
X23316233Y3250500D01*
X23316228Y3250500D01*
X23151925Y3217818D01*
X23151917Y3217816D01*
X22997139Y3153705D01*
X22857837Y3060627D01*
X22739373Y2942163D01*
X22646295Y2802861D01*
X22582184Y2648083D01*
X22582182Y2648075D01*
X22549500Y2483772D01*
X21053088Y2483772D01*
X21112984Y2587515D01*
X21150500Y2727525D01*
X21150500Y2872475D01*
X21112984Y3012485D01*
X21112696Y3012983D01*
X21040511Y3138012D01*
X21040506Y3138018D01*
X20938017Y3240507D01*
X20938011Y3240512D01*
X20812488Y3312983D01*
X20812489Y3312983D01*
X20793407Y3318096D01*
X20672475Y3350500D01*
X20527525Y3350500D01*
X20406593Y3318097D01*
X20336744Y3319759D01*
X20278881Y3358921D01*
X20251377Y3423150D01*
X20250500Y3437871D01*
X20250500Y3572473D01*
X20250500Y3572475D01*
X20212984Y3712485D01*
X20198244Y3738015D01*
X20140511Y3838012D01*
X20140506Y3838018D01*
X20038017Y3940507D01*
X20038011Y3940512D01*
X19912488Y4012983D01*
X19912489Y4012983D01*
X19901006Y4016060D01*
X19772475Y4050500D01*
X19627525Y4050500D01*
X19498993Y4016060D01*
X19487511Y4012983D01*
X19361988Y3940512D01*
X19361982Y3940507D01*
X19259493Y3838018D01*
X19259488Y3838012D01*
X19187017Y3712489D01*
X19187016Y3712485D01*
X19149500Y3572475D01*
X16873704Y3572475D01*
X16862983Y3612485D01*
X16862089Y3614033D01*
X16790510Y3738012D01*
X16790505Y3738018D01*
X16688016Y3840507D01*
X16688010Y3840512D01*
X16562487Y3912983D01*
X16562488Y3912983D01*
X16551005Y3916060D01*
X16422474Y3950500D01*
X16277524Y3950500D01*
X16148992Y3916060D01*
X16137510Y3912983D01*
X16011987Y3840512D01*
X16011981Y3840507D01*
X15909492Y3738018D01*
X15909487Y3738012D01*
X15837016Y3612489D01*
X15837015Y3612485D01*
X15799499Y3472475D01*
X5470500Y3472475D01*
X5432984Y3612485D01*
X5432090Y3614033D01*
X5360511Y3738012D01*
X5360506Y3738018D01*
X5258017Y3840507D01*
X5258011Y3840512D01*
X5132488Y3912983D01*
X5132489Y3912983D01*
X5121006Y3916060D01*
X4992475Y3950500D01*
X4847525Y3950500D01*
X4718993Y3916060D01*
X4707511Y3912983D01*
X4581988Y3840512D01*
X4581982Y3840507D01*
X4479493Y3738018D01*
X4479488Y3738012D01*
X4407017Y3612489D01*
X4407016Y3612485D01*
X4369500Y3472475D01*
X1904301Y3472475D01*
X1912984Y3487515D01*
X1950500Y3627525D01*
X1950500Y3772475D01*
X1912984Y3912485D01*
X1912696Y3912983D01*
X1840511Y4038012D01*
X1840506Y4038018D01*
X1738017Y4140507D01*
X1738011Y4140512D01*
X1612488Y4212983D01*
X1612489Y4212983D01*
X1601006Y4216060D01*
X1472475Y4250500D01*
X1327525Y4250500D01*
X1198993Y4216060D01*
X1187511Y4212983D01*
X1061988Y4140512D01*
X1061982Y4140507D01*
X959493Y4038018D01*
X959488Y4038012D01*
X887017Y3912489D01*
X887016Y3912485D01*
X849500Y3772475D01*
X500500Y3772475D01*
X500500Y6692475D01*
X20949500Y6692475D01*
X20949500Y6547525D01*
X20987016Y6407515D01*
X20987017Y6407512D01*
X21059488Y6281989D01*
X21059490Y6281987D01*
X21059491Y6281985D01*
X21161985Y6179491D01*
X21161986Y6179490D01*
X21161988Y6179489D01*
X21287511Y6107018D01*
X21287512Y6107018D01*
X21287515Y6107016D01*
X21427525Y6069500D01*
X21427528Y6069500D01*
X21572472Y6069500D01*
X21572475Y6069500D01*
X21691025Y6101266D01*
X21760873Y6099603D01*
X21818736Y6060441D01*
X21846240Y5996213D01*
X21841048Y5943173D01*
X21790140Y5786498D01*
X21790140Y5786495D01*
X21749500Y5529903D01*
X21749500Y5270098D01*
X21790140Y5013507D01*
X21870422Y4766424D01*
X21942597Y4624775D01*
X21969407Y4572157D01*
X21988368Y4534946D01*
X22056574Y4441069D01*
X22141069Y4324771D01*
X22324771Y4141069D01*
X22534949Y3988366D01*
X22682445Y3913213D01*
X22766423Y3870423D01*
X22766425Y3870423D01*
X22766428Y3870421D01*
X23013507Y3790140D01*
X23145706Y3769203D01*
X23270098Y3749500D01*
X23270103Y3749500D01*
X23529902Y3749500D01*
X23643298Y3767461D01*
X23786493Y3790140D01*
X24033572Y3870421D01*
X24265051Y3988366D01*
X24475229Y4141069D01*
X24658931Y4324771D01*
X24811634Y4534949D01*
X24929579Y4766428D01*
X25009860Y5013507D01*
X25032539Y5156702D01*
X25050500Y5270098D01*
X25050500Y5529903D01*
X25018888Y5729491D01*
X25009860Y5786493D01*
X24929579Y6033572D01*
X24929577Y6033575D01*
X24929577Y6033577D01*
X24847680Y6194307D01*
X24838416Y6212489D01*
X24823137Y6242475D01*
X28389500Y6242475D01*
X28389500Y6097525D01*
X28408256Y6027528D01*
X28427017Y5957512D01*
X28499488Y5831989D01*
X28499490Y5831987D01*
X28499491Y5831985D01*
X28601985Y5729491D01*
X28601986Y5729490D01*
X28601988Y5729489D01*
X28727511Y5657018D01*
X28727512Y5657018D01*
X28727515Y5657016D01*
X28867525Y5619500D01*
X28867528Y5619500D01*
X29012472Y5619500D01*
X29012475Y5619500D01*
X29152485Y5657016D01*
X29278015Y5729491D01*
X29378427Y5829903D01*
X31049500Y5829903D01*
X31049500Y5570098D01*
X31090140Y5313507D01*
X31170422Y5066424D01*
X31251534Y4907236D01*
X31288366Y4834949D01*
X31441069Y4624771D01*
X31624771Y4441069D01*
X31834949Y4288366D01*
X31982445Y4213213D01*
X32066423Y4170423D01*
X32066425Y4170423D01*
X32066428Y4170421D01*
X32313507Y4090140D01*
X32430074Y4071678D01*
X32570098Y4049500D01*
X32570103Y4049500D01*
X32829902Y4049500D01*
X32943298Y4067461D01*
X33086493Y4090140D01*
X33333572Y4170421D01*
X33565051Y4288366D01*
X33775229Y4441069D01*
X33958931Y4624771D01*
X34106477Y4827851D01*
X36049500Y4827851D01*
X36049500Y4572150D01*
X36075457Y4374993D01*
X36082874Y4318660D01*
X36144106Y4090140D01*
X36149050Y4071688D01*
X36149053Y4071678D01*
X36246894Y3835469D01*
X36246899Y3835458D01*
X36374734Y3614043D01*
X36374745Y3614027D01*
X36530388Y3411189D01*
X36530394Y3411182D01*
X36711181Y3230395D01*
X36711188Y3230389D01*
X36811125Y3153705D01*
X36914035Y3074739D01*
X36914042Y3074735D01*
X37135457Y2946900D01*
X37135462Y2946898D01*
X37135465Y2946896D01*
X37280024Y2887018D01*
X37370600Y2849500D01*
X37371687Y2849050D01*
X37618660Y2782874D01*
X37756048Y2764787D01*
X37819944Y2736521D01*
X37858415Y2678196D01*
X37859246Y2608332D01*
X37822174Y2549108D01*
X37764058Y2520232D01*
X37751927Y2517819D01*
X37751917Y2517816D01*
X37597139Y2453705D01*
X37457837Y2360627D01*
X37339373Y2242163D01*
X37246295Y2102861D01*
X37182184Y1948083D01*
X37182182Y1948075D01*
X37149500Y1783772D01*
X37149500Y1616229D01*
X37182182Y1451926D01*
X37182184Y1451918D01*
X37246295Y1297140D01*
X37339373Y1157838D01*
X37457837Y1039374D01*
X37550494Y977463D01*
X37597137Y946297D01*
X37751918Y882184D01*
X37916228Y849501D01*
X37916232Y849500D01*
X37916233Y849500D01*
X38083768Y849500D01*
X38083769Y849501D01*
X38248082Y882184D01*
X38402863Y946297D01*
X38542162Y1039374D01*
X38660626Y1157838D01*
X38753703Y1297137D01*
X38817816Y1451918D01*
X38850500Y1616233D01*
X38850500Y1783767D01*
X38817816Y1948082D01*
X38753703Y2102863D01*
X38674785Y2220972D01*
X38660626Y2242163D01*
X38542162Y2360627D01*
X38402860Y2453705D01*
X38248082Y2517816D01*
X38248078Y2517817D01*
X38235943Y2520231D01*
X38174032Y2552618D01*
X38139460Y2613335D01*
X38143201Y2683104D01*
X38184069Y2739775D01*
X38243949Y2764786D01*
X38381340Y2782874D01*
X38628313Y2849050D01*
X38864535Y2946896D01*
X39085965Y3074739D01*
X39288813Y3230390D01*
X39469610Y3411187D01*
X39625261Y3614035D01*
X39753104Y3835465D01*
X39850950Y4071687D01*
X39917126Y4318660D01*
X39950500Y4572157D01*
X39950500Y4827843D01*
X39950499Y4827851D01*
X41549500Y4827851D01*
X41549500Y4572150D01*
X41575457Y4374993D01*
X41582874Y4318660D01*
X41644106Y4090140D01*
X41649050Y4071688D01*
X41649053Y4071678D01*
X41746894Y3835469D01*
X41746899Y3835458D01*
X41874734Y3614043D01*
X41874745Y3614027D01*
X42030388Y3411189D01*
X42030394Y3411182D01*
X42211181Y3230395D01*
X42211188Y3230389D01*
X42311125Y3153705D01*
X42414035Y3074739D01*
X42414042Y3074735D01*
X42635457Y2946900D01*
X42635462Y2946898D01*
X42635465Y2946896D01*
X42780024Y2887018D01*
X42870600Y2849500D01*
X42871687Y2849050D01*
X43118660Y2782874D01*
X43256048Y2764787D01*
X43319944Y2736521D01*
X43358415Y2678196D01*
X43359246Y2608332D01*
X43322174Y2549108D01*
X43264058Y2520232D01*
X43251927Y2517819D01*
X43251917Y2517816D01*
X43097139Y2453705D01*
X42957837Y2360627D01*
X42839373Y2242163D01*
X42746295Y2102861D01*
X42682184Y1948083D01*
X42682182Y1948075D01*
X42649500Y1783772D01*
X42649500Y1616229D01*
X42682182Y1451926D01*
X42682184Y1451918D01*
X42746295Y1297140D01*
X42839373Y1157838D01*
X42957837Y1039374D01*
X43050494Y977463D01*
X43097137Y946297D01*
X43251918Y882184D01*
X43416228Y849501D01*
X43416232Y849500D01*
X43416233Y849500D01*
X43583768Y849500D01*
X43583769Y849501D01*
X43748082Y882184D01*
X43902863Y946297D01*
X44042162Y1039374D01*
X44160626Y1157838D01*
X44253703Y1297137D01*
X44317816Y1451918D01*
X44350500Y1616233D01*
X44350500Y1783767D01*
X44317816Y1948082D01*
X44253703Y2102863D01*
X44174785Y2220972D01*
X44160626Y2242163D01*
X44042162Y2360627D01*
X43902860Y2453705D01*
X43748082Y2517816D01*
X43748078Y2517817D01*
X43735943Y2520231D01*
X43674032Y2552618D01*
X43639460Y2613335D01*
X43643201Y2683104D01*
X43684069Y2739775D01*
X43743949Y2764786D01*
X43881340Y2782874D01*
X44128313Y2849050D01*
X44364535Y2946896D01*
X44585965Y3074739D01*
X44788813Y3230390D01*
X44969610Y3411187D01*
X45055004Y3522475D01*
X48829500Y3522475D01*
X48829500Y3377525D01*
X48861128Y3259489D01*
X48867017Y3237512D01*
X48939488Y3111989D01*
X48939490Y3111987D01*
X48939491Y3111985D01*
X49041985Y3009491D01*
X49041986Y3009490D01*
X49041988Y3009489D01*
X49167511Y2937018D01*
X49167512Y2937018D01*
X49167515Y2937016D01*
X49307525Y2899500D01*
X49307528Y2899500D01*
X49452472Y2899500D01*
X49452475Y2899500D01*
X49592485Y2937016D01*
X49718015Y3009491D01*
X49820509Y3111985D01*
X49892984Y3237515D01*
X49930500Y3377525D01*
X49930500Y3522475D01*
X49892984Y3662485D01*
X49864116Y3712485D01*
X49820511Y3788012D01*
X49820506Y3788018D01*
X49718017Y3890507D01*
X49718011Y3890512D01*
X49592488Y3962983D01*
X49592489Y3962983D01*
X49581006Y3966060D01*
X49452475Y4000500D01*
X49307525Y4000500D01*
X49178993Y3966060D01*
X49167511Y3962983D01*
X49041988Y3890512D01*
X49041982Y3890507D01*
X48939493Y3788018D01*
X48939488Y3788012D01*
X48867017Y3662489D01*
X48867016Y3662485D01*
X48829500Y3522475D01*
X45055004Y3522475D01*
X45125261Y3614035D01*
X45253104Y3835465D01*
X45350950Y4071687D01*
X45417126Y4318660D01*
X45450500Y4572157D01*
X45450500Y4827843D01*
X45417126Y5081340D01*
X45350950Y5328313D01*
X45314752Y5415702D01*
X45307284Y5485168D01*
X45338558Y5547647D01*
X45397220Y5582926D01*
X45412485Y5587016D01*
X45412488Y5587018D01*
X45412489Y5587018D01*
X45533728Y5657016D01*
X45538015Y5659491D01*
X45640509Y5761985D01*
X45712984Y5887515D01*
X45750500Y6027525D01*
X45750500Y6072475D01*
X48449500Y6072475D01*
X48449500Y5927525D01*
X48475101Y5831983D01*
X48487017Y5787512D01*
X48559488Y5661989D01*
X48559490Y5661987D01*
X48559491Y5661985D01*
X48661985Y5559491D01*
X48661986Y5559490D01*
X48661988Y5559489D01*
X48787511Y5487018D01*
X48787512Y5487018D01*
X48787515Y5487016D01*
X48927525Y5449500D01*
X48927528Y5449500D01*
X49072472Y5449500D01*
X49072475Y5449500D01*
X49212485Y5487016D01*
X49338015Y5559491D01*
X49440509Y5661985D01*
X49512984Y5787515D01*
X49550500Y5927525D01*
X49550500Y6072475D01*
X49512984Y6212485D01*
X49495670Y6242473D01*
X49440511Y6338012D01*
X49440506Y6338018D01*
X49338017Y6440507D01*
X49338011Y6440512D01*
X49212488Y6512983D01*
X49212489Y6512983D01*
X49201006Y6516060D01*
X49072475Y6550500D01*
X48927525Y6550500D01*
X48798993Y6516060D01*
X48787511Y6512983D01*
X48661988Y6440512D01*
X48661982Y6440507D01*
X48559493Y6338018D01*
X48559488Y6338012D01*
X48487017Y6212489D01*
X48487016Y6212485D01*
X48449500Y6072475D01*
X45750500Y6072475D01*
X45750500Y6172475D01*
X45712984Y6312485D01*
X45705611Y6325255D01*
X45640511Y6438012D01*
X45640506Y6438018D01*
X45538017Y6540507D01*
X45538011Y6540512D01*
X45412488Y6612983D01*
X45412489Y6612983D01*
X45397027Y6617126D01*
X45272475Y6650500D01*
X45127525Y6650500D01*
X45002973Y6617126D01*
X44987511Y6612983D01*
X44861988Y6540512D01*
X44861982Y6540507D01*
X44759493Y6438018D01*
X44759491Y6438015D01*
X44729285Y6385697D01*
X44678717Y6337482D01*
X44610110Y6324260D01*
X44559898Y6340311D01*
X44364542Y6453101D01*
X44364531Y6453106D01*
X44128322Y6550947D01*
X44128315Y6550949D01*
X44128313Y6550950D01*
X43881340Y6617126D01*
X43825007Y6624543D01*
X43627850Y6650500D01*
X43627843Y6650500D01*
X43372157Y6650500D01*
X43372149Y6650500D01*
X43146826Y6620835D01*
X43118660Y6617126D01*
X42934722Y6567840D01*
X42871687Y6550950D01*
X42871677Y6550947D01*
X42635468Y6453106D01*
X42635457Y6453101D01*
X42414042Y6325266D01*
X42414026Y6325255D01*
X42211188Y6169612D01*
X42211181Y6169606D01*
X42030394Y5988819D01*
X42030388Y5988812D01*
X41874745Y5785974D01*
X41874734Y5785958D01*
X41746899Y5564543D01*
X41746894Y5564532D01*
X41649053Y5328323D01*
X41649050Y5328313D01*
X41582874Y5081339D01*
X41549500Y4827851D01*
X39950499Y4827851D01*
X39917126Y5081340D01*
X39850950Y5328313D01*
X39753104Y5564535D01*
X39753102Y5564538D01*
X39753100Y5564543D01*
X39625265Y5785958D01*
X39625261Y5785965D01*
X39469610Y5988813D01*
X39469605Y5988819D01*
X39288818Y6169606D01*
X39288811Y6169612D01*
X39085973Y6325255D01*
X39085971Y6325257D01*
X39085965Y6325261D01*
X39085960Y6325264D01*
X39085957Y6325266D01*
X38864542Y6453101D01*
X38864531Y6453106D01*
X38628322Y6550947D01*
X38628315Y6550949D01*
X38628313Y6550950D01*
X38381340Y6617126D01*
X38325007Y6624543D01*
X38127850Y6650500D01*
X38127843Y6650500D01*
X37872157Y6650500D01*
X37872149Y6650500D01*
X37646826Y6620835D01*
X37618660Y6617126D01*
X37434722Y6567840D01*
X37371687Y6550950D01*
X37371677Y6550947D01*
X37135468Y6453106D01*
X37135457Y6453101D01*
X36914042Y6325266D01*
X36914026Y6325255D01*
X36711188Y6169612D01*
X36711181Y6169606D01*
X36530394Y5988819D01*
X36530388Y5988812D01*
X36374745Y5785974D01*
X36374734Y5785958D01*
X36246899Y5564543D01*
X36246894Y5564532D01*
X36149053Y5328323D01*
X36149050Y5328313D01*
X36082874Y5081339D01*
X36049500Y4827851D01*
X34106477Y4827851D01*
X34111634Y4834949D01*
X34229579Y5066428D01*
X34309860Y5313507D01*
X34337341Y5487018D01*
X34350500Y5570098D01*
X34350500Y5829903D01*
X34325330Y5988819D01*
X34309860Y6086493D01*
X34229579Y6333572D01*
X34229577Y6333575D01*
X34229577Y6333577D01*
X34176361Y6438018D01*
X34111634Y6565051D01*
X33958931Y6775229D01*
X33775229Y6958931D01*
X33649195Y7050500D01*
X33565054Y7111632D01*
X33565053Y7111633D01*
X33565051Y7111634D01*
X33449521Y7170500D01*
X33333576Y7229578D01*
X33086493Y7309860D01*
X32829902Y7350500D01*
X32829897Y7350500D01*
X32570103Y7350500D01*
X32570098Y7350500D01*
X32313506Y7309860D01*
X32066423Y7229578D01*
X31834945Y7111632D01*
X31624774Y6958934D01*
X31624768Y6958929D01*
X31441071Y6775232D01*
X31441066Y6775226D01*
X31288368Y6565055D01*
X31170422Y6333577D01*
X31090140Y6086494D01*
X31049500Y5829903D01*
X29378427Y5829903D01*
X29380509Y5831985D01*
X29452984Y5957515D01*
X29490500Y6097525D01*
X29490500Y6242475D01*
X29452984Y6382485D01*
X29420925Y6438012D01*
X29380511Y6508012D01*
X29380506Y6508018D01*
X29278017Y6610507D01*
X29278011Y6610512D01*
X29152488Y6682983D01*
X29152489Y6682983D01*
X29141006Y6686060D01*
X29012475Y6720500D01*
X28867525Y6720500D01*
X28738993Y6686060D01*
X28727511Y6682983D01*
X28601988Y6610512D01*
X28601982Y6610507D01*
X28499493Y6508018D01*
X28499488Y6508012D01*
X28427017Y6382489D01*
X28427016Y6382485D01*
X28389500Y6242475D01*
X24823137Y6242475D01*
X24811634Y6265051D01*
X24658931Y6475229D01*
X24475229Y6658931D01*
X24429060Y6692475D01*
X24265054Y6811632D01*
X24265053Y6811633D01*
X24265051Y6811634D01*
X24192764Y6848466D01*
X24033576Y6929578D01*
X23786493Y7009860D01*
X23529902Y7050500D01*
X23529897Y7050500D01*
X23270103Y7050500D01*
X23270098Y7050500D01*
X23013506Y7009860D01*
X22766423Y6929578D01*
X22534945Y6811632D01*
X22324774Y6658934D01*
X22324768Y6658929D01*
X22262181Y6596341D01*
X22200858Y6562856D01*
X22131166Y6567840D01*
X22075233Y6609712D01*
X22050816Y6675176D01*
X22050500Y6684022D01*
X22050500Y6692473D01*
X22050500Y6692475D01*
X22012984Y6832485D01*
X21940509Y6958015D01*
X21838015Y7060509D01*
X21838013Y7060510D01*
X21838011Y7060512D01*
X21712488Y7132983D01*
X21712489Y7132983D01*
X21701006Y7136060D01*
X21572475Y7170500D01*
X21427525Y7170500D01*
X21298993Y7136060D01*
X21287511Y7132983D01*
X21161988Y7060512D01*
X21161982Y7060507D01*
X21059493Y6958018D01*
X21059488Y6958012D01*
X20987017Y6832489D01*
X20987016Y6832485D01*
X20949500Y6692475D01*
X500500Y6692475D01*
X500500Y9232475D01*
X20949500Y9232475D01*
X20949500Y9087525D01*
X20987016Y8947515D01*
X20987017Y8947512D01*
X21059488Y8821989D01*
X21059490Y8821987D01*
X21059491Y8821985D01*
X21161985Y8719491D01*
X21161986Y8719490D01*
X21161988Y8719489D01*
X21287511Y8647018D01*
X21287512Y8647018D01*
X21287515Y8647016D01*
X21427525Y8609500D01*
X21427528Y8609500D01*
X21572472Y8609500D01*
X21572475Y8609500D01*
X21712485Y8647016D01*
X21838015Y8719491D01*
X21940509Y8821985D01*
X22012984Y8947515D01*
X22050500Y9087525D01*
X22050500Y9232475D01*
X22012984Y9372485D01*
X21959036Y9465925D01*
X21940511Y9498012D01*
X21940506Y9498018D01*
X21838017Y9600507D01*
X21838011Y9600512D01*
X21712488Y9672983D01*
X21712489Y9672983D01*
X21660117Y9687016D01*
X21572475Y9710500D01*
X21427525Y9710500D01*
X21339883Y9687016D01*
X21287511Y9672983D01*
X21161988Y9600512D01*
X21161982Y9600507D01*
X21059493Y9498018D01*
X21059488Y9498012D01*
X20987017Y9372489D01*
X20987016Y9372485D01*
X20949500Y9232475D01*
X500500Y9232475D01*
X500500Y12870286D01*
X8199500Y12870286D01*
X8199500Y12738502D01*
X8206338Y12712983D01*
X8233608Y12611207D01*
X8237253Y12604894D01*
X8299500Y12497080D01*
X8392686Y12403894D01*
X8506814Y12338002D01*
X8634108Y12303894D01*
X8634110Y12303894D01*
X8774019Y12303894D01*
X8774019Y12300794D01*
X8828540Y12292309D01*
X8880810Y12245945D01*
X8899716Y12178682D01*
X8899500Y12175649D01*
X8899500Y12030375D01*
X8896411Y12030375D01*
X8887883Y11975790D01*
X8841489Y11923546D01*
X8774215Y11904679D01*
X8771208Y11904894D01*
X8765892Y11904894D01*
X8634108Y11904894D01*
X8506812Y11870786D01*
X8392686Y11804894D01*
X8392683Y11804892D01*
X8299502Y11711711D01*
X8299500Y11711708D01*
X8233608Y11597582D01*
X8205482Y11492613D01*
X8199500Y11470286D01*
X8199500Y11338502D01*
X8210111Y11298901D01*
X8233608Y11211207D01*
X8237253Y11204894D01*
X8299500Y11097080D01*
X8392686Y11003894D01*
X8506814Y10938002D01*
X8634108Y10903894D01*
X8634110Y10903894D01*
X8774019Y10903894D01*
X8774019Y10900794D01*
X8828540Y10892309D01*
X8880810Y10845945D01*
X8899716Y10778682D01*
X8899500Y10775649D01*
X8899500Y10638503D01*
X8933608Y10511207D01*
X8947574Y10487018D01*
X8999500Y10397080D01*
X9092686Y10303894D01*
X9206814Y10238002D01*
X9334108Y10203894D01*
X9334110Y10203894D01*
X9465890Y10203894D01*
X9465892Y10203894D01*
X9593186Y10238002D01*
X9707314Y10303894D01*
X9800500Y10397080D01*
X9866392Y10511208D01*
X9900500Y10638502D01*
X9900500Y10770286D01*
X9900500Y10778413D01*
X9903599Y10778413D01*
X9912089Y10832943D01*
X9958457Y10885210D01*
X10025722Y10904111D01*
X10028754Y10903894D01*
X10174019Y10903894D01*
X10174019Y10900794D01*
X10228540Y10892309D01*
X10280810Y10845945D01*
X10299716Y10778682D01*
X10299500Y10775649D01*
X10299500Y10638503D01*
X10333608Y10511207D01*
X10347574Y10487018D01*
X10399500Y10397080D01*
X10492686Y10303894D01*
X10606814Y10238002D01*
X10734108Y10203894D01*
X10734110Y10203894D01*
X10865890Y10203894D01*
X10865892Y10203894D01*
X10993186Y10238002D01*
X11107314Y10303894D01*
X11200500Y10397080D01*
X11266392Y10511208D01*
X11300500Y10638502D01*
X11300500Y10770286D01*
X11300500Y10778413D01*
X11303599Y10778413D01*
X11312089Y10832943D01*
X11358457Y10885210D01*
X11425722Y10904111D01*
X11428754Y10903894D01*
X11434108Y10903894D01*
X11565890Y10903894D01*
X11565892Y10903894D01*
X11693186Y10938002D01*
X11807314Y11003894D01*
X11875895Y11072475D01*
X21749500Y11072475D01*
X21749500Y10927525D01*
X21780008Y10813669D01*
X21787017Y10787512D01*
X21859488Y10661989D01*
X21859490Y10661987D01*
X21859491Y10661985D01*
X21961985Y10559491D01*
X21961986Y10559490D01*
X21961988Y10559489D01*
X22087511Y10487018D01*
X22087512Y10487018D01*
X22087515Y10487016D01*
X22227525Y10449500D01*
X22227528Y10449500D01*
X22372472Y10449500D01*
X22372475Y10449500D01*
X22512485Y10487016D01*
X22638015Y10559491D01*
X22740509Y10661985D01*
X22812984Y10787515D01*
X22850500Y10927525D01*
X22850500Y11072475D01*
X22812984Y11212485D01*
X22780925Y11268012D01*
X22740511Y11338012D01*
X22740506Y11338018D01*
X22638017Y11440507D01*
X22638011Y11440512D01*
X22512488Y11512983D01*
X22512489Y11512983D01*
X22473810Y11523347D01*
X22372475Y11550500D01*
X22227525Y11550500D01*
X22126190Y11523347D01*
X22087511Y11512983D01*
X21961988Y11440512D01*
X21961982Y11440507D01*
X21859493Y11338018D01*
X21859488Y11338012D01*
X21787017Y11212489D01*
X21784982Y11204894D01*
X21749500Y11072475D01*
X11875895Y11072475D01*
X11900500Y11097080D01*
X11966392Y11211208D01*
X12000500Y11338502D01*
X12000500Y11470286D01*
X11966392Y11597580D01*
X11900500Y11711708D01*
X11807314Y11804894D01*
X11750250Y11837840D01*
X11693187Y11870786D01*
X11580040Y11901103D01*
X11565892Y11904894D01*
X11434108Y11904894D01*
X11425981Y11904894D01*
X11425981Y11907982D01*
X11371386Y11916515D01*
X11319146Y11962913D01*
X11300284Y12030188D01*
X11300500Y12033193D01*
X11300500Y12178413D01*
X11303599Y12178413D01*
X11312089Y12232943D01*
X11358457Y12285210D01*
X11425722Y12304111D01*
X11428754Y12303894D01*
X11434108Y12303894D01*
X11565890Y12303894D01*
X11565892Y12303894D01*
X11693186Y12338002D01*
X11807314Y12403894D01*
X11900500Y12497080D01*
X11966392Y12611208D01*
X12000500Y12738502D01*
X12000500Y12870286D01*
X11966392Y12997580D01*
X11940472Y13042475D01*
X20949500Y13042475D01*
X20949500Y12897525D01*
X20983008Y12772473D01*
X20987017Y12757512D01*
X21059488Y12631989D01*
X21059490Y12631987D01*
X21059491Y12631985D01*
X21161985Y12529491D01*
X21161986Y12529490D01*
X21161988Y12529489D01*
X21287511Y12457018D01*
X21287512Y12457018D01*
X21287515Y12457016D01*
X21427525Y12419500D01*
X21427528Y12419500D01*
X21572472Y12419500D01*
X21572475Y12419500D01*
X21712485Y12457016D01*
X21838015Y12529491D01*
X21940509Y12631985D01*
X22012984Y12757515D01*
X22016993Y12772475D01*
X22449500Y12772475D01*
X22449500Y12627525D01*
X22479499Y12515569D01*
X22487017Y12487512D01*
X22559488Y12361989D01*
X22559490Y12361987D01*
X22559491Y12361985D01*
X22661985Y12259491D01*
X22661986Y12259490D01*
X22661988Y12259489D01*
X22787510Y12187018D01*
X22787512Y12187018D01*
X22787515Y12187016D01*
X22813941Y12179935D01*
X22873600Y12143570D01*
X22890496Y12119919D01*
X25202363Y7916527D01*
X25217422Y7848300D01*
X25213487Y7824677D01*
X25199500Y7772477D01*
X25199500Y7772475D01*
X25199500Y7627525D01*
X25231614Y7507675D01*
X25237017Y7487512D01*
X25309488Y7361989D01*
X25309490Y7361987D01*
X25309491Y7361985D01*
X25411985Y7259491D01*
X25411986Y7259490D01*
X25411988Y7259489D01*
X25537511Y7187018D01*
X25537512Y7187018D01*
X25537515Y7187016D01*
X25677525Y7149500D01*
X25677528Y7149500D01*
X25822472Y7149500D01*
X25822475Y7149500D01*
X25962485Y7187016D01*
X26088015Y7259491D01*
X26190509Y7361985D01*
X26255481Y7474521D01*
X26306045Y7522733D01*
X26315547Y7527134D01*
X32054115Y9894795D01*
X36850000Y9894795D01*
X36850000Y9200000D01*
X37538120Y9200000D01*
X37534075Y9192993D01*
X37500000Y9065826D01*
X37500000Y8934174D01*
X37534075Y8807007D01*
X37538120Y8800000D01*
X36850001Y8800000D01*
X36850001Y8105215D01*
X36850002Y8105192D01*
X36852908Y8080131D01*
X36852909Y8080127D01*
X36898211Y7977526D01*
X36898214Y7977521D01*
X36977520Y7898215D01*
X36977525Y7898212D01*
X37080123Y7852911D01*
X37105206Y7850001D01*
X37799999Y7850001D01*
X37800000Y7850002D01*
X37800000Y8538121D01*
X37807007Y8534075D01*
X37934174Y8500000D01*
X38065826Y8500000D01*
X38192993Y8534075D01*
X38200000Y8538121D01*
X38200000Y7850001D01*
X38894786Y7850001D01*
X38894808Y7850003D01*
X38919869Y7852909D01*
X38919873Y7852910D01*
X39022474Y7898212D01*
X39022479Y7898215D01*
X39101785Y7977521D01*
X39101788Y7977526D01*
X39147089Y8080123D01*
X39147089Y8080125D01*
X39149999Y8105206D01*
X39150000Y8105209D01*
X39150000Y8800000D01*
X38461880Y8800000D01*
X38465925Y8807007D01*
X38500000Y8934174D01*
X38500000Y9065826D01*
X38465925Y9192993D01*
X38461880Y9200000D01*
X39149999Y9200000D01*
X39149999Y9894786D01*
X39149997Y9894809D01*
X39147091Y9919870D01*
X39147090Y9919874D01*
X39101788Y10022475D01*
X39101785Y10022480D01*
X39022479Y10101786D01*
X39022474Y10101789D01*
X38919876Y10147090D01*
X38894794Y10150000D01*
X38200000Y10150000D01*
X38200000Y9461880D01*
X38192993Y9465925D01*
X38065826Y9500000D01*
X37934174Y9500000D01*
X37807007Y9465925D01*
X37800000Y9461880D01*
X37800000Y10150000D01*
X37105214Y10150000D01*
X37105191Y10149998D01*
X37080130Y10147092D01*
X37080126Y10147091D01*
X36977525Y10101789D01*
X36977520Y10101786D01*
X36898214Y10022480D01*
X36898211Y10022475D01*
X36852910Y9919878D01*
X36852910Y9919876D01*
X36850000Y9894795D01*
X32054115Y9894795D01*
X32620613Y10128525D01*
X32690090Y10135896D01*
X32699978Y10133677D01*
X32827525Y10099500D01*
X32827528Y10099500D01*
X32972472Y10099500D01*
X32972475Y10099500D01*
X33112485Y10137016D01*
X33238015Y10209491D01*
X33300999Y10272475D01*
X41649500Y10272475D01*
X41649500Y10127525D01*
X41680187Y10013002D01*
X41687017Y9987512D01*
X41759488Y9861989D01*
X41759490Y9861987D01*
X41759491Y9861985D01*
X41861985Y9759491D01*
X41861986Y9759490D01*
X41861988Y9759489D01*
X41987511Y9687018D01*
X41987512Y9687018D01*
X41987515Y9687016D01*
X42127525Y9649500D01*
X42127528Y9649500D01*
X42272472Y9649500D01*
X42272475Y9649500D01*
X42412485Y9687016D01*
X42538015Y9759491D01*
X42640509Y9861985D01*
X42712984Y9987515D01*
X42750500Y10127525D01*
X42750500Y10272475D01*
X42712984Y10412485D01*
X42691613Y10449500D01*
X42640511Y10538012D01*
X42640506Y10538018D01*
X42538017Y10640507D01*
X42538011Y10640512D01*
X42412488Y10712983D01*
X42412489Y10712983D01*
X42395575Y10717515D01*
X42272475Y10750500D01*
X42127525Y10750500D01*
X42004425Y10717515D01*
X41987511Y10712983D01*
X41861988Y10640512D01*
X41861982Y10640507D01*
X41759493Y10538018D01*
X41759488Y10538012D01*
X41687017Y10412489D01*
X41687016Y10412485D01*
X41649500Y10272475D01*
X33300999Y10272475D01*
X33340509Y10311985D01*
X33412984Y10437515D01*
X33450500Y10577525D01*
X33450500Y10722475D01*
X33412984Y10862485D01*
X33340509Y10988015D01*
X33326049Y11002475D01*
X40449500Y11002475D01*
X40449500Y10857525D01*
X40487016Y10717515D01*
X40487017Y10717512D01*
X40559488Y10591989D01*
X40559490Y10591987D01*
X40559491Y10591985D01*
X40661985Y10489491D01*
X40661986Y10489490D01*
X40661988Y10489489D01*
X40787511Y10417018D01*
X40787512Y10417018D01*
X40787515Y10417016D01*
X40927525Y10379500D01*
X40927528Y10379500D01*
X41072472Y10379500D01*
X41072475Y10379500D01*
X41212485Y10417016D01*
X41338015Y10489491D01*
X41440509Y10591985D01*
X41512984Y10717515D01*
X41550500Y10857525D01*
X41550500Y11002475D01*
X41512984Y11142485D01*
X41512916Y11142602D01*
X41440511Y11268012D01*
X41440506Y11268018D01*
X41338017Y11370507D01*
X41338011Y11370512D01*
X41212488Y11442983D01*
X41212489Y11442983D01*
X41201006Y11446060D01*
X41072475Y11480500D01*
X40927525Y11480500D01*
X40798993Y11446060D01*
X40787511Y11442983D01*
X40661988Y11370512D01*
X40661982Y11370507D01*
X40559493Y11268018D01*
X40559488Y11268012D01*
X40487017Y11142489D01*
X40487016Y11142485D01*
X40449500Y11002475D01*
X33326049Y11002475D01*
X33238015Y11090509D01*
X33238013Y11090510D01*
X33238011Y11090512D01*
X33112488Y11162983D01*
X33112489Y11162983D01*
X33101006Y11166060D01*
X32972475Y11200500D01*
X32827525Y11200500D01*
X32698993Y11166060D01*
X32687511Y11162983D01*
X32561988Y11090512D01*
X32561982Y11090507D01*
X32459493Y10988018D01*
X32459491Y10988015D01*
X32394521Y10875485D01*
X32343953Y10827270D01*
X32334428Y10822859D01*
X26029387Y8221478D01*
X25959907Y8214106D01*
X25949999Y8216330D01*
X25936060Y8220065D01*
X25876400Y8256430D01*
X25859503Y8280082D01*
X25287084Y9320844D01*
X25258687Y9372475D01*
X25749500Y9372475D01*
X25749500Y9227525D01*
X25787016Y9087515D01*
X25787017Y9087512D01*
X25859488Y8961989D01*
X25859490Y8961987D01*
X25859491Y8961985D01*
X25961985Y8859491D01*
X25961986Y8859490D01*
X25961988Y8859489D01*
X26087511Y8787018D01*
X26087512Y8787018D01*
X26087515Y8787016D01*
X26227525Y8749500D01*
X26227528Y8749500D01*
X26372472Y8749500D01*
X26372475Y8749500D01*
X26512485Y8787016D01*
X26638015Y8859491D01*
X26740509Y8961985D01*
X26812984Y9087515D01*
X26850500Y9227525D01*
X26850500Y9372475D01*
X26812984Y9512485D01*
X26762164Y9600507D01*
X26740511Y9638012D01*
X26740506Y9638018D01*
X26638017Y9740507D01*
X26638011Y9740512D01*
X26512488Y9812983D01*
X26512489Y9812983D01*
X26501006Y9816060D01*
X26372475Y9850500D01*
X26227525Y9850500D01*
X26098993Y9816060D01*
X26087511Y9812983D01*
X25961988Y9740512D01*
X25961982Y9740507D01*
X25859493Y9638018D01*
X25859488Y9638012D01*
X25787017Y9512489D01*
X25787016Y9512485D01*
X25749500Y9372475D01*
X25258687Y9372475D01*
X23547636Y12483474D01*
X23532577Y12551701D01*
X23536513Y12575327D01*
X23546127Y12611207D01*
X23549147Y12622475D01*
X44699500Y12622475D01*
X44699500Y12477525D01*
X44730460Y12361983D01*
X44737017Y12337512D01*
X44809488Y12211989D01*
X44809490Y12211987D01*
X44809491Y12211985D01*
X44911985Y12109491D01*
X44911986Y12109490D01*
X44911988Y12109489D01*
X45037511Y12037018D01*
X45037512Y12037018D01*
X45037515Y12037016D01*
X45177525Y11999500D01*
X45177528Y11999500D01*
X45322472Y11999500D01*
X45322475Y11999500D01*
X45462485Y12037016D01*
X45588015Y12109491D01*
X45690509Y12211985D01*
X45725433Y12272475D01*
X48949500Y12272475D01*
X48949500Y12127525D01*
X48975532Y12030375D01*
X48987017Y11987512D01*
X49059488Y11861989D01*
X49059490Y11861987D01*
X49059491Y11861985D01*
X49161985Y11759491D01*
X49232000Y11719068D01*
X49252231Y11707387D01*
X49300446Y11656819D01*
X49313668Y11588212D01*
X49287700Y11523347D01*
X49252231Y11492613D01*
X49161985Y11440509D01*
X49161982Y11440507D01*
X49059493Y11338018D01*
X49059488Y11338012D01*
X48987017Y11212489D01*
X48984982Y11204894D01*
X48949500Y11072475D01*
X48949500Y10927525D01*
X48980008Y10813669D01*
X48987017Y10787512D01*
X49059488Y10661989D01*
X49059490Y10661987D01*
X49059491Y10661985D01*
X49161985Y10559491D01*
X49161986Y10559490D01*
X49161988Y10559489D01*
X49287511Y10487018D01*
X49287512Y10487018D01*
X49287515Y10487016D01*
X49427525Y10449500D01*
X49427528Y10449500D01*
X49572472Y10449500D01*
X49572475Y10449500D01*
X49712485Y10487016D01*
X49838015Y10559491D01*
X49940509Y10661985D01*
X49942612Y10665629D01*
X49945190Y10668087D01*
X49945457Y10668434D01*
X49945511Y10668393D01*
X49993177Y10713844D01*
X50061783Y10727069D01*
X50126649Y10701103D01*
X50157386Y10665630D01*
X50159491Y10661985D01*
X50261985Y10559491D01*
X50261986Y10559490D01*
X50261988Y10559489D01*
X50387511Y10487018D01*
X50387512Y10487018D01*
X50387515Y10487016D01*
X50527525Y10449500D01*
X50527528Y10449500D01*
X50672472Y10449500D01*
X50672475Y10449500D01*
X50812485Y10487016D01*
X50938015Y10559491D01*
X51040509Y10661985D01*
X51112984Y10787515D01*
X51130226Y10851863D01*
X51166590Y10911521D01*
X51229437Y10942050D01*
X51298813Y10933755D01*
X51352691Y10889270D01*
X51369773Y10851865D01*
X51380008Y10813669D01*
X51387017Y10787512D01*
X51459488Y10661989D01*
X51459490Y10661987D01*
X51459491Y10661985D01*
X51561985Y10559491D01*
X51561986Y10559490D01*
X51561988Y10559489D01*
X51687511Y10487018D01*
X51687512Y10487018D01*
X51687515Y10487016D01*
X51827525Y10449500D01*
X51827528Y10449500D01*
X51972472Y10449500D01*
X51972475Y10449500D01*
X52112485Y10487016D01*
X52238015Y10559491D01*
X52340509Y10661985D01*
X52383194Y10735918D01*
X52392613Y10752231D01*
X52443180Y10800447D01*
X52511787Y10813669D01*
X52576652Y10787701D01*
X52607387Y10752231D01*
X52624567Y10722475D01*
X52659491Y10661985D01*
X52761985Y10559491D01*
X52761986Y10559490D01*
X52761988Y10559489D01*
X52887511Y10487018D01*
X52887512Y10487018D01*
X52887515Y10487016D01*
X53027525Y10449500D01*
X53027528Y10449500D01*
X53172472Y10449500D01*
X53172475Y10449500D01*
X53312485Y10487016D01*
X53438015Y10559491D01*
X53540509Y10661985D01*
X53612984Y10787515D01*
X53650500Y10927525D01*
X53650500Y11072475D01*
X53612984Y11212485D01*
X53580925Y11268012D01*
X53540511Y11338012D01*
X53540506Y11338018D01*
X53438017Y11440507D01*
X53438015Y11440509D01*
X53368749Y11480500D01*
X53347769Y11492613D01*
X53299553Y11543180D01*
X53286331Y11611787D01*
X53312299Y11676652D01*
X53347769Y11707387D01*
X53364082Y11716806D01*
X53438015Y11759491D01*
X53540509Y11861985D01*
X53612984Y11987515D01*
X53650500Y12127525D01*
X53650500Y12272475D01*
X53612984Y12412485D01*
X53578084Y12472933D01*
X53540511Y12538012D01*
X53540506Y12538018D01*
X53438017Y12640507D01*
X53438011Y12640512D01*
X53312488Y12712983D01*
X53312489Y12712983D01*
X53301006Y12716060D01*
X53172475Y12750500D01*
X53027525Y12750500D01*
X52898993Y12716060D01*
X52887511Y12712983D01*
X52761988Y12640512D01*
X52761982Y12640507D01*
X52659493Y12538018D01*
X52659491Y12538015D01*
X52607387Y12447769D01*
X52556819Y12399554D01*
X52488212Y12386332D01*
X52423347Y12412300D01*
X52392613Y12447769D01*
X52364144Y12497078D01*
X52340509Y12538015D01*
X52238015Y12640509D01*
X52238013Y12640510D01*
X52238011Y12640512D01*
X52112488Y12712983D01*
X52112489Y12712983D01*
X52101006Y12716060D01*
X51972475Y12750500D01*
X51827525Y12750500D01*
X51698993Y12716060D01*
X51687511Y12712983D01*
X51561988Y12640512D01*
X51561982Y12640507D01*
X51459493Y12538018D01*
X51459488Y12538012D01*
X51387017Y12412489D01*
X51387016Y12412485D01*
X51373485Y12361985D01*
X51369775Y12348140D01*
X51333409Y12288480D01*
X51270562Y12257951D01*
X51201187Y12266246D01*
X51147309Y12310732D01*
X51130225Y12348140D01*
X51126516Y12361983D01*
X51112984Y12412485D01*
X51078084Y12472933D01*
X51040511Y12538012D01*
X51040506Y12538018D01*
X50938017Y12640507D01*
X50938011Y12640512D01*
X50812488Y12712983D01*
X50812489Y12712983D01*
X50801006Y12716060D01*
X50672475Y12750500D01*
X50527525Y12750500D01*
X50398993Y12716060D01*
X50387511Y12712983D01*
X50261988Y12640512D01*
X50261982Y12640507D01*
X50159493Y12538018D01*
X50159486Y12538009D01*
X50157386Y12534370D01*
X50154809Y12531914D01*
X50154543Y12531566D01*
X50154488Y12531608D01*
X50106819Y12486155D01*
X50038212Y12472933D01*
X49973347Y12498901D01*
X49942614Y12534370D01*
X49940513Y12538009D01*
X49940510Y12538012D01*
X49940509Y12538015D01*
X49838015Y12640509D01*
X49838013Y12640510D01*
X49838011Y12640512D01*
X49712488Y12712983D01*
X49712489Y12712983D01*
X49701006Y12716060D01*
X49572475Y12750500D01*
X49427525Y12750500D01*
X49298993Y12716060D01*
X49287511Y12712983D01*
X49161988Y12640512D01*
X49161982Y12640507D01*
X49059493Y12538018D01*
X49059488Y12538012D01*
X48987017Y12412489D01*
X48987016Y12412485D01*
X48949500Y12272475D01*
X45725433Y12272475D01*
X45762984Y12337515D01*
X45800500Y12477525D01*
X45800500Y12622475D01*
X45762984Y12762485D01*
X45757217Y12772473D01*
X45690511Y12888012D01*
X45690506Y12888018D01*
X45588017Y12990507D01*
X45588011Y12990512D01*
X45462488Y13062983D01*
X45462489Y13062983D01*
X45451006Y13066060D01*
X45322475Y13100500D01*
X45177525Y13100500D01*
X45048993Y13066060D01*
X45037511Y13062983D01*
X44911988Y12990512D01*
X44911982Y12990507D01*
X44809493Y12888018D01*
X44809488Y12888012D01*
X44737017Y12762489D01*
X44737016Y12762485D01*
X44699500Y12622475D01*
X23549147Y12622475D01*
X23550500Y12627525D01*
X23550500Y12772475D01*
X23512984Y12912485D01*
X23463854Y12997580D01*
X23440511Y13038012D01*
X23440506Y13038018D01*
X23338017Y13140507D01*
X23338011Y13140512D01*
X23212488Y13212983D01*
X23212489Y13212983D01*
X23201006Y13216060D01*
X23072475Y13250500D01*
X22927525Y13250500D01*
X22798993Y13216060D01*
X22787511Y13212983D01*
X22661988Y13140512D01*
X22661982Y13140507D01*
X22559493Y13038018D01*
X22559488Y13038012D01*
X22487017Y12912489D01*
X22487016Y12912485D01*
X22449500Y12772475D01*
X22016993Y12772475D01*
X22050500Y12897525D01*
X22050500Y13042475D01*
X22012984Y13182485D01*
X22000047Y13204892D01*
X21940511Y13308012D01*
X21940506Y13308018D01*
X21838017Y13410507D01*
X21838011Y13410512D01*
X21712488Y13482983D01*
X21712489Y13482983D01*
X21701006Y13486060D01*
X21572475Y13520500D01*
X21427525Y13520500D01*
X21298993Y13486060D01*
X21287511Y13482983D01*
X21161988Y13410512D01*
X21161982Y13410507D01*
X21059493Y13308018D01*
X21059488Y13308012D01*
X20987017Y13182489D01*
X20987016Y13182485D01*
X20949500Y13042475D01*
X11940472Y13042475D01*
X11900500Y13111708D01*
X11807314Y13204894D01*
X11750250Y13237840D01*
X11693187Y13270786D01*
X11629539Y13287840D01*
X11565892Y13304894D01*
X11434108Y13304894D01*
X11425981Y13304894D01*
X11425981Y13307982D01*
X11371386Y13316515D01*
X11319146Y13362913D01*
X11300284Y13430188D01*
X11300500Y13433193D01*
X11300500Y13570284D01*
X11300500Y13570286D01*
X11266392Y13697580D01*
X11200500Y13811708D01*
X11107314Y13904894D01*
X11034357Y13947016D01*
X10993187Y13970786D01*
X10929539Y13987840D01*
X10865892Y14004894D01*
X10734108Y14004894D01*
X10606812Y13970786D01*
X10492686Y13904894D01*
X10492683Y13904892D01*
X10399502Y13811711D01*
X10399500Y13811708D01*
X10333608Y13697582D01*
X10299500Y13570286D01*
X10299500Y13430375D01*
X10296411Y13430375D01*
X10287883Y13375790D01*
X10241489Y13323546D01*
X10174215Y13304679D01*
X10171208Y13304894D01*
X10165892Y13304894D01*
X10034108Y13304894D01*
X10025981Y13304894D01*
X10025981Y13307982D01*
X9971386Y13316515D01*
X9919146Y13362913D01*
X9900284Y13430188D01*
X9900500Y13433193D01*
X9900500Y13570284D01*
X9900500Y13570286D01*
X9866392Y13697580D01*
X9800500Y13811708D01*
X9707314Y13904894D01*
X9634357Y13947016D01*
X9593187Y13970786D01*
X9529539Y13987840D01*
X9465892Y14004894D01*
X9334108Y14004894D01*
X9206812Y13970786D01*
X9092686Y13904894D01*
X9092683Y13904892D01*
X8999502Y13811711D01*
X8999500Y13811708D01*
X8933608Y13697582D01*
X8899500Y13570286D01*
X8899500Y13430375D01*
X8896411Y13430375D01*
X8887883Y13375790D01*
X8841489Y13323546D01*
X8774215Y13304679D01*
X8771208Y13304894D01*
X8765892Y13304894D01*
X8634108Y13304894D01*
X8506812Y13270786D01*
X8392686Y13204894D01*
X8392683Y13204892D01*
X8299502Y13111711D01*
X8299500Y13111708D01*
X8233608Y12997582D01*
X8204251Y12888018D01*
X8199500Y12870286D01*
X500500Y12870286D01*
X500500Y14772475D01*
X20949500Y14772475D01*
X20949500Y14627525D01*
X20987016Y14487515D01*
X20987017Y14487512D01*
X21059488Y14361989D01*
X21059490Y14361987D01*
X21059491Y14361985D01*
X21161985Y14259491D01*
X21161986Y14259490D01*
X21161988Y14259489D01*
X21287511Y14187018D01*
X21287512Y14187018D01*
X21287515Y14187016D01*
X21427525Y14149500D01*
X21427528Y14149500D01*
X21572472Y14149500D01*
X21572475Y14149500D01*
X21712485Y14187016D01*
X21712487Y14187018D01*
X21712489Y14187018D01*
X21719999Y14190128D01*
X21721125Y14187408D01*
X21775269Y14200563D01*
X21841304Y14177734D01*
X21857094Y14164382D01*
X21859491Y14161985D01*
X21961985Y14059491D01*
X21961986Y14059490D01*
X21961988Y14059489D01*
X22087511Y13987018D01*
X22087512Y13987018D01*
X22087515Y13987016D01*
X22227525Y13949500D01*
X22227528Y13949500D01*
X22372472Y13949500D01*
X22372475Y13949500D01*
X22512485Y13987016D01*
X22638015Y14059491D01*
X22740509Y14161985D01*
X22812984Y14287515D01*
X22850500Y14427525D01*
X22850500Y14572475D01*
X22812984Y14712485D01*
X22763601Y14798018D01*
X22740511Y14838012D01*
X22740506Y14838018D01*
X22638017Y14940507D01*
X22638015Y14940509D01*
X22581767Y14972984D01*
X22529406Y15003215D01*
X22529405Y15003215D01*
X22512485Y15012984D01*
X22372475Y15050500D01*
X22227525Y15050500D01*
X22143519Y15027991D01*
X22087513Y15012984D01*
X22080005Y15009873D01*
X22078884Y15012579D01*
X22024628Y14999443D01*
X21958612Y15022326D01*
X21942905Y15035619D01*
X21876049Y15102475D01*
X43979500Y15102475D01*
X43979500Y14957525D01*
X44011522Y14838018D01*
X44017017Y14817512D01*
X44089488Y14691989D01*
X44089490Y14691987D01*
X44089491Y14691985D01*
X44191985Y14589491D01*
X44191986Y14589490D01*
X44191988Y14589489D01*
X44317511Y14517018D01*
X44317512Y14517018D01*
X44317515Y14517016D01*
X44457525Y14479500D01*
X44457528Y14479500D01*
X44602472Y14479500D01*
X44602475Y14479500D01*
X44654174Y14493353D01*
X44724022Y14491690D01*
X44781885Y14452528D01*
X44806829Y14395224D01*
X44807397Y14395376D01*
X44808411Y14391590D01*
X44809204Y14389769D01*
X44809498Y14387534D01*
X44809500Y14387528D01*
X44809500Y14387525D01*
X44816344Y14361985D01*
X44847017Y14247512D01*
X44919488Y14121989D01*
X44919490Y14121987D01*
X44919491Y14121985D01*
X45021985Y14019491D01*
X45021986Y14019490D01*
X45021988Y14019489D01*
X45147511Y13947018D01*
X45147512Y13947018D01*
X45147515Y13947016D01*
X45287525Y13909500D01*
X45287528Y13909500D01*
X45432472Y13909500D01*
X45432475Y13909500D01*
X45572485Y13947016D01*
X45698015Y14019491D01*
X45800509Y14121985D01*
X45872984Y14247515D01*
X45910500Y14387525D01*
X45910500Y14532475D01*
X45872984Y14672485D01*
X45861723Y14691989D01*
X45800511Y14798012D01*
X45800506Y14798018D01*
X45698017Y14900507D01*
X45698011Y14900512D01*
X45572488Y14972983D01*
X45572489Y14972983D01*
X45561006Y14976060D01*
X45432475Y15010500D01*
X45287525Y15010500D01*
X45235825Y14996648D01*
X45165976Y14998310D01*
X45108114Y15037473D01*
X45083172Y15094777D01*
X45082603Y15094624D01*
X45081584Y15098424D01*
X45080793Y15100243D01*
X45080500Y15102469D01*
X45080500Y15102475D01*
X45042984Y15242485D01*
X45038612Y15250057D01*
X44970511Y15368012D01*
X44970506Y15368018D01*
X44868017Y15470507D01*
X44868011Y15470512D01*
X44742488Y15542983D01*
X44742489Y15542983D01*
X44731006Y15546060D01*
X44602475Y15580500D01*
X44457525Y15580500D01*
X44328993Y15546060D01*
X44317511Y15542983D01*
X44191988Y15470512D01*
X44191982Y15470507D01*
X44089493Y15368018D01*
X44089488Y15368012D01*
X44017017Y15242489D01*
X44017016Y15242485D01*
X43979500Y15102475D01*
X21876049Y15102475D01*
X21838017Y15140507D01*
X21838011Y15140512D01*
X21712488Y15212983D01*
X21712489Y15212983D01*
X21701006Y15216060D01*
X21572475Y15250500D01*
X21427525Y15250500D01*
X21298993Y15216060D01*
X21287511Y15212983D01*
X21161988Y15140512D01*
X21161982Y15140507D01*
X21059493Y15038018D01*
X21059488Y15038012D01*
X20987017Y14912489D01*
X20987016Y14912485D01*
X20949500Y14772475D01*
X500500Y14772475D01*
X500500Y15722476D01*
X47999500Y15722476D01*
X47999500Y15577526D01*
X48028176Y15470507D01*
X48037017Y15437513D01*
X48109488Y15311990D01*
X48109490Y15311988D01*
X48109491Y15311986D01*
X48211985Y15209492D01*
X48211986Y15209491D01*
X48211988Y15209490D01*
X48337511Y15137019D01*
X48337512Y15137019D01*
X48337515Y15137017D01*
X48477525Y15099501D01*
X48477528Y15099501D01*
X48622472Y15099501D01*
X48622475Y15099501D01*
X48762485Y15137017D01*
X48888015Y15209492D01*
X48990509Y15311986D01*
X49062984Y15437516D01*
X49100500Y15577526D01*
X49100500Y15722476D01*
X49062984Y15862486D01*
X49062982Y15862490D01*
X49019039Y15938602D01*
X49019038Y15938604D01*
X48990512Y15988010D01*
X48990509Y15988016D01*
X48986050Y15992475D01*
X52799500Y15992475D01*
X52799500Y15847525D01*
X52833007Y15722476D01*
X52837017Y15707512D01*
X52909488Y15581989D01*
X52909490Y15581987D01*
X52909491Y15581985D01*
X53011985Y15479491D01*
X53115998Y15419439D01*
X53164212Y15368873D01*
X53177436Y15300266D01*
X53161387Y15250057D01*
X53157017Y15242488D01*
X53157016Y15242486D01*
X53157016Y15242485D01*
X53119500Y15102475D01*
X53119500Y14957525D01*
X53151522Y14838018D01*
X53157017Y14817512D01*
X53229488Y14691989D01*
X53229490Y14691987D01*
X53229491Y14691985D01*
X53331985Y14589491D01*
X53331986Y14589490D01*
X53331988Y14589489D01*
X53457511Y14517018D01*
X53457512Y14517018D01*
X53457515Y14517016D01*
X53597525Y14479500D01*
X53597528Y14479500D01*
X53742472Y14479500D01*
X53742475Y14479500D01*
X53882485Y14517016D01*
X54008015Y14589491D01*
X54110509Y14691985D01*
X54182984Y14817515D01*
X54220500Y14957525D01*
X54220500Y15102475D01*
X54182984Y15242485D01*
X54178612Y15250057D01*
X54110511Y15368012D01*
X54110506Y15368018D01*
X54008017Y15470507D01*
X54008015Y15470509D01*
X53940048Y15509750D01*
X53904001Y15530562D01*
X53855786Y15581130D01*
X53842564Y15649737D01*
X53858617Y15699952D01*
X53862984Y15707515D01*
X53900500Y15847525D01*
X53900500Y15992475D01*
X53862984Y16132485D01*
X53845375Y16162984D01*
X53790511Y16258012D01*
X53790506Y16258018D01*
X53688017Y16360507D01*
X53688011Y16360512D01*
X53562488Y16432983D01*
X53562489Y16432983D01*
X53551006Y16436060D01*
X53422475Y16470500D01*
X53277525Y16470500D01*
X53148993Y16436060D01*
X53137511Y16432983D01*
X53011988Y16360512D01*
X53011982Y16360507D01*
X52909493Y16258018D01*
X52909488Y16258012D01*
X52837017Y16132489D01*
X52837016Y16132485D01*
X52799500Y15992475D01*
X48986050Y15992475D01*
X48888015Y16090510D01*
X48888013Y16090511D01*
X48888011Y16090513D01*
X48762488Y16162984D01*
X48762489Y16162984D01*
X48751006Y16166061D01*
X48622475Y16200501D01*
X48477525Y16200501D01*
X48348993Y16166061D01*
X48337511Y16162984D01*
X48211988Y16090513D01*
X48211982Y16090508D01*
X48109493Y15988019D01*
X48109488Y15988013D01*
X48037017Y15862490D01*
X48037016Y15862486D01*
X47999500Y15722476D01*
X500500Y15722476D01*
X500500Y17372475D01*
X21849500Y17372475D01*
X21849500Y17227525D01*
X21887016Y17087515D01*
X21887017Y17087512D01*
X21959488Y16961989D01*
X21959490Y16961987D01*
X21959491Y16961985D01*
X22061985Y16859491D01*
X22061986Y16859490D01*
X22061988Y16859489D01*
X22187511Y16787018D01*
X22187512Y16787018D01*
X22187515Y16787016D01*
X22327525Y16749500D01*
X22327528Y16749500D01*
X22472472Y16749500D01*
X22472475Y16749500D01*
X22612485Y16787016D01*
X22738015Y16859491D01*
X22840509Y16961985D01*
X22912984Y17087515D01*
X22950500Y17227525D01*
X22950500Y17372475D01*
X22912984Y17512485D01*
X22840509Y17638015D01*
X22738015Y17740509D01*
X22738013Y17740510D01*
X22738011Y17740512D01*
X22612488Y17812983D01*
X22612489Y17812983D01*
X22601006Y17816060D01*
X22472475Y17850500D01*
X22327525Y17850500D01*
X22198993Y17816060D01*
X22187511Y17812983D01*
X22061988Y17740512D01*
X22061982Y17740507D01*
X21959493Y17638018D01*
X21959488Y17638012D01*
X21887017Y17512489D01*
X21887016Y17512485D01*
X21849500Y17372475D01*
X500500Y17372475D01*
X500500Y18572475D01*
X23999500Y18572475D01*
X23999500Y18427525D01*
X24037016Y18287515D01*
X24037017Y18287512D01*
X24109488Y18161989D01*
X24109490Y18161987D01*
X24109491Y18161985D01*
X24211985Y18059491D01*
X24211986Y18059490D01*
X24211988Y18059489D01*
X24337511Y17987018D01*
X24337512Y17987018D01*
X24337515Y17987016D01*
X24477525Y17949500D01*
X24477528Y17949500D01*
X24622472Y17949500D01*
X24622475Y17949500D01*
X24762485Y17987016D01*
X24888015Y18059491D01*
X24990509Y18161985D01*
X25062984Y18287515D01*
X25100500Y18427525D01*
X25100500Y18572475D01*
X25062984Y18712485D01*
X24990509Y18838015D01*
X24888015Y18940509D01*
X24888013Y18940510D01*
X24888011Y18940512D01*
X24762488Y19012983D01*
X24762489Y19012983D01*
X24751006Y19016060D01*
X24622475Y19050500D01*
X24477525Y19050500D01*
X24348993Y19016060D01*
X24337511Y19012983D01*
X24211988Y18940512D01*
X24211982Y18940507D01*
X24109493Y18838018D01*
X24109488Y18838012D01*
X24037017Y18712489D01*
X24037016Y18712485D01*
X23999500Y18572475D01*
X500500Y18572475D01*
X500500Y20172475D01*
X24449500Y20172475D01*
X24449500Y20027525D01*
X24487016Y19887515D01*
X24487017Y19887512D01*
X24559488Y19761989D01*
X24559490Y19761987D01*
X24559491Y19761985D01*
X24661985Y19659491D01*
X24661986Y19659490D01*
X24661988Y19659489D01*
X24787511Y19587018D01*
X24787512Y19587018D01*
X24787515Y19587016D01*
X24927525Y19549500D01*
X24927528Y19549500D01*
X25072472Y19549500D01*
X25072475Y19549500D01*
X25212485Y19587016D01*
X25338015Y19659491D01*
X25440509Y19761985D01*
X25512984Y19887515D01*
X25550500Y20027525D01*
X25550500Y20172475D01*
X25512984Y20312485D01*
X25440509Y20438015D01*
X25338015Y20540509D01*
X25338013Y20540510D01*
X25338011Y20540512D01*
X25212488Y20612983D01*
X25212489Y20612983D01*
X25201006Y20616060D01*
X25072475Y20650500D01*
X24927525Y20650500D01*
X24798993Y20616060D01*
X24787511Y20612983D01*
X24661988Y20540512D01*
X24661982Y20540507D01*
X24559493Y20438018D01*
X24559488Y20438012D01*
X24487017Y20312489D01*
X24487016Y20312485D01*
X24449500Y20172475D01*
X500500Y20172475D01*
X500500Y20874679D01*
X42899500Y20874679D01*
X42899500Y19125322D01*
X42914032Y19052265D01*
X42914033Y19052261D01*
X42914034Y19052260D01*
X42969399Y18969399D01*
X43012637Y18940509D01*
X43052260Y18914034D01*
X43052264Y18914033D01*
X43125321Y18899501D01*
X43125324Y18899500D01*
X43125326Y18899500D01*
X44874676Y18899500D01*
X44874677Y18899501D01*
X44947740Y18914034D01*
X45030601Y18969399D01*
X45085966Y19052260D01*
X45100500Y19125326D01*
X45100500Y20874674D01*
X45100500Y20874677D01*
X45100499Y20874679D01*
X45085967Y20947736D01*
X45085966Y20947740D01*
X45030601Y21030601D01*
X44947740Y21085966D01*
X44947739Y21085967D01*
X44947735Y21085968D01*
X44874677Y21100500D01*
X44874674Y21100500D01*
X43125326Y21100500D01*
X43125323Y21100500D01*
X43052264Y21085968D01*
X43052260Y21085967D01*
X42969399Y21030601D01*
X42914033Y20947740D01*
X42914032Y20947736D01*
X42899500Y20874679D01*
X500500Y20874679D01*
X500500Y22172475D01*
X26749500Y22172475D01*
X26749500Y22027525D01*
X26770407Y21949500D01*
X26787017Y21887512D01*
X26859488Y21761989D01*
X26859490Y21761987D01*
X26859491Y21761985D01*
X26961985Y21659491D01*
X26961986Y21659490D01*
X26961988Y21659489D01*
X27087511Y21587018D01*
X27087512Y21587018D01*
X27087515Y21587016D01*
X27227525Y21549500D01*
X27227528Y21549500D01*
X27372472Y21549500D01*
X27372475Y21549500D01*
X27512485Y21587016D01*
X27638015Y21659491D01*
X27740509Y21761985D01*
X27812984Y21887515D01*
X27850500Y22027525D01*
X27850500Y22172475D01*
X27812984Y22312485D01*
X27746565Y22427525D01*
X27740511Y22438012D01*
X27740506Y22438018D01*
X27638017Y22540507D01*
X27638011Y22540512D01*
X27512488Y22612983D01*
X27512489Y22612983D01*
X27501006Y22616060D01*
X27372475Y22650500D01*
X27227525Y22650500D01*
X27098993Y22616060D01*
X27087511Y22612983D01*
X26961988Y22540512D01*
X26961982Y22540507D01*
X26859493Y22438018D01*
X26859488Y22438012D01*
X26787017Y22312489D01*
X26787016Y22312485D01*
X26749500Y22172475D01*
X500500Y22172475D01*
X500500Y23492475D01*
X809500Y23492475D01*
X809500Y23347525D01*
X834911Y23252691D01*
X847017Y23207512D01*
X919488Y23081989D01*
X919490Y23081987D01*
X919491Y23081985D01*
X1021985Y22979491D01*
X1021986Y22979490D01*
X1021988Y22979489D01*
X1147511Y22907018D01*
X1147512Y22907018D01*
X1147515Y22907016D01*
X1287525Y22869500D01*
X1287528Y22869500D01*
X1432472Y22869500D01*
X1432475Y22869500D01*
X1572485Y22907016D01*
X1698015Y22979491D01*
X1800509Y23081985D01*
X1872984Y23207515D01*
X1910500Y23347525D01*
X1910500Y23492475D01*
X1872984Y23632485D01*
X1855953Y23661983D01*
X1800511Y23758012D01*
X1800506Y23758018D01*
X1698017Y23860507D01*
X1698011Y23860512D01*
X1572488Y23932983D01*
X1572489Y23932983D01*
X1553698Y23938018D01*
X1432475Y23970500D01*
X1287525Y23970500D01*
X1166302Y23938018D01*
X1147511Y23932983D01*
X1021988Y23860512D01*
X1021982Y23860507D01*
X919493Y23758018D01*
X919488Y23758012D01*
X847017Y23632489D01*
X847016Y23632485D01*
X809500Y23492475D01*
X500500Y23492475D01*
X500500Y24072475D01*
X5639500Y24072475D01*
X5639500Y23927525D01*
X5674775Y23795880D01*
X5677017Y23787512D01*
X5749488Y23661989D01*
X5749490Y23661987D01*
X5749491Y23661985D01*
X5851985Y23559491D01*
X5851986Y23559490D01*
X5851988Y23559489D01*
X5977511Y23487018D01*
X5977512Y23487018D01*
X5977515Y23487016D01*
X6117525Y23449500D01*
X6117528Y23449500D01*
X6262472Y23449500D01*
X6262475Y23449500D01*
X6402485Y23487016D01*
X6528015Y23559491D01*
X6630509Y23661985D01*
X6702984Y23787515D01*
X6705225Y23795882D01*
X6741590Y23855541D01*
X6804437Y23886070D01*
X6873812Y23877775D01*
X6927690Y23833290D01*
X6944775Y23795880D01*
X6947017Y23787513D01*
X6947017Y23787512D01*
X7019488Y23661989D01*
X7019490Y23661987D01*
X7019491Y23661985D01*
X7121985Y23559491D01*
X7121986Y23559490D01*
X7121988Y23559489D01*
X7247511Y23487018D01*
X7247512Y23487018D01*
X7247515Y23487016D01*
X7387525Y23449500D01*
X7387528Y23449500D01*
X7532472Y23449500D01*
X7532475Y23449500D01*
X7672485Y23487016D01*
X7798015Y23559491D01*
X7900509Y23661985D01*
X7906565Y23672475D01*
X15849500Y23672475D01*
X15849500Y23527525D01*
X15870407Y23449500D01*
X15887017Y23387512D01*
X15959488Y23261989D01*
X15959490Y23261987D01*
X15959491Y23261985D01*
X16061985Y23159491D01*
X16061986Y23159490D01*
X16061988Y23159489D01*
X16187511Y23087018D01*
X16187512Y23087018D01*
X16187515Y23087016D01*
X16327525Y23049500D01*
X16327528Y23049500D01*
X16472472Y23049500D01*
X16472475Y23049500D01*
X16612485Y23087016D01*
X16738015Y23159491D01*
X16840509Y23261985D01*
X16912984Y23387515D01*
X16950500Y23527525D01*
X16950500Y23672475D01*
X16912984Y23812485D01*
X16840509Y23938015D01*
X16806049Y23972475D01*
X22049500Y23972475D01*
X22049500Y23827525D01*
X22087016Y23687515D01*
X22087017Y23687512D01*
X22159488Y23561989D01*
X22159490Y23561987D01*
X22159491Y23561985D01*
X22261985Y23459491D01*
X22261986Y23459490D01*
X22261988Y23459489D01*
X22387511Y23387018D01*
X22387512Y23387018D01*
X22387515Y23387016D01*
X22527525Y23349500D01*
X22527528Y23349500D01*
X22672472Y23349500D01*
X22672475Y23349500D01*
X22812485Y23387016D01*
X22938015Y23459491D01*
X23040509Y23561985D01*
X23112984Y23687515D01*
X23150500Y23827525D01*
X23150500Y23872475D01*
X36049500Y23872475D01*
X36049500Y23727525D01*
X36087016Y23587515D01*
X36087017Y23587512D01*
X36159488Y23461989D01*
X36159490Y23461987D01*
X36159491Y23461985D01*
X36261985Y23359491D01*
X36261986Y23359490D01*
X36261988Y23359489D01*
X36387511Y23287018D01*
X36387512Y23287018D01*
X36387515Y23287016D01*
X36451861Y23269775D01*
X36511520Y23233409D01*
X36542049Y23170562D01*
X36533754Y23101187D01*
X36489268Y23047309D01*
X36451862Y23030226D01*
X36397516Y23015664D01*
X36387511Y23012983D01*
X36261988Y22940512D01*
X36261982Y22940507D01*
X36159493Y22838018D01*
X36159488Y22838012D01*
X36087017Y22712489D01*
X36087016Y22712485D01*
X36049500Y22572475D01*
X36049500Y22427525D01*
X36087016Y22287515D01*
X36087017Y22287512D01*
X36159488Y22161989D01*
X36159490Y22161987D01*
X36159491Y22161985D01*
X36261985Y22059491D01*
X36261986Y22059490D01*
X36261988Y22059489D01*
X36387511Y21987018D01*
X36387512Y21987018D01*
X36387515Y21987016D01*
X36527525Y21949500D01*
X36527528Y21949500D01*
X36672472Y21949500D01*
X36672475Y21949500D01*
X36812485Y21987016D01*
X36938015Y22059491D01*
X37040509Y22161985D01*
X37112984Y22287515D01*
X37150500Y22427525D01*
X37150500Y22572475D01*
X37112984Y22712485D01*
X37040509Y22838015D01*
X36938015Y22940509D01*
X36938013Y22940510D01*
X36938011Y22940512D01*
X36812488Y23012983D01*
X36812489Y23012983D01*
X36806157Y23014680D01*
X36748137Y23030227D01*
X36688479Y23066590D01*
X36657950Y23129437D01*
X36666245Y23198813D01*
X36710730Y23252691D01*
X36748135Y23269774D01*
X36812485Y23287016D01*
X36938015Y23359491D01*
X37040509Y23461985D01*
X37112984Y23587515D01*
X37150500Y23727525D01*
X37150500Y23872475D01*
X37112984Y24012485D01*
X37096805Y24040507D01*
X37040511Y24138012D01*
X37040506Y24138018D01*
X36938017Y24240507D01*
X36938011Y24240512D01*
X36812488Y24312983D01*
X36812489Y24312983D01*
X36801006Y24316060D01*
X36672475Y24350500D01*
X36527525Y24350500D01*
X36398993Y24316060D01*
X36387511Y24312983D01*
X36261988Y24240512D01*
X36261982Y24240507D01*
X36159493Y24138018D01*
X36159488Y24138012D01*
X36087017Y24012489D01*
X36087016Y24012485D01*
X36049500Y23872475D01*
X23150500Y23872475D01*
X23150500Y23972475D01*
X23112984Y24112485D01*
X23112696Y24112983D01*
X23040511Y24238012D01*
X23040506Y24238018D01*
X22938017Y24340507D01*
X22938011Y24340512D01*
X22812488Y24412983D01*
X22812489Y24412983D01*
X22801006Y24416060D01*
X22672475Y24450500D01*
X22527525Y24450500D01*
X22398993Y24416060D01*
X22387511Y24412983D01*
X22261988Y24340512D01*
X22261982Y24340507D01*
X22159493Y24238018D01*
X22159488Y24238012D01*
X22087017Y24112489D01*
X22087016Y24112485D01*
X22049500Y23972475D01*
X16806049Y23972475D01*
X16738015Y24040509D01*
X16738013Y24040510D01*
X16738011Y24040512D01*
X16612488Y24112983D01*
X16612489Y24112983D01*
X16601006Y24116060D01*
X16472475Y24150500D01*
X16327525Y24150500D01*
X16198993Y24116060D01*
X16187511Y24112983D01*
X16061988Y24040512D01*
X16061982Y24040507D01*
X15959493Y23938018D01*
X15959488Y23938012D01*
X15887017Y23812489D01*
X15887016Y23812485D01*
X15849500Y23672475D01*
X7906565Y23672475D01*
X7972984Y23787515D01*
X8010500Y23927525D01*
X8010500Y24072475D01*
X7972984Y24212485D01*
X7958244Y24238015D01*
X7900511Y24338012D01*
X7900506Y24338018D01*
X7798017Y24440507D01*
X7798011Y24440512D01*
X7672488Y24512983D01*
X7672489Y24512983D01*
X7661006Y24516060D01*
X7532475Y24550500D01*
X7387525Y24550500D01*
X7258993Y24516060D01*
X7247511Y24512983D01*
X7121988Y24440512D01*
X7121982Y24440507D01*
X7019493Y24338018D01*
X7019488Y24338012D01*
X6947017Y24212489D01*
X6947015Y24212484D01*
X6944774Y24204119D01*
X6908409Y24144459D01*
X6845561Y24113931D01*
X6776186Y24122226D01*
X6722309Y24166712D01*
X6705226Y24204119D01*
X6702984Y24212484D01*
X6702982Y24212489D01*
X6630511Y24338012D01*
X6630506Y24338018D01*
X6528017Y24440507D01*
X6528011Y24440512D01*
X6402488Y24512983D01*
X6402489Y24512983D01*
X6391006Y24516060D01*
X6262475Y24550500D01*
X6117525Y24550500D01*
X5988993Y24516060D01*
X5977511Y24512983D01*
X5851988Y24440512D01*
X5851982Y24440507D01*
X5749493Y24338018D01*
X5749488Y24338012D01*
X5677017Y24212489D01*
X5677016Y24212485D01*
X5639500Y24072475D01*
X500500Y24072475D01*
X500500Y25275500D01*
X520185Y25342539D01*
X572989Y25388294D01*
X624500Y25399500D01*
X2374676Y25399500D01*
X2374677Y25399501D01*
X2447740Y25414034D01*
X2530601Y25469399D01*
X2585966Y25552260D01*
X2600500Y25625326D01*
X2600500Y26586611D01*
X2939500Y26586611D01*
X2939500Y26413389D01*
X2942890Y26391985D01*
X2959123Y26289491D01*
X2966598Y26242299D01*
X3020127Y26077555D01*
X3098768Y25923212D01*
X3200586Y25783072D01*
X3323072Y25660586D01*
X3463212Y25558768D01*
X3617555Y25480127D01*
X3782299Y25426598D01*
X3953389Y25399500D01*
X3953390Y25399500D01*
X4126610Y25399500D01*
X4126611Y25399500D01*
X4297701Y25426598D01*
X4462445Y25480127D01*
X4616788Y25558768D01*
X4756928Y25660586D01*
X4879414Y25783072D01*
X4981232Y25923212D01*
X5059873Y26077555D01*
X5113402Y26242299D01*
X5140500Y26413389D01*
X5140500Y26586611D01*
X5479500Y26586611D01*
X5479500Y26413389D01*
X5482890Y26391985D01*
X5499123Y26289491D01*
X5506598Y26242299D01*
X5560127Y26077555D01*
X5638768Y25923212D01*
X5740586Y25783072D01*
X5863072Y25660586D01*
X6003212Y25558768D01*
X6157555Y25480127D01*
X6322299Y25426598D01*
X6493389Y25399500D01*
X6493390Y25399500D01*
X6666610Y25399500D01*
X6666611Y25399500D01*
X6837701Y25426598D01*
X7002445Y25480127D01*
X7156788Y25558768D01*
X7296928Y25660586D01*
X7419414Y25783072D01*
X7521232Y25923212D01*
X7599873Y26077555D01*
X7653402Y26242299D01*
X7680500Y26413389D01*
X7680500Y26586611D01*
X8019500Y26586611D01*
X8019500Y26413389D01*
X8022890Y26391985D01*
X8039123Y26289491D01*
X8046598Y26242299D01*
X8100127Y26077555D01*
X8178768Y25923212D01*
X8280586Y25783072D01*
X8403072Y25660586D01*
X8543212Y25558768D01*
X8697555Y25480127D01*
X8862299Y25426598D01*
X9033389Y25399500D01*
X9033390Y25399500D01*
X9206610Y25399500D01*
X9206611Y25399500D01*
X9377701Y25426598D01*
X9542445Y25480127D01*
X9696788Y25558768D01*
X9836928Y25660586D01*
X9959414Y25783072D01*
X10061232Y25923212D01*
X10139873Y26077555D01*
X10193402Y26242299D01*
X10220500Y26413389D01*
X10220500Y26586611D01*
X10559500Y26586611D01*
X10559500Y26413389D01*
X10562890Y26391985D01*
X10579123Y26289491D01*
X10586598Y26242299D01*
X10640127Y26077555D01*
X10718768Y25923212D01*
X10820586Y25783072D01*
X10943072Y25660586D01*
X11083212Y25558768D01*
X11237555Y25480127D01*
X11402299Y25426598D01*
X11573389Y25399500D01*
X11573390Y25399500D01*
X11746610Y25399500D01*
X11746611Y25399500D01*
X11917701Y25426598D01*
X12082445Y25480127D01*
X12236788Y25558768D01*
X12376928Y25660586D01*
X12499414Y25783072D01*
X12601232Y25923212D01*
X12679873Y26077555D01*
X12733402Y26242299D01*
X12760500Y26413389D01*
X12760500Y26586611D01*
X13099500Y26586611D01*
X13099500Y26413389D01*
X13102890Y26391985D01*
X13119123Y26289491D01*
X13126598Y26242299D01*
X13180127Y26077555D01*
X13258768Y25923212D01*
X13360586Y25783072D01*
X13483072Y25660586D01*
X13623212Y25558768D01*
X13777555Y25480127D01*
X13942299Y25426598D01*
X14113389Y25399500D01*
X14113390Y25399500D01*
X14286610Y25399500D01*
X14286611Y25399500D01*
X14457701Y25426598D01*
X14622445Y25480127D01*
X14776788Y25558768D01*
X14916928Y25660586D01*
X15039414Y25783072D01*
X15141232Y25923212D01*
X15219873Y26077555D01*
X15273402Y26242299D01*
X15300500Y26413389D01*
X15300500Y26586611D01*
X15639500Y26586611D01*
X15639500Y26413389D01*
X15642890Y26391985D01*
X15659123Y26289491D01*
X15666598Y26242299D01*
X15720127Y26077555D01*
X15798768Y25923212D01*
X15900586Y25783072D01*
X16023072Y25660586D01*
X16163212Y25558768D01*
X16317555Y25480127D01*
X16482299Y25426598D01*
X16653389Y25399500D01*
X16653390Y25399500D01*
X16826610Y25399500D01*
X16826611Y25399500D01*
X16997701Y25426598D01*
X17162445Y25480127D01*
X17316788Y25558768D01*
X17456928Y25660586D01*
X17579414Y25783072D01*
X17681232Y25923212D01*
X17759873Y26077555D01*
X17813402Y26242299D01*
X17840500Y26413389D01*
X17840500Y26586611D01*
X17813402Y26757701D01*
X17759873Y26922445D01*
X17681232Y27076788D01*
X17579414Y27216928D01*
X17456928Y27339414D01*
X17316788Y27441232D01*
X17255470Y27472475D01*
X23649500Y27472475D01*
X23649500Y27327525D01*
X23687016Y27187515D01*
X23687017Y27187512D01*
X23759488Y27061989D01*
X23759490Y27061987D01*
X23759491Y27061985D01*
X23861985Y26959491D01*
X23861986Y26959490D01*
X23861988Y26959489D01*
X23987511Y26887018D01*
X23987512Y26887018D01*
X23987515Y26887016D01*
X24127525Y26849500D01*
X24127528Y26849500D01*
X24272472Y26849500D01*
X24272475Y26849500D01*
X24412485Y26887016D01*
X24538015Y26959491D01*
X24640509Y27061985D01*
X24712984Y27187515D01*
X24750500Y27327525D01*
X24750500Y27472475D01*
X24712984Y27612485D01*
X24708538Y27620185D01*
X24640511Y27738012D01*
X24640506Y27738018D01*
X24538017Y27840507D01*
X24538011Y27840512D01*
X24412488Y27912983D01*
X24412489Y27912983D01*
X24401006Y27916060D01*
X24272475Y27950500D01*
X24127525Y27950500D01*
X23998993Y27916060D01*
X23987511Y27912983D01*
X23861988Y27840512D01*
X23861982Y27840507D01*
X23759493Y27738018D01*
X23759488Y27738012D01*
X23687017Y27612489D01*
X23687016Y27612485D01*
X23649500Y27472475D01*
X17255470Y27472475D01*
X17162445Y27519873D01*
X16997701Y27573402D01*
X16997699Y27573403D01*
X16997698Y27573403D01*
X16866271Y27594219D01*
X16826611Y27600500D01*
X16653389Y27600500D01*
X16613728Y27594219D01*
X16482302Y27573403D01*
X16317552Y27519872D01*
X16163211Y27441232D01*
X16086588Y27385561D01*
X16023072Y27339414D01*
X16023070Y27339412D01*
X16023069Y27339412D01*
X15900588Y27216931D01*
X15900588Y27216930D01*
X15900586Y27216928D01*
X15897361Y27212489D01*
X15798768Y27076789D01*
X15720128Y26922448D01*
X15666597Y26757698D01*
X15639500Y26586611D01*
X15300500Y26586611D01*
X15273402Y26757701D01*
X15219873Y26922445D01*
X15141232Y27076788D01*
X15039414Y27216928D01*
X14916928Y27339414D01*
X14776788Y27441232D01*
X14622445Y27519873D01*
X14457701Y27573402D01*
X14457699Y27573403D01*
X14457698Y27573403D01*
X14326271Y27594219D01*
X14286611Y27600500D01*
X14113389Y27600500D01*
X14073728Y27594219D01*
X13942302Y27573403D01*
X13777552Y27519872D01*
X13623211Y27441232D01*
X13546588Y27385561D01*
X13483072Y27339414D01*
X13483070Y27339412D01*
X13483069Y27339412D01*
X13360588Y27216931D01*
X13360588Y27216930D01*
X13360586Y27216928D01*
X13357361Y27212489D01*
X13258768Y27076789D01*
X13180128Y26922448D01*
X13126597Y26757698D01*
X13099500Y26586611D01*
X12760500Y26586611D01*
X12733402Y26757701D01*
X12679873Y26922445D01*
X12601232Y27076788D01*
X12499414Y27216928D01*
X12376928Y27339414D01*
X12236788Y27441232D01*
X12082445Y27519873D01*
X11917701Y27573402D01*
X11917699Y27573403D01*
X11917698Y27573403D01*
X11786271Y27594219D01*
X11746611Y27600500D01*
X11573389Y27600500D01*
X11533728Y27594219D01*
X11402302Y27573403D01*
X11237552Y27519872D01*
X11083211Y27441232D01*
X11006588Y27385561D01*
X10943072Y27339414D01*
X10943070Y27339412D01*
X10943069Y27339412D01*
X10820588Y27216931D01*
X10820588Y27216930D01*
X10820586Y27216928D01*
X10817361Y27212489D01*
X10718768Y27076789D01*
X10640128Y26922448D01*
X10586597Y26757698D01*
X10559500Y26586611D01*
X10220500Y26586611D01*
X10193402Y26757701D01*
X10139873Y26922445D01*
X10061232Y27076788D01*
X9959414Y27216928D01*
X9836928Y27339414D01*
X9696788Y27441232D01*
X9542445Y27519873D01*
X9377701Y27573402D01*
X9377699Y27573403D01*
X9377698Y27573403D01*
X9246271Y27594219D01*
X9206611Y27600500D01*
X9033389Y27600500D01*
X8993728Y27594219D01*
X8862302Y27573403D01*
X8697552Y27519872D01*
X8543211Y27441232D01*
X8466588Y27385561D01*
X8403072Y27339414D01*
X8403070Y27339412D01*
X8403069Y27339412D01*
X8280588Y27216931D01*
X8280588Y27216930D01*
X8280586Y27216928D01*
X8277361Y27212489D01*
X8178768Y27076789D01*
X8100128Y26922448D01*
X8046597Y26757698D01*
X8019500Y26586611D01*
X7680500Y26586611D01*
X7653402Y26757701D01*
X7599873Y26922445D01*
X7521232Y27076788D01*
X7419414Y27216928D01*
X7296928Y27339414D01*
X7156788Y27441232D01*
X7002445Y27519873D01*
X6837701Y27573402D01*
X6837699Y27573403D01*
X6837698Y27573403D01*
X6706271Y27594219D01*
X6666611Y27600500D01*
X6493389Y27600500D01*
X6453728Y27594219D01*
X6322302Y27573403D01*
X6157552Y27519872D01*
X6003211Y27441232D01*
X5926588Y27385561D01*
X5863072Y27339414D01*
X5863070Y27339412D01*
X5863069Y27339412D01*
X5740588Y27216931D01*
X5740588Y27216930D01*
X5740586Y27216928D01*
X5737361Y27212489D01*
X5638768Y27076789D01*
X5560128Y26922448D01*
X5506597Y26757698D01*
X5479500Y26586611D01*
X5140500Y26586611D01*
X5113402Y26757701D01*
X5059873Y26922445D01*
X4981232Y27076788D01*
X4879414Y27216928D01*
X4756928Y27339414D01*
X4616788Y27441232D01*
X4462445Y27519873D01*
X4297701Y27573402D01*
X4297699Y27573403D01*
X4297698Y27573403D01*
X4166271Y27594219D01*
X4126611Y27600500D01*
X3953389Y27600500D01*
X3913728Y27594219D01*
X3782302Y27573403D01*
X3617552Y27519872D01*
X3463211Y27441232D01*
X3386588Y27385561D01*
X3323072Y27339414D01*
X3323070Y27339412D01*
X3323069Y27339412D01*
X3200588Y27216931D01*
X3200588Y27216930D01*
X3200586Y27216928D01*
X3197361Y27212489D01*
X3098768Y27076789D01*
X3020128Y26922448D01*
X2966597Y26757698D01*
X2939500Y26586611D01*
X2600500Y26586611D01*
X2600500Y27374674D01*
X2600500Y27374677D01*
X2600499Y27374679D01*
X2585967Y27447736D01*
X2585966Y27447740D01*
X2559723Y27487016D01*
X2530601Y27530601D01*
X2447740Y27585966D01*
X2447739Y27585967D01*
X2447735Y27585968D01*
X2374677Y27600500D01*
X2374674Y27600500D01*
X625326Y27600500D01*
X624500Y27600500D01*
X557461Y27620185D01*
X511706Y27672989D01*
X500500Y27724500D01*
X500500Y28472475D01*
X22149500Y28472475D01*
X22149500Y28327525D01*
X22187016Y28187515D01*
X22187017Y28187512D01*
X22259488Y28061989D01*
X22259490Y28061987D01*
X22259491Y28061985D01*
X22361985Y27959491D01*
X22361986Y27959490D01*
X22361988Y27959489D01*
X22487511Y27887018D01*
X22487512Y27887018D01*
X22487515Y27887016D01*
X22627525Y27849500D01*
X22627528Y27849500D01*
X22772472Y27849500D01*
X22772475Y27849500D01*
X22912485Y27887016D01*
X23038015Y27959491D01*
X23140509Y28061985D01*
X23146565Y28072475D01*
X34849500Y28072475D01*
X34849500Y27927525D01*
X34872817Y27840507D01*
X34887017Y27787512D01*
X34959488Y27661989D01*
X34959490Y27661987D01*
X34959491Y27661985D01*
X35061985Y27559491D01*
X35061986Y27559490D01*
X35061988Y27559489D01*
X35187511Y27487018D01*
X35187512Y27487018D01*
X35187515Y27487016D01*
X35191386Y27485979D01*
X35195881Y27484774D01*
X35255541Y27448409D01*
X35286069Y27385561D01*
X35277774Y27316186D01*
X35233288Y27262309D01*
X35195881Y27245226D01*
X35187516Y27242985D01*
X35187511Y27242983D01*
X35061988Y27170512D01*
X35061982Y27170507D01*
X34959493Y27068018D01*
X34959488Y27068012D01*
X34887017Y26942489D01*
X34887016Y26942485D01*
X34849500Y26802475D01*
X34849500Y26657525D01*
X34875769Y26559489D01*
X34887017Y26517512D01*
X34959488Y26391989D01*
X34959490Y26391987D01*
X34959491Y26391985D01*
X35061985Y26289491D01*
X35061986Y26289490D01*
X35061988Y26289489D01*
X35187511Y26217018D01*
X35187512Y26217018D01*
X35187515Y26217016D01*
X35191386Y26215979D01*
X35195881Y26214774D01*
X35255541Y26178409D01*
X35286069Y26115561D01*
X35277774Y26046186D01*
X35233288Y25992309D01*
X35195881Y25975226D01*
X35187516Y25972985D01*
X35187511Y25972983D01*
X35061988Y25900512D01*
X35061982Y25900507D01*
X34959493Y25798018D01*
X34959488Y25798012D01*
X34887017Y25672489D01*
X34887016Y25672485D01*
X34849500Y25532475D01*
X34849500Y25387525D01*
X34887016Y25247515D01*
X34887017Y25247512D01*
X34959488Y25121989D01*
X34959490Y25121987D01*
X34959491Y25121985D01*
X35061985Y25019491D01*
X35061986Y25019490D01*
X35061988Y25019489D01*
X35187511Y24947018D01*
X35187512Y24947018D01*
X35187515Y24947016D01*
X35327525Y24909500D01*
X35327528Y24909500D01*
X35472472Y24909500D01*
X35472475Y24909500D01*
X35612485Y24947016D01*
X35738015Y25019491D01*
X35840509Y25121985D01*
X35912984Y25247515D01*
X35950500Y25387525D01*
X35950500Y25532475D01*
X35939782Y25572475D01*
X36849500Y25572475D01*
X36849500Y25427525D01*
X36887016Y25287515D01*
X36887017Y25287512D01*
X36959488Y25161989D01*
X36959490Y25161987D01*
X36959491Y25161985D01*
X37061985Y25059491D01*
X37061986Y25059490D01*
X37061988Y25059489D01*
X37187511Y24987018D01*
X37187512Y24987018D01*
X37187515Y24987016D01*
X37327525Y24949500D01*
X37327528Y24949500D01*
X37472472Y24949500D01*
X37472475Y24949500D01*
X37612485Y24987016D01*
X37738015Y25059491D01*
X37840509Y25161985D01*
X37912984Y25287515D01*
X37950500Y25427525D01*
X37950500Y25572475D01*
X37912984Y25712485D01*
X37872230Y25783072D01*
X37840511Y25838012D01*
X37840506Y25838018D01*
X37738017Y25940507D01*
X37738011Y25940512D01*
X37612488Y26012983D01*
X37612489Y26012983D01*
X37601006Y26016060D01*
X37472475Y26050500D01*
X37327525Y26050500D01*
X37198993Y26016060D01*
X37187511Y26012983D01*
X37061988Y25940512D01*
X37061982Y25940507D01*
X36959493Y25838018D01*
X36959488Y25838012D01*
X36887017Y25712489D01*
X36887016Y25712485D01*
X36849500Y25572475D01*
X35939782Y25572475D01*
X35912984Y25672485D01*
X35849136Y25783072D01*
X35840511Y25798012D01*
X35840506Y25798018D01*
X35738017Y25900507D01*
X35738011Y25900512D01*
X35612487Y25972983D01*
X35612486Y25972984D01*
X35612485Y25972984D01*
X35604118Y25975226D01*
X35544459Y26011590D01*
X35513930Y26074437D01*
X35522225Y26143812D01*
X35566710Y26197690D01*
X35604117Y26214774D01*
X35612485Y26217016D01*
X35738015Y26289491D01*
X35840509Y26391985D01*
X35912984Y26517515D01*
X35950500Y26657525D01*
X35950500Y26802475D01*
X35912984Y26942485D01*
X35840509Y27068015D01*
X35836049Y27072475D01*
X47749500Y27072475D01*
X47749500Y26927525D01*
X47783008Y26802473D01*
X47787017Y26787512D01*
X47859488Y26661989D01*
X47859490Y26661987D01*
X47859491Y26661985D01*
X47961985Y26559491D01*
X47961986Y26559490D01*
X47961988Y26559489D01*
X48087511Y26487018D01*
X48087512Y26487018D01*
X48087515Y26487016D01*
X48227525Y26449500D01*
X48227528Y26449500D01*
X48372472Y26449500D01*
X48372475Y26449500D01*
X48512485Y26487016D01*
X48638015Y26559491D01*
X48740509Y26661985D01*
X48812984Y26787515D01*
X48850500Y26927525D01*
X48850500Y27072475D01*
X48812984Y27212485D01*
X48795375Y27242984D01*
X48740511Y27338012D01*
X48740506Y27338018D01*
X48638017Y27440507D01*
X48638011Y27440512D01*
X48512488Y27512983D01*
X48512489Y27512983D01*
X48486775Y27519873D01*
X48372475Y27550500D01*
X48227525Y27550500D01*
X48113225Y27519873D01*
X48087511Y27512983D01*
X47961988Y27440512D01*
X47961982Y27440507D01*
X47859493Y27338018D01*
X47859488Y27338012D01*
X47787017Y27212489D01*
X47787016Y27212485D01*
X47749500Y27072475D01*
X35836049Y27072475D01*
X35738015Y27170509D01*
X35738013Y27170510D01*
X35738011Y27170512D01*
X35612487Y27242983D01*
X35612486Y27242984D01*
X35612485Y27242984D01*
X35604118Y27245226D01*
X35544459Y27281590D01*
X35513930Y27344437D01*
X35522225Y27413812D01*
X35566710Y27467690D01*
X35604117Y27484774D01*
X35612485Y27487016D01*
X35738015Y27559491D01*
X35840509Y27661985D01*
X35912984Y27787515D01*
X35950500Y27927525D01*
X35950500Y28072475D01*
X35912984Y28212485D01*
X35846565Y28327525D01*
X35840511Y28338012D01*
X35840506Y28338018D01*
X35738017Y28440507D01*
X35738011Y28440512D01*
X35612488Y28512983D01*
X35612489Y28512983D01*
X35601006Y28516060D01*
X35472475Y28550500D01*
X35327525Y28550500D01*
X35198993Y28516060D01*
X35187511Y28512983D01*
X35061988Y28440512D01*
X35061982Y28440507D01*
X34959493Y28338018D01*
X34959488Y28338012D01*
X34887017Y28212489D01*
X34887016Y28212485D01*
X34849500Y28072475D01*
X23146565Y28072475D01*
X23212984Y28187515D01*
X23250500Y28327525D01*
X23250500Y28472475D01*
X23212984Y28612485D01*
X23140509Y28738015D01*
X23038015Y28840509D01*
X23038013Y28840510D01*
X23038011Y28840512D01*
X22912488Y28912983D01*
X22912489Y28912983D01*
X22901006Y28916060D01*
X22772475Y28950500D01*
X22627525Y28950500D01*
X22498993Y28916060D01*
X22487511Y28912983D01*
X22361988Y28840512D01*
X22361982Y28840507D01*
X22259493Y28738018D01*
X22259488Y28738012D01*
X22187017Y28612489D01*
X22187016Y28612485D01*
X22149500Y28472475D01*
X500500Y28472475D01*
X500500Y29382475D01*
X37649500Y29382475D01*
X37649500Y29237525D01*
X37687016Y29097515D01*
X37687017Y29097512D01*
X37759488Y28971989D01*
X37759490Y28971987D01*
X37759491Y28971985D01*
X37861985Y28869491D01*
X37861986Y28869490D01*
X37861988Y28869489D01*
X37987511Y28797018D01*
X37987512Y28797018D01*
X37987515Y28797016D01*
X38127525Y28759500D01*
X38127528Y28759500D01*
X38272472Y28759500D01*
X38272475Y28759500D01*
X38412485Y28797016D01*
X38538015Y28869491D01*
X38640509Y28971985D01*
X38712984Y29097515D01*
X38750500Y29237525D01*
X38750500Y29382475D01*
X38712984Y29522485D01*
X38690176Y29561989D01*
X38640511Y29648012D01*
X38640506Y29648018D01*
X38538017Y29750507D01*
X38538011Y29750512D01*
X38412488Y29822983D01*
X38412489Y29822983D01*
X38395527Y29827528D01*
X38272475Y29860500D01*
X38127525Y29860500D01*
X38004473Y29827528D01*
X37987511Y29822983D01*
X37861988Y29750512D01*
X37861982Y29750507D01*
X37759493Y29648018D01*
X37759488Y29648012D01*
X37687017Y29522489D01*
X37687016Y29522485D01*
X37649500Y29382475D01*
X500500Y29382475D01*
X500500Y30772475D01*
X27349500Y30772475D01*
X27349500Y30627525D01*
X27387016Y30487515D01*
X27387017Y30487512D01*
X27459488Y30361989D01*
X27459490Y30361987D01*
X27459491Y30361985D01*
X27561985Y30259491D01*
X27561986Y30259490D01*
X27561988Y30259489D01*
X27687511Y30187018D01*
X27687512Y30187018D01*
X27687515Y30187016D01*
X27827525Y30149500D01*
X27827528Y30149500D01*
X27972472Y30149500D01*
X27972475Y30149500D01*
X28112485Y30187016D01*
X28238015Y30259491D01*
X28340509Y30361985D01*
X28404301Y30472475D01*
X41379500Y30472475D01*
X41379500Y30327525D01*
X41417016Y30187515D01*
X41417017Y30187512D01*
X41489488Y30061989D01*
X41489490Y30061987D01*
X41489491Y30061985D01*
X41591985Y29959491D01*
X41591986Y29959490D01*
X41591988Y29959489D01*
X41717511Y29887018D01*
X41717512Y29887018D01*
X41717515Y29887016D01*
X41857525Y29849500D01*
X41857528Y29849500D01*
X42002472Y29849500D01*
X42002475Y29849500D01*
X42142485Y29887016D01*
X42268015Y29959491D01*
X42280999Y29972475D01*
X51249500Y29972475D01*
X51249500Y29827525D01*
X51287016Y29687515D01*
X51287017Y29687512D01*
X51359488Y29561989D01*
X51359490Y29561987D01*
X51359491Y29561985D01*
X51461985Y29459491D01*
X51461986Y29459490D01*
X51461988Y29459489D01*
X51587511Y29387018D01*
X51587512Y29387018D01*
X51587515Y29387016D01*
X51727525Y29349500D01*
X51727528Y29349500D01*
X51872472Y29349500D01*
X51872475Y29349500D01*
X52012485Y29387016D01*
X52138015Y29459491D01*
X52240509Y29561985D01*
X52312984Y29687515D01*
X52350500Y29827525D01*
X52350500Y29972475D01*
X52312984Y30112485D01*
X52291613Y30149500D01*
X52240511Y30238012D01*
X52240506Y30238018D01*
X52138017Y30340507D01*
X52138011Y30340512D01*
X52012488Y30412983D01*
X52012489Y30412983D01*
X52001006Y30416060D01*
X51872475Y30450500D01*
X51727525Y30450500D01*
X51598993Y30416060D01*
X51587511Y30412983D01*
X51461988Y30340512D01*
X51461982Y30340507D01*
X51359493Y30238018D01*
X51359488Y30238012D01*
X51287017Y30112489D01*
X51287016Y30112485D01*
X51249500Y29972475D01*
X42280999Y29972475D01*
X42370509Y30061985D01*
X42442984Y30187515D01*
X42480500Y30327525D01*
X42480500Y30472475D01*
X42442984Y30612485D01*
X42370509Y30738015D01*
X42268015Y30840509D01*
X42268013Y30840510D01*
X42268011Y30840512D01*
X42142488Y30912983D01*
X42142489Y30912983D01*
X42131006Y30916060D01*
X42002475Y30950500D01*
X41857525Y30950500D01*
X41728993Y30916060D01*
X41717511Y30912983D01*
X41591988Y30840512D01*
X41591982Y30840507D01*
X41489493Y30738018D01*
X41489488Y30738012D01*
X41417017Y30612489D01*
X41417016Y30612485D01*
X41379500Y30472475D01*
X28404301Y30472475D01*
X28412984Y30487515D01*
X28450500Y30627525D01*
X28450500Y30772475D01*
X28412984Y30912485D01*
X28412696Y30912983D01*
X28340511Y31038012D01*
X28340506Y31038018D01*
X28238017Y31140507D01*
X28238011Y31140512D01*
X28112488Y31212983D01*
X28112489Y31212983D01*
X28101006Y31216060D01*
X27972475Y31250500D01*
X27827525Y31250500D01*
X27698993Y31216060D01*
X27687511Y31212983D01*
X27561988Y31140512D01*
X27561982Y31140507D01*
X27459493Y31038018D01*
X27459488Y31038012D01*
X27387017Y30912489D01*
X27387016Y30912485D01*
X27349500Y30772475D01*
X500500Y30772475D01*
X500500Y31375500D01*
X520185Y31442539D01*
X572989Y31488294D01*
X624500Y31499500D01*
X54375500Y31499500D01*
X54442539Y31479815D01*
G37*
G04 #@! TD.AperFunction*
G04 #@! TD*
M02*
