G04 #@! TF.GenerationSoftware,KiCad,Pcbnew,10.0.6*
G04 #@! TF.CreationDate,2026-09-16T08:03:40+02:00*
G04 #@! TF.ProjectId,canfd-mc,63616e66-642d-46d6-932e-6b696361645f,1.1*
G04 #@! TF.SameCoordinates,Original*
G04 #@! TF.FileFunction,Legend,Bot*
G04 #@! TF.FilePolarity,Positive*
%FSLAX46Y46*%
G04 Gerber Fmt 4.6, Leading zero omitted, Abs format (unit mm)*
G04 Created by KiCad (PCBNEW 10.0.6) date 2026-09-16 08:03:40*
%MOMM*%
%LPD*%
G01*
G04 APERTURE LIST*
%ADD10C,0.120000*%
%ADD11C,0.200000*%
%ADD12C,1.200000*%
%ADD13C,3.400000*%
%ADD14C,2.800000*%
%ADD15R,1.700000X1.700000*%
%ADD16C,1.700000*%
G04 APERTURE END LIST*
D10*
X31352380Y9655193D02*
X31238094Y9617098D01*
X31238094Y9617098D02*
X31199999Y9579002D01*
X31199999Y9579002D02*
X31161903Y9502812D01*
X31161903Y9502812D02*
X31161903Y9388526D01*
X31161903Y9388526D02*
X31199999Y9312336D01*
X31199999Y9312336D02*
X31238094Y9274240D01*
X31238094Y9274240D02*
X31314284Y9236145D01*
X31314284Y9236145D02*
X31619046Y9236145D01*
X31619046Y9236145D02*
X31619046Y10036145D01*
X31619046Y10036145D02*
X31352380Y10036145D01*
X31352380Y10036145D02*
X31276189Y9998050D01*
X31276189Y9998050D02*
X31238094Y9959955D01*
X31238094Y9959955D02*
X31199999Y9883764D01*
X31199999Y9883764D02*
X31199999Y9807574D01*
X31199999Y9807574D02*
X31238094Y9731383D01*
X31238094Y9731383D02*
X31276189Y9693288D01*
X31276189Y9693288D02*
X31352380Y9655193D01*
X31352380Y9655193D02*
X31619046Y9655193D01*
X30819046Y9655193D02*
X30552380Y9655193D01*
X30438094Y9236145D02*
X30819046Y9236145D01*
X30819046Y9236145D02*
X30819046Y10036145D01*
X30819046Y10036145D02*
X30438094Y10036145D01*
X30095236Y9236145D02*
X30095236Y10036145D01*
X30095236Y10036145D02*
X29638093Y9236145D01*
X29638093Y9236145D02*
X29638093Y10036145D01*
X28799998Y9312336D02*
X28838094Y9274240D01*
X28838094Y9274240D02*
X28952379Y9236145D01*
X28952379Y9236145D02*
X29028570Y9236145D01*
X29028570Y9236145D02*
X29142856Y9274240D01*
X29142856Y9274240D02*
X29219046Y9350431D01*
X29219046Y9350431D02*
X29257141Y9426621D01*
X29257141Y9426621D02*
X29295237Y9579002D01*
X29295237Y9579002D02*
X29295237Y9693288D01*
X29295237Y9693288D02*
X29257141Y9845669D01*
X29257141Y9845669D02*
X29219046Y9921860D01*
X29219046Y9921860D02*
X29142856Y9998050D01*
X29142856Y9998050D02*
X29028570Y10036145D01*
X29028570Y10036145D02*
X28952379Y10036145D01*
X28952379Y10036145D02*
X28838094Y9998050D01*
X28838094Y9998050D02*
X28799998Y9959955D01*
X28457141Y9236145D02*
X28457141Y10036145D01*
X28457141Y9655193D02*
X27999998Y9655193D01*
X27999998Y9236145D02*
X27999998Y10036145D01*
X26857141Y10036145D02*
X26704760Y10036145D01*
X26704760Y10036145D02*
X26628570Y9998050D01*
X26628570Y9998050D02*
X26552379Y9921860D01*
X26552379Y9921860D02*
X26514284Y9769479D01*
X26514284Y9769479D02*
X26514284Y9502812D01*
X26514284Y9502812D02*
X26552379Y9350431D01*
X26552379Y9350431D02*
X26628570Y9274240D01*
X26628570Y9274240D02*
X26704760Y9236145D01*
X26704760Y9236145D02*
X26857141Y9236145D01*
X26857141Y9236145D02*
X26933332Y9274240D01*
X26933332Y9274240D02*
X27009522Y9350431D01*
X27009522Y9350431D02*
X27047618Y9502812D01*
X27047618Y9502812D02*
X27047618Y9769479D01*
X27047618Y9769479D02*
X27009522Y9921860D01*
X27009522Y9921860D02*
X26933332Y9998050D01*
X26933332Y9998050D02*
X26857141Y10036145D01*
X26171427Y9236145D02*
X26171427Y10036145D01*
X26171427Y10036145D02*
X25714284Y9236145D01*
X25714284Y9236145D02*
X25714284Y10036145D01*
X24952380Y9236145D02*
X25333332Y9236145D01*
X25333332Y9236145D02*
X25333332Y10036145D01*
X24533332Y9617098D02*
X24533332Y9236145D01*
X24799999Y10036145D02*
X24533332Y9617098D01*
X24533332Y9617098D02*
X24266666Y10036145D01*
X1101950Y23509524D02*
X1063855Y23585714D01*
X1063855Y23585714D02*
X1063855Y23700000D01*
X1063855Y23700000D02*
X1101950Y23814286D01*
X1101950Y23814286D02*
X1178140Y23890476D01*
X1178140Y23890476D02*
X1254331Y23928571D01*
X1254331Y23928571D02*
X1406712Y23966667D01*
X1406712Y23966667D02*
X1520998Y23966667D01*
X1520998Y23966667D02*
X1673379Y23928571D01*
X1673379Y23928571D02*
X1749569Y23890476D01*
X1749569Y23890476D02*
X1825760Y23814286D01*
X1825760Y23814286D02*
X1863855Y23700000D01*
X1863855Y23700000D02*
X1863855Y23623809D01*
X1863855Y23623809D02*
X1825760Y23509524D01*
X1825760Y23509524D02*
X1787664Y23471428D01*
X1787664Y23471428D02*
X1520998Y23471428D01*
X1520998Y23471428D02*
X1520998Y23623809D01*
X1863855Y23128571D02*
X1063855Y23128571D01*
X1063855Y23128571D02*
X1863855Y22671428D01*
X1863855Y22671428D02*
X1063855Y22671428D01*
X1863855Y22290476D02*
X1063855Y22290476D01*
X1063855Y22290476D02*
X1063855Y22100000D01*
X1063855Y22100000D02*
X1101950Y21985714D01*
X1101950Y21985714D02*
X1178140Y21909524D01*
X1178140Y21909524D02*
X1254331Y21871429D01*
X1254331Y21871429D02*
X1406712Y21833333D01*
X1406712Y21833333D02*
X1520998Y21833333D01*
X1520998Y21833333D02*
X1673379Y21871429D01*
X1673379Y21871429D02*
X1749569Y21909524D01*
X1749569Y21909524D02*
X1825760Y21985714D01*
X1825760Y21985714D02*
X1863855Y22100000D01*
X1863855Y22100000D02*
X1863855Y22290476D01*
X3984807Y23490476D02*
X3984807Y23223810D01*
X4403855Y23109524D02*
X4403855Y23490476D01*
X4403855Y23490476D02*
X3603855Y23490476D01*
X3603855Y23490476D02*
X3603855Y23109524D01*
X4403855Y22766666D02*
X3603855Y22766666D01*
X3603855Y22766666D02*
X4403855Y22309523D01*
X4403855Y22309523D02*
X3603855Y22309523D01*
X6143855Y23509524D02*
X6143855Y23052381D01*
X6943855Y23280953D02*
X6143855Y23280953D01*
X6143855Y22861905D02*
X6943855Y22328571D01*
X6143855Y22328571D02*
X6943855Y22861905D01*
X9483855Y23033333D02*
X9102902Y23300000D01*
X9483855Y23490476D02*
X8683855Y23490476D01*
X8683855Y23490476D02*
X8683855Y23185714D01*
X8683855Y23185714D02*
X8721950Y23109524D01*
X8721950Y23109524D02*
X8760045Y23071429D01*
X8760045Y23071429D02*
X8836236Y23033333D01*
X8836236Y23033333D02*
X8950521Y23033333D01*
X8950521Y23033333D02*
X9026712Y23071429D01*
X9026712Y23071429D02*
X9064807Y23109524D01*
X9064807Y23109524D02*
X9102902Y23185714D01*
X9102902Y23185714D02*
X9102902Y23490476D01*
X8683855Y22766667D02*
X9483855Y22233333D01*
X8683855Y22233333D02*
X9483855Y22766667D01*
X12023855Y23700000D02*
X11223855Y23700000D01*
X11223855Y23166667D02*
X11223855Y23014286D01*
X11223855Y23014286D02*
X11261950Y22938096D01*
X11261950Y22938096D02*
X11338140Y22861905D01*
X11338140Y22861905D02*
X11490521Y22823810D01*
X11490521Y22823810D02*
X11757188Y22823810D01*
X11757188Y22823810D02*
X11909569Y22861905D01*
X11909569Y22861905D02*
X11985760Y22938096D01*
X11985760Y22938096D02*
X12023855Y23014286D01*
X12023855Y23014286D02*
X12023855Y23166667D01*
X12023855Y23166667D02*
X11985760Y23242858D01*
X11985760Y23242858D02*
X11909569Y23319048D01*
X11909569Y23319048D02*
X11757188Y23357144D01*
X11757188Y23357144D02*
X11490521Y23357144D01*
X11490521Y23357144D02*
X11338140Y23319048D01*
X11338140Y23319048D02*
X11261950Y23242858D01*
X11261950Y23242858D02*
X11223855Y23166667D01*
X11223855Y22328572D02*
X11223855Y22252382D01*
X11223855Y22252382D02*
X11261950Y22176191D01*
X11261950Y22176191D02*
X11300045Y22138096D01*
X11300045Y22138096D02*
X11376236Y22100001D01*
X11376236Y22100001D02*
X11528617Y22061906D01*
X11528617Y22061906D02*
X11719093Y22061906D01*
X11719093Y22061906D02*
X11871474Y22100001D01*
X11871474Y22100001D02*
X11947664Y22138096D01*
X11947664Y22138096D02*
X11985760Y22176191D01*
X11985760Y22176191D02*
X12023855Y22252382D01*
X12023855Y22252382D02*
X12023855Y22328572D01*
X12023855Y22328572D02*
X11985760Y22404763D01*
X11985760Y22404763D02*
X11947664Y22442858D01*
X11947664Y22442858D02*
X11871474Y22480953D01*
X11871474Y22480953D02*
X11719093Y22519049D01*
X11719093Y22519049D02*
X11528617Y22519049D01*
X11528617Y22519049D02*
X11376236Y22480953D01*
X11376236Y22480953D02*
X11300045Y22442858D01*
X11300045Y22442858D02*
X11261950Y22404763D01*
X11261950Y22404763D02*
X11223855Y22328572D01*
X14563855Y23604762D02*
X13763855Y23604762D01*
X13763855Y23604762D02*
X13763855Y23414286D01*
X13763855Y23414286D02*
X13801950Y23300000D01*
X13801950Y23300000D02*
X13878140Y23223810D01*
X13878140Y23223810D02*
X13954331Y23185715D01*
X13954331Y23185715D02*
X14106712Y23147619D01*
X14106712Y23147619D02*
X14220998Y23147619D01*
X14220998Y23147619D02*
X14373379Y23185715D01*
X14373379Y23185715D02*
X14449569Y23223810D01*
X14449569Y23223810D02*
X14525760Y23300000D01*
X14525760Y23300000D02*
X14563855Y23414286D01*
X14563855Y23414286D02*
X14563855Y23604762D01*
X14259093Y22804762D02*
X14259093Y22195238D01*
X14563855Y22500000D02*
X13954331Y22500000D01*
X17103854Y23604762D02*
X16303854Y23604762D01*
X16303854Y23604762D02*
X16303854Y23414286D01*
X16303854Y23414286D02*
X16341949Y23300000D01*
X16341949Y23300000D02*
X16418139Y23223810D01*
X16418139Y23223810D02*
X16494330Y23185715D01*
X16494330Y23185715D02*
X16646711Y23147619D01*
X16646711Y23147619D02*
X16760997Y23147619D01*
X16760997Y23147619D02*
X16913378Y23185715D01*
X16913378Y23185715D02*
X16989568Y23223810D01*
X16989568Y23223810D02*
X17065759Y23300000D01*
X17065759Y23300000D02*
X17103854Y23414286D01*
X17103854Y23414286D02*
X17103854Y23604762D01*
X16799092Y22804762D02*
X16799092Y22195238D01*
D11*
X45685711Y16512400D02*
X45514283Y16455258D01*
X45514283Y16455258D02*
X45228568Y16455258D01*
X45228568Y16455258D02*
X45114283Y16512400D01*
X45114283Y16512400D02*
X45057140Y16569543D01*
X45057140Y16569543D02*
X44999997Y16683829D01*
X44999997Y16683829D02*
X44999997Y16798115D01*
X44999997Y16798115D02*
X45057140Y16912400D01*
X45057140Y16912400D02*
X45114283Y16969543D01*
X45114283Y16969543D02*
X45228568Y17026686D01*
X45228568Y17026686D02*
X45457140Y17083829D01*
X45457140Y17083829D02*
X45571425Y17140972D01*
X45571425Y17140972D02*
X45628568Y17198115D01*
X45628568Y17198115D02*
X45685711Y17312400D01*
X45685711Y17312400D02*
X45685711Y17426686D01*
X45685711Y17426686D02*
X45628568Y17540972D01*
X45628568Y17540972D02*
X45571425Y17598115D01*
X45571425Y17598115D02*
X45457140Y17655258D01*
X45457140Y17655258D02*
X45171425Y17655258D01*
X45171425Y17655258D02*
X44999997Y17598115D01*
X44485711Y17255258D02*
X44485711Y16055258D01*
X44485711Y17198115D02*
X44371426Y17255258D01*
X44371426Y17255258D02*
X44142854Y17255258D01*
X44142854Y17255258D02*
X44028568Y17198115D01*
X44028568Y17198115D02*
X43971426Y17140972D01*
X43971426Y17140972D02*
X43914283Y17026686D01*
X43914283Y17026686D02*
X43914283Y16683829D01*
X43914283Y16683829D02*
X43971426Y16569543D01*
X43971426Y16569543D02*
X44028568Y16512400D01*
X44028568Y16512400D02*
X44142854Y16455258D01*
X44142854Y16455258D02*
X44371426Y16455258D01*
X44371426Y16455258D02*
X44485711Y16512400D01*
X43399997Y16455258D02*
X43399997Y17255258D01*
X43399997Y17026686D02*
X43342854Y17140972D01*
X43342854Y17140972D02*
X43285712Y17198115D01*
X43285712Y17198115D02*
X43171426Y17255258D01*
X43171426Y17255258D02*
X43057140Y17255258D01*
X42657140Y16455258D02*
X42657140Y17255258D01*
X42657140Y17655258D02*
X42714283Y17598115D01*
X42714283Y17598115D02*
X42657140Y17540972D01*
X42657140Y17540972D02*
X42599997Y17598115D01*
X42599997Y17598115D02*
X42657140Y17655258D01*
X42657140Y17655258D02*
X42657140Y17540972D01*
X42085711Y17255258D02*
X42085711Y16455258D01*
X42085711Y17140972D02*
X42028568Y17198115D01*
X42028568Y17198115D02*
X41914283Y17255258D01*
X41914283Y17255258D02*
X41742854Y17255258D01*
X41742854Y17255258D02*
X41628568Y17198115D01*
X41628568Y17198115D02*
X41571426Y17083829D01*
X41571426Y17083829D02*
X41571426Y16455258D01*
X40485712Y17255258D02*
X40485712Y16283829D01*
X40485712Y16283829D02*
X40542854Y16169543D01*
X40542854Y16169543D02*
X40599997Y16112400D01*
X40599997Y16112400D02*
X40714283Y16055258D01*
X40714283Y16055258D02*
X40885712Y16055258D01*
X40885712Y16055258D02*
X40999997Y16112400D01*
X40485712Y16512400D02*
X40599997Y16455258D01*
X40599997Y16455258D02*
X40828569Y16455258D01*
X40828569Y16455258D02*
X40942854Y16512400D01*
X40942854Y16512400D02*
X40999997Y16569543D01*
X40999997Y16569543D02*
X41057140Y16683829D01*
X41057140Y16683829D02*
X41057140Y17026686D01*
X41057140Y17026686D02*
X40999997Y17140972D01*
X40999997Y17140972D02*
X40942854Y17198115D01*
X40942854Y17198115D02*
X40828569Y17255258D01*
X40828569Y17255258D02*
X40599997Y17255258D01*
X40599997Y17255258D02*
X40485712Y17198115D01*
X39399998Y16512400D02*
X39514283Y16455258D01*
X39514283Y16455258D02*
X39742855Y16455258D01*
X39742855Y16455258D02*
X39857140Y16512400D01*
X39857140Y16512400D02*
X39914283Y16569543D01*
X39914283Y16569543D02*
X39971426Y16683829D01*
X39971426Y16683829D02*
X39971426Y17026686D01*
X39971426Y17026686D02*
X39914283Y17140972D01*
X39914283Y17140972D02*
X39857140Y17198115D01*
X39857140Y17198115D02*
X39742855Y17255258D01*
X39742855Y17255258D02*
X39514283Y17255258D01*
X39514283Y17255258D02*
X39399998Y17198115D01*
X38714284Y16455258D02*
X38828569Y16512400D01*
X38828569Y16512400D02*
X38885712Y16569543D01*
X38885712Y16569543D02*
X38942855Y16683829D01*
X38942855Y16683829D02*
X38942855Y17026686D01*
X38942855Y17026686D02*
X38885712Y17140972D01*
X38885712Y17140972D02*
X38828569Y17198115D01*
X38828569Y17198115D02*
X38714284Y17255258D01*
X38714284Y17255258D02*
X38542855Y17255258D01*
X38542855Y17255258D02*
X38428569Y17198115D01*
X38428569Y17198115D02*
X38371427Y17140972D01*
X38371427Y17140972D02*
X38314284Y17026686D01*
X38314284Y17026686D02*
X38314284Y16683829D01*
X38314284Y16683829D02*
X38371427Y16569543D01*
X38371427Y16569543D02*
X38428569Y16512400D01*
X38428569Y16512400D02*
X38542855Y16455258D01*
X38542855Y16455258D02*
X38714284Y16455258D01*
X37799998Y16455258D02*
X37799998Y17255258D01*
X37799998Y17140972D02*
X37742855Y17198115D01*
X37742855Y17198115D02*
X37628570Y17255258D01*
X37628570Y17255258D02*
X37457141Y17255258D01*
X37457141Y17255258D02*
X37342855Y17198115D01*
X37342855Y17198115D02*
X37285713Y17083829D01*
X37285713Y17083829D02*
X37285713Y16455258D01*
X37285713Y17083829D02*
X37228570Y17198115D01*
X37228570Y17198115D02*
X37114284Y17255258D01*
X37114284Y17255258D02*
X36942855Y17255258D01*
X36942855Y17255258D02*
X36828570Y17198115D01*
X36828570Y17198115D02*
X36771427Y17083829D01*
X36771427Y17083829D02*
X36771427Y16455258D01*
X36199998Y16455258D02*
X36199998Y17255258D01*
X36199998Y17140972D02*
X36142855Y17198115D01*
X36142855Y17198115D02*
X36028570Y17255258D01*
X36028570Y17255258D02*
X35857141Y17255258D01*
X35857141Y17255258D02*
X35742855Y17198115D01*
X35742855Y17198115D02*
X35685713Y17083829D01*
X35685713Y17083829D02*
X35685713Y16455258D01*
X35685713Y17083829D02*
X35628570Y17198115D01*
X35628570Y17198115D02*
X35514284Y17255258D01*
X35514284Y17255258D02*
X35342855Y17255258D01*
X35342855Y17255258D02*
X35228570Y17198115D01*
X35228570Y17198115D02*
X35171427Y17083829D01*
X35171427Y17083829D02*
X35171427Y16455258D01*
X34085713Y16455258D02*
X34085713Y17083829D01*
X34085713Y17083829D02*
X34142855Y17198115D01*
X34142855Y17198115D02*
X34257141Y17255258D01*
X34257141Y17255258D02*
X34485713Y17255258D01*
X34485713Y17255258D02*
X34599998Y17198115D01*
X34085713Y16512400D02*
X34199998Y16455258D01*
X34199998Y16455258D02*
X34485713Y16455258D01*
X34485713Y16455258D02*
X34599998Y16512400D01*
X34599998Y16512400D02*
X34657141Y16626686D01*
X34657141Y16626686D02*
X34657141Y16740972D01*
X34657141Y16740972D02*
X34599998Y16855258D01*
X34599998Y16855258D02*
X34485713Y16912400D01*
X34485713Y16912400D02*
X34199998Y16912400D01*
X34199998Y16912400D02*
X34085713Y16969543D01*
X33514284Y17255258D02*
X33514284Y16455258D01*
X33514284Y17140972D02*
X33457141Y17198115D01*
X33457141Y17198115D02*
X33342856Y17255258D01*
X33342856Y17255258D02*
X33171427Y17255258D01*
X33171427Y17255258D02*
X33057141Y17198115D01*
X33057141Y17198115D02*
X32999999Y17083829D01*
X32999999Y17083829D02*
X32999999Y16455258D01*
X31914285Y16455258D02*
X31914285Y17655258D01*
X31914285Y16512400D02*
X32028570Y16455258D01*
X32028570Y16455258D02*
X32257142Y16455258D01*
X32257142Y16455258D02*
X32371427Y16512400D01*
X32371427Y16512400D02*
X32428570Y16569543D01*
X32428570Y16569543D02*
X32485713Y16683829D01*
X32485713Y16683829D02*
X32485713Y17026686D01*
X32485713Y17026686D02*
X32428570Y17140972D01*
X32428570Y17140972D02*
X32371427Y17198115D01*
X32371427Y17198115D02*
X32257142Y17255258D01*
X32257142Y17255258D02*
X32028570Y17255258D01*
X32028570Y17255258D02*
X31914285Y17198115D01*
X30428570Y16912400D02*
X29514285Y16912400D01*
X28028570Y16455258D02*
X28028570Y17655258D01*
X28028570Y17655258D02*
X27342856Y16455258D01*
X27342856Y16455258D02*
X27342856Y17655258D01*
X26257142Y16455258D02*
X26257142Y17083829D01*
X26257142Y17083829D02*
X26314284Y17198115D01*
X26314284Y17198115D02*
X26428570Y17255258D01*
X26428570Y17255258D02*
X26657142Y17255258D01*
X26657142Y17255258D02*
X26771427Y17198115D01*
X26257142Y16512400D02*
X26371427Y16455258D01*
X26371427Y16455258D02*
X26657142Y16455258D01*
X26657142Y16455258D02*
X26771427Y16512400D01*
X26771427Y16512400D02*
X26828570Y16626686D01*
X26828570Y16626686D02*
X26828570Y16740972D01*
X26828570Y16740972D02*
X26771427Y16855258D01*
X26771427Y16855258D02*
X26657142Y16912400D01*
X26657142Y16912400D02*
X26371427Y16912400D01*
X26371427Y16912400D02*
X26257142Y16969543D01*
X25685713Y17255258D02*
X25685713Y16455258D01*
X25685713Y17140972D02*
X25628570Y17198115D01*
X25628570Y17198115D02*
X25514285Y17255258D01*
X25514285Y17255258D02*
X25342856Y17255258D01*
X25342856Y17255258D02*
X25228570Y17198115D01*
X25228570Y17198115D02*
X25171428Y17083829D01*
X25171428Y17083829D02*
X25171428Y16455258D01*
X24599999Y17255258D02*
X24599999Y16455258D01*
X24599999Y17140972D02*
X24542856Y17198115D01*
X24542856Y17198115D02*
X24428571Y17255258D01*
X24428571Y17255258D02*
X24257142Y17255258D01*
X24257142Y17255258D02*
X24142856Y17198115D01*
X24142856Y17198115D02*
X24085714Y17083829D01*
X24085714Y17083829D02*
X24085714Y16455258D01*
X23000000Y16455258D02*
X23000000Y17083829D01*
X23000000Y17083829D02*
X23057142Y17198115D01*
X23057142Y17198115D02*
X23171428Y17255258D01*
X23171428Y17255258D02*
X23400000Y17255258D01*
X23400000Y17255258D02*
X23514285Y17198115D01*
X23000000Y16512400D02*
X23114285Y16455258D01*
X23114285Y16455258D02*
X23400000Y16455258D01*
X23400000Y16455258D02*
X23514285Y16512400D01*
X23514285Y16512400D02*
X23571428Y16626686D01*
X23571428Y16626686D02*
X23571428Y16740972D01*
X23571428Y16740972D02*
X23514285Y16855258D01*
X23514285Y16855258D02*
X23400000Y16912400D01*
X23400000Y16912400D02*
X23114285Y16912400D01*
X23114285Y16912400D02*
X23000000Y16969543D01*
X21571428Y16798115D02*
X21000000Y16798115D01*
X21685714Y16455258D02*
X21285714Y17655258D01*
X21285714Y17655258D02*
X20885714Y16455258D01*
X19971429Y17255258D02*
X19971429Y16283829D01*
X19971429Y16283829D02*
X20028571Y16169543D01*
X20028571Y16169543D02*
X20085714Y16112400D01*
X20085714Y16112400D02*
X20200000Y16055258D01*
X20200000Y16055258D02*
X20371429Y16055258D01*
X20371429Y16055258D02*
X20485714Y16112400D01*
X19971429Y16512400D02*
X20085714Y16455258D01*
X20085714Y16455258D02*
X20314286Y16455258D01*
X20314286Y16455258D02*
X20428571Y16512400D01*
X20428571Y16512400D02*
X20485714Y16569543D01*
X20485714Y16569543D02*
X20542857Y16683829D01*
X20542857Y16683829D02*
X20542857Y17026686D01*
X20542857Y17026686D02*
X20485714Y17140972D01*
X20485714Y17140972D02*
X20428571Y17198115D01*
X20428571Y17198115D02*
X20314286Y17255258D01*
X20314286Y17255258D02*
X20085714Y17255258D01*
X20085714Y17255258D02*
X19971429Y17198115D01*
X18942857Y16512400D02*
X19057143Y16455258D01*
X19057143Y16455258D02*
X19285715Y16455258D01*
X19285715Y16455258D02*
X19400000Y16512400D01*
X19400000Y16512400D02*
X19457143Y16626686D01*
X19457143Y16626686D02*
X19457143Y17083829D01*
X19457143Y17083829D02*
X19400000Y17198115D01*
X19400000Y17198115D02*
X19285715Y17255258D01*
X19285715Y17255258D02*
X19057143Y17255258D01*
X19057143Y17255258D02*
X18942857Y17198115D01*
X18942857Y17198115D02*
X18885715Y17083829D01*
X18885715Y17083829D02*
X18885715Y16969543D01*
X18885715Y16969543D02*
X19457143Y16855258D01*
X18428572Y16512400D02*
X18314286Y16455258D01*
X18314286Y16455258D02*
X18085715Y16455258D01*
X18085715Y16455258D02*
X17971429Y16512400D01*
X17971429Y16512400D02*
X17914286Y16626686D01*
X17914286Y16626686D02*
X17914286Y16683829D01*
X17914286Y16683829D02*
X17971429Y16798115D01*
X17971429Y16798115D02*
X18085715Y16855258D01*
X18085715Y16855258D02*
X18257144Y16855258D01*
X18257144Y16855258D02*
X18371429Y16912400D01*
X18371429Y16912400D02*
X18428572Y17026686D01*
X18428572Y17026686D02*
X18428572Y17083829D01*
X18428572Y17083829D02*
X18371429Y17198115D01*
X18371429Y17198115D02*
X18257144Y17255258D01*
X18257144Y17255258D02*
X18085715Y17255258D01*
X18085715Y17255258D02*
X17971429Y17198115D01*
X16942857Y16512400D02*
X17057143Y16455258D01*
X17057143Y16455258D02*
X17285715Y16455258D01*
X17285715Y16455258D02*
X17400000Y16512400D01*
X17400000Y16512400D02*
X17457143Y16626686D01*
X17457143Y16626686D02*
X17457143Y17083829D01*
X17457143Y17083829D02*
X17400000Y17198115D01*
X17400000Y17198115D02*
X17285715Y17255258D01*
X17285715Y17255258D02*
X17057143Y17255258D01*
X17057143Y17255258D02*
X16942857Y17198115D01*
X16942857Y17198115D02*
X16885715Y17083829D01*
X16885715Y17083829D02*
X16885715Y16969543D01*
X16885715Y16969543D02*
X17457143Y16855258D01*
X16371429Y17255258D02*
X16371429Y16455258D01*
X16371429Y17140972D02*
X16314286Y17198115D01*
X16314286Y17198115D02*
X16200001Y17255258D01*
X16200001Y17255258D02*
X16028572Y17255258D01*
X16028572Y17255258D02*
X15914286Y17198115D01*
X15914286Y17198115D02*
X15857144Y17083829D01*
X15857144Y17083829D02*
X15857144Y16455258D01*
X14428572Y17540972D02*
X14371429Y17598115D01*
X14371429Y17598115D02*
X14257144Y17655258D01*
X14257144Y17655258D02*
X13971429Y17655258D01*
X13971429Y17655258D02*
X13857144Y17598115D01*
X13857144Y17598115D02*
X13800001Y17540972D01*
X13800001Y17540972D02*
X13742858Y17426686D01*
X13742858Y17426686D02*
X13742858Y17312400D01*
X13742858Y17312400D02*
X13800001Y17140972D01*
X13800001Y17140972D02*
X14485715Y16455258D01*
X14485715Y16455258D02*
X13742858Y16455258D01*
X13000001Y17655258D02*
X12885715Y17655258D01*
X12885715Y17655258D02*
X12771429Y17598115D01*
X12771429Y17598115D02*
X12714287Y17540972D01*
X12714287Y17540972D02*
X12657144Y17426686D01*
X12657144Y17426686D02*
X12600001Y17198115D01*
X12600001Y17198115D02*
X12600001Y16912400D01*
X12600001Y16912400D02*
X12657144Y16683829D01*
X12657144Y16683829D02*
X12714287Y16569543D01*
X12714287Y16569543D02*
X12771429Y16512400D01*
X12771429Y16512400D02*
X12885715Y16455258D01*
X12885715Y16455258D02*
X13000001Y16455258D01*
X13000001Y16455258D02*
X13114287Y16512400D01*
X13114287Y16512400D02*
X13171429Y16569543D01*
X13171429Y16569543D02*
X13228572Y16683829D01*
X13228572Y16683829D02*
X13285715Y16912400D01*
X13285715Y16912400D02*
X13285715Y17198115D01*
X13285715Y17198115D02*
X13228572Y17426686D01*
X13228572Y17426686D02*
X13171429Y17540972D01*
X13171429Y17540972D02*
X13114287Y17598115D01*
X13114287Y17598115D02*
X13000001Y17655258D01*
X12142858Y17540972D02*
X12085715Y17598115D01*
X12085715Y17598115D02*
X11971430Y17655258D01*
X11971430Y17655258D02*
X11685715Y17655258D01*
X11685715Y17655258D02*
X11571430Y17598115D01*
X11571430Y17598115D02*
X11514287Y17540972D01*
X11514287Y17540972D02*
X11457144Y17426686D01*
X11457144Y17426686D02*
X11457144Y17312400D01*
X11457144Y17312400D02*
X11514287Y17140972D01*
X11514287Y17140972D02*
X12200001Y16455258D01*
X12200001Y16455258D02*
X11457144Y16455258D01*
X10428573Y17655258D02*
X10657144Y17655258D01*
X10657144Y17655258D02*
X10771430Y17598115D01*
X10771430Y17598115D02*
X10828573Y17540972D01*
X10828573Y17540972D02*
X10942858Y17369543D01*
X10942858Y17369543D02*
X11000001Y17140972D01*
X11000001Y17140972D02*
X11000001Y16683829D01*
X11000001Y16683829D02*
X10942858Y16569543D01*
X10942858Y16569543D02*
X10885715Y16512400D01*
X10885715Y16512400D02*
X10771430Y16455258D01*
X10771430Y16455258D02*
X10542858Y16455258D01*
X10542858Y16455258D02*
X10428573Y16512400D01*
X10428573Y16512400D02*
X10371430Y16569543D01*
X10371430Y16569543D02*
X10314287Y16683829D01*
X10314287Y16683829D02*
X10314287Y16969543D01*
X10314287Y16969543D02*
X10371430Y17083829D01*
X10371430Y17083829D02*
X10428573Y17140972D01*
X10428573Y17140972D02*
X10542858Y17198115D01*
X10542858Y17198115D02*
X10771430Y17198115D01*
X10771430Y17198115D02*
X10885715Y17140972D01*
X10885715Y17140972D02*
X10942858Y17083829D01*
X10942858Y17083829D02*
X11000001Y16969543D01*
X34257142Y14169543D02*
X34314285Y14112400D01*
X34314285Y14112400D02*
X34485713Y14055258D01*
X34485713Y14055258D02*
X34599999Y14055258D01*
X34599999Y14055258D02*
X34771428Y14112400D01*
X34771428Y14112400D02*
X34885713Y14226686D01*
X34885713Y14226686D02*
X34942856Y14340972D01*
X34942856Y14340972D02*
X34999999Y14569543D01*
X34999999Y14569543D02*
X34999999Y14740972D01*
X34999999Y14740972D02*
X34942856Y14969543D01*
X34942856Y14969543D02*
X34885713Y15083829D01*
X34885713Y15083829D02*
X34771428Y15198115D01*
X34771428Y15198115D02*
X34599999Y15255258D01*
X34599999Y15255258D02*
X34485713Y15255258D01*
X34485713Y15255258D02*
X34314285Y15198115D01*
X34314285Y15198115D02*
X34257142Y15140972D01*
X33799999Y14398115D02*
X33228571Y14398115D01*
X33914285Y14055258D02*
X33514285Y15255258D01*
X33514285Y15255258D02*
X33114285Y14055258D01*
X32714285Y14055258D02*
X32714285Y15255258D01*
X32714285Y15255258D02*
X32028571Y14055258D01*
X32028571Y14055258D02*
X32028571Y15255258D01*
X31057142Y14683829D02*
X31457142Y14683829D01*
X31457142Y14055258D02*
X31457142Y15255258D01*
X31457142Y15255258D02*
X30885714Y15255258D01*
X30428571Y14055258D02*
X30428571Y15255258D01*
X30428571Y15255258D02*
X30142857Y15255258D01*
X30142857Y15255258D02*
X29971428Y15198115D01*
X29971428Y15198115D02*
X29857143Y15083829D01*
X29857143Y15083829D02*
X29800000Y14969543D01*
X29800000Y14969543D02*
X29742857Y14740972D01*
X29742857Y14740972D02*
X29742857Y14569543D01*
X29742857Y14569543D02*
X29800000Y14340972D01*
X29800000Y14340972D02*
X29857143Y14226686D01*
X29857143Y14226686D02*
X29971428Y14112400D01*
X29971428Y14112400D02*
X30142857Y14055258D01*
X30142857Y14055258D02*
X30428571Y14055258D01*
X29228571Y14512400D02*
X28314286Y14512400D01*
X27742857Y14055258D02*
X27742857Y15255258D01*
X27742857Y15255258D02*
X27342857Y14398115D01*
X27342857Y14398115D02*
X26942857Y15255258D01*
X26942857Y15255258D02*
X26942857Y14055258D01*
X25685714Y14169543D02*
X25742857Y14112400D01*
X25742857Y14112400D02*
X25914285Y14055258D01*
X25914285Y14055258D02*
X26028571Y14055258D01*
X26028571Y14055258D02*
X26200000Y14112400D01*
X26200000Y14112400D02*
X26314285Y14226686D01*
X26314285Y14226686D02*
X26371428Y14340972D01*
X26371428Y14340972D02*
X26428571Y14569543D01*
X26428571Y14569543D02*
X26428571Y14740972D01*
X26428571Y14740972D02*
X26371428Y14969543D01*
X26371428Y14969543D02*
X26314285Y15083829D01*
X26314285Y15083829D02*
X26200000Y15198115D01*
X26200000Y15198115D02*
X26028571Y15255258D01*
X26028571Y15255258D02*
X25914285Y15255258D01*
X25914285Y15255258D02*
X25742857Y15198115D01*
X25742857Y15198115D02*
X25685714Y15140972D01*
X24371428Y14855258D02*
X24085714Y14055258D01*
X24085714Y14055258D02*
X23799999Y14855258D01*
X22714285Y14055258D02*
X23399999Y14055258D01*
X23057142Y14055258D02*
X23057142Y15255258D01*
X23057142Y15255258D02*
X23171428Y15083829D01*
X23171428Y15083829D02*
X23285713Y14969543D01*
X23285713Y14969543D02*
X23399999Y14912400D01*
X22199999Y14169543D02*
X22142856Y14112400D01*
X22142856Y14112400D02*
X22199999Y14055258D01*
X22199999Y14055258D02*
X22257142Y14112400D01*
X22257142Y14112400D02*
X22199999Y14169543D01*
X22199999Y14169543D02*
X22199999Y14055258D01*
X20999999Y14055258D02*
X21685713Y14055258D01*
X21342856Y14055258D02*
X21342856Y15255258D01*
X21342856Y15255258D02*
X21457142Y15083829D01*
X21457142Y15083829D02*
X21571427Y14969543D01*
X21571427Y14969543D02*
X21685713Y14912400D01*
D10*
X37563855Y12590477D02*
X37563855Y12095239D01*
X37563855Y12095239D02*
X37868617Y12361905D01*
X37868617Y12361905D02*
X37868617Y12247620D01*
X37868617Y12247620D02*
X37906712Y12171429D01*
X37906712Y12171429D02*
X37944807Y12133334D01*
X37944807Y12133334D02*
X38020998Y12095239D01*
X38020998Y12095239D02*
X38211474Y12095239D01*
X38211474Y12095239D02*
X38287664Y12133334D01*
X38287664Y12133334D02*
X38325760Y12171429D01*
X38325760Y12171429D02*
X38363855Y12247620D01*
X38363855Y12247620D02*
X38363855Y12476191D01*
X38363855Y12476191D02*
X38325760Y12552382D01*
X38325760Y12552382D02*
X38287664Y12590477D01*
X37563855Y11866667D02*
X38363855Y11600000D01*
X38363855Y11600000D02*
X37563855Y11333334D01*
X37563855Y11142858D02*
X37563855Y10647620D01*
X37563855Y10647620D02*
X37868617Y10914286D01*
X37868617Y10914286D02*
X37868617Y10800001D01*
X37868617Y10800001D02*
X37906712Y10723810D01*
X37906712Y10723810D02*
X37944807Y10685715D01*
X37944807Y10685715D02*
X38020998Y10647620D01*
X38020998Y10647620D02*
X38211474Y10647620D01*
X38211474Y10647620D02*
X38287664Y10685715D01*
X38287664Y10685715D02*
X38325760Y10723810D01*
X38325760Y10723810D02*
X38363855Y10800001D01*
X38363855Y10800001D02*
X38363855Y11028572D01*
X38363855Y11028572D02*
X38325760Y11104763D01*
X38325760Y11104763D02*
X38287664Y11142858D01*
X43563855Y23476190D02*
X44363855Y23209523D01*
X44363855Y23209523D02*
X43563855Y22942857D01*
X44363855Y22676190D02*
X43563855Y22676190D01*
X44363855Y22295238D02*
X43563855Y22295238D01*
X43563855Y22295238D02*
X44363855Y21838095D01*
X44363855Y21838095D02*
X43563855Y21838095D01*
G04 #@! TO.C,J1*
X120000Y27880000D02*
X120000Y26500000D01*
X1500000Y27880000D02*
X120000Y27880000D01*
X2770000Y27880000D02*
X2770000Y25120000D01*
X2770000Y27880000D02*
X18120000Y27880000D01*
X2770000Y25120000D02*
X18120000Y25120000D01*
X18120000Y27880000D02*
X18120000Y25120000D01*
G04 #@! TO.C,TP1*
X36620000Y7730000D02*
X36620000Y7620000D01*
X39380000Y10380000D02*
X38000000Y10380000D01*
X39380000Y9000000D02*
X39380000Y10380000D01*
X39380000Y7730000D02*
X36620000Y7730000D01*
X39380000Y7730000D02*
X39380000Y7620000D01*
X39380000Y7620000D02*
X36620000Y7620000D01*
G04 #@! TO.C,TP2*
X42620000Y18730000D02*
X42620000Y18620000D01*
X45380000Y21380000D02*
X44000000Y21380000D01*
X45380000Y20000000D02*
X45380000Y21380000D01*
X45380000Y18730000D02*
X42620000Y18730000D01*
X45380000Y18730000D02*
X45380000Y18620000D01*
X45380000Y18620000D02*
X42620000Y18620000D01*
G04 #@! TD*
%LPC*%
D12*
G04 #@! TO.C,P1*
X43500000Y1700000D03*
D13*
X43500000Y4700000D03*
G04 #@! TD*
D12*
G04 #@! TO.C,P4*
X23400000Y2400000D03*
D14*
X23400000Y5400000D03*
G04 #@! TD*
D12*
G04 #@! TO.C,P3*
X32700000Y2700000D03*
D14*
X32700000Y5700000D03*
G04 #@! TD*
D12*
G04 #@! TO.C,P2*
X38000000Y1700000D03*
D13*
X38000000Y4700000D03*
G04 #@! TD*
D15*
G04 #@! TO.C,J1*
X1500000Y26500000D03*
D16*
X4040000Y26500000D03*
X6580000Y26500000D03*
X9120000Y26500000D03*
X11660000Y26500000D03*
X14200000Y26500000D03*
X16740000Y26500000D03*
G04 #@! TD*
D15*
G04 #@! TO.C,TP1*
X38000000Y9000000D03*
G04 #@! TD*
G04 #@! TO.C,TP2*
X44000000Y20000000D03*
G04 #@! TD*
%LPD*%
M02*
