G04 #@! TF.GenerationSoftware,KiCad,Pcbnew,10.0.6*
G04 #@! TF.CreationDate,2026-09-15T12:52:44+02:00*
G04 #@! TF.ProjectId,canfd-mc,63616e66-642d-46d6-932e-6b696361645f,1.0*
G04 #@! TF.SameCoordinates,Original*
G04 #@! TF.FileFunction,Legend,Top*
G04 #@! TF.FilePolarity,Positive*
%FSLAX46Y46*%
G04 Gerber Fmt 4.6, Leading zero omitted, Abs format (unit mm)*
G04 Created by KiCad (PCBNEW 10.0.6) date 2026-09-15 12:52:44*
%MOMM*%
%LPD*%
G01*
G04 APERTURE LIST*
G04 Aperture macros list*
%AMRoundRect*
0 Rectangle with rounded corners*
0 $1 Rounding radius*
0 $2 $3 $4 $5 $6 $7 $8 $9 X,Y pos of 4 corners*
0 Add a 4 corners polygon primitive as box body*
4,1,4,$2,$3,$4,$5,$6,$7,$8,$9,$2,$3,0*
0 Add four circle primitives for the rounded corners*
1,1,$1+$1,$2,$3*
1,1,$1+$1,$4,$5*
1,1,$1+$1,$6,$7*
1,1,$1+$1,$8,$9*
0 Add four rect primitives between the rounded corners*
20,1,$1+$1,$2,$3,$4,$5,0*
20,1,$1+$1,$4,$5,$6,$7,0*
20,1,$1+$1,$6,$7,$8,$9,0*
20,1,$1+$1,$8,$9,$2,$3,0*%
G04 Aperture macros list end*
%ADD10C,0.120000*%
%ADD11C,0.150000*%
%ADD12RoundRect,0.200000X-0.200000X-0.275000X0.200000X-0.275000X0.200000X0.275000X-0.200000X0.275000X0*%
%ADD13RoundRect,0.225000X0.225000X0.250000X-0.225000X0.250000X-0.225000X-0.250000X0.225000X-0.250000X0*%
%ADD14RoundRect,0.250000X-0.450000X-0.350000X0.450000X-0.350000X0.450000X0.350000X-0.450000X0.350000X0*%
%ADD15RoundRect,0.225000X-0.225000X-0.250000X0.225000X-0.250000X0.225000X0.250000X-0.225000X0.250000X0*%
%ADD16RoundRect,0.200000X0.200000X0.275000X-0.200000X0.275000X-0.200000X-0.275000X0.200000X-0.275000X0*%
%ADD17RoundRect,0.249999X-1.850001X0.450001X-1.850001X-0.450001X1.850001X-0.450001X1.850001X0.450001X0*%
%ADD18RoundRect,0.250000X-0.325000X-1.100000X0.325000X-1.100000X0.325000X1.100000X-0.325000X1.100000X0*%
%ADD19RoundRect,0.150000X-0.825000X-0.150000X0.825000X-0.150000X0.825000X0.150000X-0.825000X0.150000X0*%
%ADD20RoundRect,0.250000X0.650000X-1.000000X0.650000X1.000000X-0.650000X1.000000X-0.650000X-1.000000X0*%
%ADD21RoundRect,0.225000X0.250000X-0.225000X0.250000X0.225000X-0.250000X0.225000X-0.250000X-0.225000X0*%
%ADD22RoundRect,0.150000X-0.150000X0.587500X-0.150000X-0.587500X0.150000X-0.587500X0.150000X0.587500X0*%
%ADD23C,1.200000*%
%ADD24C,3.400000*%
%ADD25RoundRect,0.250000X0.900000X-1.000000X0.900000X1.000000X-0.900000X1.000000X-0.900000X-1.000000X0*%
%ADD26C,2.800000*%
%ADD27RoundRect,0.250000X0.450000X-0.262500X0.450000X0.262500X-0.450000X0.262500X-0.450000X-0.262500X0*%
%ADD28RoundRect,0.250000X-0.625000X0.375000X-0.625000X-0.375000X0.625000X-0.375000X0.625000X0.375000X0*%
%ADD29RoundRect,0.250000X-0.525000X0.325000X-0.525000X-0.325000X0.525000X-0.325000X0.525000X0.325000X0*%
%ADD30RoundRect,0.200000X0.275000X-0.200000X0.275000X0.200000X-0.275000X0.200000X-0.275000X-0.200000X0*%
%ADD31RoundRect,0.250000X-0.250000X-0.475000X0.250000X-0.475000X0.250000X0.475000X-0.250000X0.475000X0*%
%ADD32R,0.600000X1.550000*%
%ADD33R,3.100000X2.600000*%
%ADD34R,0.900000X1.500000*%
%ADD35R,1.500000X0.900000*%
%ADD36C,0.500000*%
%ADD37R,3.900000X3.900000*%
%ADD38RoundRect,0.250000X-1.100000X0.325000X-1.100000X-0.325000X1.100000X-0.325000X1.100000X0.325000X0*%
%ADD39RoundRect,0.250000X0.475000X-0.250000X0.475000X0.250000X-0.475000X0.250000X-0.475000X-0.250000X0*%
G04 APERTURE END LIST*
D10*
X45585714Y5136145D02*
X45852381Y4336145D01*
X45852381Y4336145D02*
X46119047Y5136145D01*
X46652380Y4755193D02*
X46766666Y4717098D01*
X46766666Y4717098D02*
X46804761Y4679002D01*
X46804761Y4679002D02*
X46842857Y4602812D01*
X46842857Y4602812D02*
X46842857Y4488526D01*
X46842857Y4488526D02*
X46804761Y4412336D01*
X46804761Y4412336D02*
X46766666Y4374240D01*
X46766666Y4374240D02*
X46690476Y4336145D01*
X46690476Y4336145D02*
X46385714Y4336145D01*
X46385714Y4336145D02*
X46385714Y5136145D01*
X46385714Y5136145D02*
X46652380Y5136145D01*
X46652380Y5136145D02*
X46728571Y5098050D01*
X46728571Y5098050D02*
X46766666Y5059955D01*
X46766666Y5059955D02*
X46804761Y4983764D01*
X46804761Y4983764D02*
X46804761Y4907574D01*
X46804761Y4907574D02*
X46766666Y4831383D01*
X46766666Y4831383D02*
X46728571Y4793288D01*
X46728571Y4793288D02*
X46652380Y4755193D01*
X46652380Y4755193D02*
X46385714Y4755193D01*
X47147618Y4564717D02*
X47528571Y4564717D01*
X47071428Y4336145D02*
X47338095Y5136145D01*
X47338095Y5136145D02*
X47604761Y4336145D01*
X47757142Y5136145D02*
X48214285Y5136145D01*
X47985713Y4336145D02*
X47985713Y5136145D01*
X22561905Y8012336D02*
X22523809Y7974240D01*
X22523809Y7974240D02*
X22409524Y7936145D01*
X22409524Y7936145D02*
X22333333Y7936145D01*
X22333333Y7936145D02*
X22219047Y7974240D01*
X22219047Y7974240D02*
X22142857Y8050431D01*
X22142857Y8050431D02*
X22104762Y8126621D01*
X22104762Y8126621D02*
X22066666Y8279002D01*
X22066666Y8279002D02*
X22066666Y8393288D01*
X22066666Y8393288D02*
X22104762Y8545669D01*
X22104762Y8545669D02*
X22142857Y8621860D01*
X22142857Y8621860D02*
X22219047Y8698050D01*
X22219047Y8698050D02*
X22333333Y8736145D01*
X22333333Y8736145D02*
X22409524Y8736145D01*
X22409524Y8736145D02*
X22523809Y8698050D01*
X22523809Y8698050D02*
X22561905Y8659955D01*
X22866666Y8164717D02*
X23247619Y8164717D01*
X22790476Y7936145D02*
X23057143Y8736145D01*
X23057143Y8736145D02*
X23323809Y7936145D01*
X23590476Y7936145D02*
X23590476Y8736145D01*
X23590476Y8736145D02*
X24047619Y7936145D01*
X24047619Y7936145D02*
X24047619Y8736145D01*
X24809523Y7936145D02*
X24428571Y7936145D01*
X24428571Y7936145D02*
X24428571Y8736145D01*
X28566667Y5412336D02*
X28528571Y5374240D01*
X28528571Y5374240D02*
X28414286Y5336145D01*
X28414286Y5336145D02*
X28338095Y5336145D01*
X28338095Y5336145D02*
X28223809Y5374240D01*
X28223809Y5374240D02*
X28147619Y5450431D01*
X28147619Y5450431D02*
X28109524Y5526621D01*
X28109524Y5526621D02*
X28071428Y5679002D01*
X28071428Y5679002D02*
X28071428Y5793288D01*
X28071428Y5793288D02*
X28109524Y5945669D01*
X28109524Y5945669D02*
X28147619Y6021860D01*
X28147619Y6021860D02*
X28223809Y6098050D01*
X28223809Y6098050D02*
X28338095Y6136145D01*
X28338095Y6136145D02*
X28414286Y6136145D01*
X28414286Y6136145D02*
X28528571Y6098050D01*
X28528571Y6098050D02*
X28566667Y6059955D01*
X28871428Y5564717D02*
X29252381Y5564717D01*
X28795238Y5336145D02*
X29061905Y6136145D01*
X29061905Y6136145D02*
X29328571Y5336145D01*
X29595238Y5336145D02*
X29595238Y6136145D01*
X29595238Y6136145D02*
X30052381Y5336145D01*
X30052381Y5336145D02*
X30052381Y6136145D01*
X30433333Y5336145D02*
X30433333Y6136145D01*
X30433333Y5755193D02*
X30890476Y5755193D01*
X30890476Y5336145D02*
X30890476Y6136145D01*
X37390476Y7898050D02*
X37314286Y7936145D01*
X37314286Y7936145D02*
X37200000Y7936145D01*
X37200000Y7936145D02*
X37085714Y7898050D01*
X37085714Y7898050D02*
X37009524Y7821860D01*
X37009524Y7821860D02*
X36971429Y7745669D01*
X36971429Y7745669D02*
X36933333Y7593288D01*
X36933333Y7593288D02*
X36933333Y7479002D01*
X36933333Y7479002D02*
X36971429Y7326621D01*
X36971429Y7326621D02*
X37009524Y7250431D01*
X37009524Y7250431D02*
X37085714Y7174240D01*
X37085714Y7174240D02*
X37200000Y7136145D01*
X37200000Y7136145D02*
X37276191Y7136145D01*
X37276191Y7136145D02*
X37390476Y7174240D01*
X37390476Y7174240D02*
X37428572Y7212336D01*
X37428572Y7212336D02*
X37428572Y7479002D01*
X37428572Y7479002D02*
X37276191Y7479002D01*
X37771429Y7136145D02*
X37771429Y7936145D01*
X37771429Y7936145D02*
X38228572Y7136145D01*
X38228572Y7136145D02*
X38228572Y7936145D01*
X38609524Y7136145D02*
X38609524Y7936145D01*
X38609524Y7936145D02*
X38800000Y7936145D01*
X38800000Y7936145D02*
X38914286Y7898050D01*
X38914286Y7898050D02*
X38990476Y7821860D01*
X38990476Y7821860D02*
X39028571Y7745669D01*
X39028571Y7745669D02*
X39066667Y7593288D01*
X39066667Y7593288D02*
X39066667Y7479002D01*
X39066667Y7479002D02*
X39028571Y7326621D01*
X39028571Y7326621D02*
X38990476Y7250431D01*
X38990476Y7250431D02*
X38914286Y7174240D01*
X38914286Y7174240D02*
X38800000Y7136145D01*
X38800000Y7136145D02*
X38609524Y7136145D01*
G04 #@! TO.C,R4*
X43462742Y10722500D02*
X43937258Y10722500D01*
X43462742Y9677500D02*
X43937258Y9677500D01*
G04 #@! TO.C,C11*
X26140580Y28210000D02*
X25859420Y28210000D01*
X26140580Y27190000D02*
X25859420Y27190000D01*
G04 #@! TO.C,R5*
X43462742Y13922500D02*
X43937258Y13922500D01*
X43462742Y12877500D02*
X43937258Y12877500D01*
G04 #@! TO.C,X1*
X23440000Y26610000D02*
X23440000Y23190000D01*
X23440000Y23190000D02*
X27560000Y23190000D01*
G04 #@! TO.C,C5*
X52459420Y7560000D02*
X52740580Y7560000D01*
X52459420Y6540000D02*
X52740580Y6540000D01*
G04 #@! TO.C,C17*
X23865580Y17810000D02*
X23584420Y17810000D01*
X23865580Y16790000D02*
X23584420Y16790000D01*
G04 #@! TO.C,R7*
X16137258Y2522500D02*
X15662742Y2522500D01*
X16137258Y1477500D02*
X15662742Y1477500D01*
G04 #@! TO.C,L2*
X49090000Y6010000D02*
X49340000Y6010000D01*
X49090000Y790000D02*
X49090000Y6010000D01*
X49340000Y790000D02*
X49090000Y790000D01*
X54060000Y6010000D02*
X54310000Y6010000D01*
X54310000Y6010000D02*
X54310000Y790000D01*
X54310000Y790000D02*
X54060000Y790000D01*
G04 #@! TO.C,C19*
X13040580Y2510000D02*
X12759420Y2510000D01*
X13040580Y1490000D02*
X12759420Y1490000D01*
G04 #@! TO.C,C1*
X51488748Y18460000D02*
X52911252Y18460000D01*
X51488748Y15740000D02*
X52911252Y15740000D01*
G04 #@! TO.C,U2*
X29415000Y31165000D02*
X33535000Y31165000D01*
X29415000Y31100000D02*
X29415000Y31165000D01*
X29415000Y22295000D02*
X29415000Y22360000D01*
X33535000Y31165000D02*
X33535000Y31100000D01*
X33535000Y22360000D02*
X33535000Y22295000D01*
X33535000Y22295000D02*
X29415000Y22295000D01*
X28875000Y31100000D02*
X28635000Y31430000D01*
X29115000Y31430000D01*
X28875000Y31100000D01*
G36*
X28875000Y31100000D02*
G01*
X28635000Y31430000D01*
X29115000Y31430000D01*
X28875000Y31100000D01*
G37*
G04 #@! TO.C,D1*
X50850000Y19040000D02*
X50850000Y24550000D01*
X50850000Y19040000D02*
X54150000Y19040000D01*
X54150000Y19040000D02*
X54150000Y24550000D01*
G04 #@! TO.C,CT1*
X25240000Y8359420D02*
X25240000Y8640580D01*
X26260000Y8359420D02*
X26260000Y8640580D01*
G04 #@! TO.C,R1*
X47037258Y13922500D02*
X46562742Y13922500D01*
X47037258Y12877500D02*
X46562742Y12877500D01*
G04 #@! TO.C,C18*
X23634420Y19610000D02*
X23915580Y19610000D01*
X23634420Y18590000D02*
X23915580Y18590000D01*
G04 #@! TO.C,C7*
X46659420Y10710000D02*
X46940580Y10710000D01*
X46659420Y9690000D02*
X46940580Y9690000D01*
G04 #@! TO.C,C14*
X2659420Y2510000D02*
X2940580Y2510000D01*
X2659420Y1490000D02*
X2940580Y1490000D01*
G04 #@! TO.C,D3*
X27380000Y9260000D02*
X27430000Y9260000D01*
X27380000Y7740000D02*
X27380000Y9260000D01*
X28380000Y7740000D02*
X27380000Y7740000D01*
X28550000Y9260000D02*
X29330000Y9260000D01*
X30450000Y9260000D02*
X30500000Y9260000D01*
X30500000Y9260000D02*
X30500000Y7740000D01*
X30500000Y7740000D02*
X29500000Y7740000D01*
X29320000Y9800000D02*
X28990000Y9560000D01*
X28990000Y10040000D01*
X29320000Y9800000D01*
G36*
X29320000Y9800000D02*
G01*
X28990000Y9560000D01*
X28990000Y10040000D01*
X29320000Y9800000D01*
G37*
G04 #@! TO.C,R8*
X16262742Y25022500D02*
X16737258Y25022500D01*
X16262742Y23977500D02*
X16737258Y23977500D01*
G04 #@! TO.C,P1*
X43500000Y2700000D02*
X43500000Y2600000D01*
G04 #@! TO.C,D2*
X46150000Y18890000D02*
X46150000Y24700000D01*
X46150000Y18890000D02*
X50450000Y18890000D01*
X50450000Y18890000D02*
X50450000Y24700000D01*
G04 #@! TO.C,P4*
X23400000Y3700000D02*
X23400000Y3300000D01*
G04 #@! TO.C,U4*
X26940000Y21560000D02*
X31060000Y21560000D01*
X26940000Y21465000D02*
X26940000Y21560000D01*
X26940000Y16440000D02*
X26940000Y16535000D01*
X31060000Y21560000D02*
X31060000Y21465000D01*
X31060000Y16535000D02*
X31060000Y16440000D01*
X31060000Y16440000D02*
X26940000Y16440000D01*
X26400000Y21470000D02*
X26160000Y21800000D01*
X26640000Y21800000D01*
X26400000Y21470000D01*
G36*
X26400000Y21470000D02*
G01*
X26160000Y21800000D01*
X26640000Y21800000D01*
X26400000Y21470000D01*
G37*
G04 #@! TO.C,P3*
X32700000Y4000000D02*
X32700000Y3600000D01*
G04 #@! TO.C,RT1*
X31265000Y9472936D02*
X31265000Y9927064D01*
X32735000Y9472936D02*
X32735000Y9927064D01*
G04 #@! TO.C,F1*
X52390000Y29102064D02*
X52390000Y27897936D01*
X54210000Y29102064D02*
X54210000Y27897936D01*
G04 #@! TO.C,L1*
X26340000Y10840000D02*
X26340000Y15560000D01*
X30660000Y15560000D02*
X30660000Y10840000D01*
X29630000Y15860000D02*
X29390000Y16190000D01*
X29870000Y16190000D01*
X29630000Y15860000D01*
G36*
X29630000Y15860000D02*
G01*
X29390000Y16190000D01*
X29870000Y16190000D01*
X29630000Y15860000D01*
G37*
G04 #@! TO.C,R9*
X20377500Y1762742D02*
X20377500Y2237258D01*
X21422500Y1762742D02*
X21422500Y2237258D01*
G04 #@! TO.C,C12*
X9338748Y2735000D02*
X9861252Y2735000D01*
X9338748Y1265000D02*
X9861252Y1265000D01*
G04 #@! TO.C,RT2*
X23265000Y10372936D02*
X23265000Y10827064D01*
X24735000Y10372936D02*
X24735000Y10827064D01*
G04 #@! TO.C,R2*
X46562742Y9122500D02*
X47037258Y9122500D01*
X46562742Y8077500D02*
X47037258Y8077500D01*
G04 #@! TO.C,R3*
X47037258Y7522500D02*
X46562742Y7522500D01*
X47037258Y6477500D02*
X46562742Y6477500D01*
G04 #@! TO.C,C6*
X43559420Y9110000D02*
X43840580Y9110000D01*
X43559420Y8090000D02*
X43840580Y8090000D01*
G04 #@! TO.C,C10*
X22090000Y21659420D02*
X22090000Y21940580D01*
X23110000Y21659420D02*
X23110000Y21940580D01*
G04 #@! TO.C,R6*
X46562742Y12322500D02*
X47037258Y12322500D01*
X46562742Y11277500D02*
X47037258Y11277500D01*
G04 #@! TO.C,C16*
X36659420Y30910000D02*
X36940580Y30910000D01*
X36659420Y29890000D02*
X36940580Y29890000D01*
G04 #@! TO.C,U3*
D11*
X48725000Y13675000D02*
X48725000Y9525000D01*
X53875000Y13675000D02*
X53875000Y9525000D01*
D10*
X53800000Y14100000D02*
X54130000Y14340000D01*
X54130000Y13860000D01*
X53800000Y14100000D01*
G36*
X54130000Y13860000D02*
G01*
X53800000Y14100000D01*
X54130000Y14340000D01*
X54130000Y13860000D01*
G37*
G04 #@! TO.C,U1*
X990000Y22804394D02*
X1690000Y22804394D01*
X990000Y4404394D02*
X990000Y22804394D01*
X19590000Y4404394D02*
X20590000Y4404394D01*
X20590000Y22804394D02*
X19590000Y22804394D01*
X20590000Y22804394D02*
X20590000Y21304394D01*
X20590000Y4404394D02*
X20590000Y5904394D01*
X1740000Y4404394D02*
X1740000Y3904394D01*
X1240000Y4404394D01*
X1740000Y4404394D01*
G36*
X1740000Y3904394D02*
G01*
X1240000Y4404394D01*
X1740000Y4404394D01*
X1740000Y3904394D01*
G37*
G04 #@! TO.C,C2*
X45240000Y17211252D02*
X45240000Y15788748D01*
X47960000Y17211252D02*
X47960000Y15788748D01*
G04 #@! TO.C,C3*
X40265000Y8238748D02*
X40265000Y8761252D01*
X41735000Y8238748D02*
X41735000Y8761252D01*
G04 #@! TO.C,C13*
X5838748Y2735000D02*
X6361252Y2735000D01*
X5838748Y1265000D02*
X6361252Y1265000D01*
G04 #@! TO.C,P2*
X38000000Y2700000D02*
X38000000Y2600000D01*
G04 #@! TO.C,C4*
X47165000Y2238748D02*
X47165000Y2761252D01*
X48635000Y2238748D02*
X48635000Y2761252D01*
G04 #@! TO.C,C15*
X39759420Y30910000D02*
X40040580Y30910000D01*
X39759420Y29890000D02*
X40040580Y29890000D01*
G04 #@! TD*
%LPC*%
D12*
G04 #@! TO.C,R4*
X42875000Y10200000D03*
X44525000Y10200000D03*
G04 #@! TD*
D13*
G04 #@! TO.C,C11*
X26775000Y27700000D03*
X25225000Y27700000D03*
G04 #@! TD*
D12*
G04 #@! TO.C,R5*
X42875000Y13400000D03*
X44525000Y13400000D03*
G04 #@! TD*
D14*
G04 #@! TO.C,X1*
X24400000Y24050000D03*
X26600000Y24050000D03*
X26600000Y25750000D03*
X24400000Y25750000D03*
G04 #@! TD*
D15*
G04 #@! TO.C,C5*
X51825000Y7050000D03*
X53375000Y7050000D03*
G04 #@! TD*
D13*
G04 #@! TO.C,C17*
X24500000Y17300000D03*
X22950000Y17300000D03*
G04 #@! TD*
D16*
G04 #@! TO.C,R7*
X16725000Y2000000D03*
X15075000Y2000000D03*
G04 #@! TD*
D17*
G04 #@! TO.C,L2*
X51700000Y5250000D03*
X51700000Y1550000D03*
G04 #@! TD*
D13*
G04 #@! TO.C,C19*
X13675000Y2000000D03*
X12125000Y2000000D03*
G04 #@! TD*
D18*
G04 #@! TO.C,C1*
X50725000Y17100000D03*
X53675000Y17100000D03*
G04 #@! TD*
D19*
G04 #@! TO.C,U2*
X29000000Y30540000D03*
X29000000Y29270000D03*
X29000000Y28000000D03*
X29000000Y26730000D03*
X29000000Y25460000D03*
X29000000Y24190000D03*
X29000000Y22920000D03*
X33950000Y22920000D03*
X33950000Y24190000D03*
X33950000Y25460000D03*
X33950000Y26730000D03*
X33950000Y28000000D03*
X33950000Y29270000D03*
X33950000Y30540000D03*
G04 #@! TD*
D20*
G04 #@! TO.C,D1*
X52500000Y20550000D03*
X52500000Y24550000D03*
G04 #@! TD*
D21*
G04 #@! TO.C,CT1*
X25750000Y7725000D03*
X25750000Y9275000D03*
G04 #@! TD*
D16*
G04 #@! TO.C,R1*
X47625000Y13400000D03*
X45975000Y13400000D03*
G04 #@! TD*
D15*
G04 #@! TO.C,C18*
X23000000Y19100000D03*
X24550000Y19100000D03*
G04 #@! TD*
G04 #@! TO.C,C7*
X46025000Y10200000D03*
X47575000Y10200000D03*
G04 #@! TD*
G04 #@! TO.C,C14*
X2025000Y2000000D03*
X3575000Y2000000D03*
G04 #@! TD*
D22*
G04 #@! TO.C,D3*
X29890000Y9437500D03*
X27990000Y9437500D03*
X28940000Y7562500D03*
G04 #@! TD*
D12*
G04 #@! TO.C,R8*
X15675000Y24500000D03*
X17325000Y24500000D03*
G04 #@! TD*
D23*
G04 #@! TO.C,P1*
X43500000Y1700000D03*
D24*
X43500000Y4700000D03*
G04 #@! TD*
D25*
G04 #@! TO.C,D2*
X48300000Y20400000D03*
X48300000Y24700000D03*
G04 #@! TD*
D23*
G04 #@! TO.C,P4*
X23400000Y2400000D03*
D26*
X23400000Y5400000D03*
G04 #@! TD*
D19*
G04 #@! TO.C,U4*
X26525000Y20905000D03*
X26525000Y19635000D03*
X26525000Y18365000D03*
X26525000Y17095000D03*
X31475000Y17095000D03*
X31475000Y18365000D03*
X31475000Y19635000D03*
X31475000Y20905000D03*
G04 #@! TD*
D23*
G04 #@! TO.C,P3*
X32700000Y2700000D03*
D26*
X32700000Y5700000D03*
G04 #@! TD*
D27*
G04 #@! TO.C,RT1*
X32000000Y8787500D03*
X32000000Y10612500D03*
G04 #@! TD*
D28*
G04 #@! TO.C,F1*
X53300000Y29900000D03*
X53300000Y27100000D03*
G04 #@! TD*
D29*
G04 #@! TO.C,L1*
X29625000Y15025000D03*
X29625000Y11375000D03*
X27375000Y11375000D03*
X27375000Y15025000D03*
G04 #@! TD*
D30*
G04 #@! TO.C,R9*
X20900000Y1175000D03*
X20900000Y2825000D03*
G04 #@! TD*
D31*
G04 #@! TO.C,C12*
X8650000Y2000000D03*
X10550000Y2000000D03*
G04 #@! TD*
D27*
G04 #@! TO.C,RT2*
X24000000Y9687500D03*
X24000000Y11512500D03*
G04 #@! TD*
D12*
G04 #@! TO.C,R2*
X45975000Y8600000D03*
X47625000Y8600000D03*
G04 #@! TD*
D16*
G04 #@! TO.C,R3*
X47625000Y7000000D03*
X45975000Y7000000D03*
G04 #@! TD*
D15*
G04 #@! TO.C,C6*
X42925000Y8600000D03*
X44475000Y8600000D03*
G04 #@! TD*
D21*
G04 #@! TO.C,C10*
X22600000Y21025000D03*
X22600000Y22575000D03*
G04 #@! TD*
D12*
G04 #@! TO.C,R6*
X45975000Y11800000D03*
X47625000Y11800000D03*
G04 #@! TD*
D15*
G04 #@! TO.C,C16*
X36025000Y30400000D03*
X37575000Y30400000D03*
G04 #@! TD*
D32*
G04 #@! TO.C,U3*
X53205000Y14300000D03*
X51935000Y14300000D03*
X50665000Y14300000D03*
X49395000Y14300000D03*
X49395000Y8900000D03*
X50665000Y8900000D03*
X51935000Y8900000D03*
X53205000Y8900000D03*
D33*
X51300000Y11600000D03*
G04 #@! TD*
D34*
G04 #@! TO.C,U1*
X2380000Y4854394D03*
X3650000Y4854394D03*
X4920000Y4854394D03*
X6190000Y4854394D03*
X7460000Y4854394D03*
X8730000Y4854394D03*
X10000000Y4854394D03*
X11270000Y4854394D03*
X12540000Y4854394D03*
X13810000Y4854394D03*
X15080000Y4854394D03*
X16350000Y4854394D03*
X17620000Y4854394D03*
X18890000Y4854394D03*
D35*
X20140000Y6619394D03*
X20140000Y7889394D03*
X20140000Y9159394D03*
X20140000Y10429394D03*
X20140000Y11699394D03*
X20140000Y12969394D03*
X20140000Y14239394D03*
X20140000Y15509394D03*
X20140000Y16779394D03*
X20140000Y18049394D03*
X20140000Y19319394D03*
X20140000Y20589394D03*
D34*
X18890000Y22354394D03*
X17620000Y22354394D03*
X16350000Y22354394D03*
X15080000Y22354394D03*
X13810000Y22354394D03*
X12540000Y22354394D03*
X11270000Y22354394D03*
X10000000Y22354394D03*
X8730000Y22354394D03*
X7460000Y22354394D03*
X6190000Y22354394D03*
X4920000Y22354394D03*
X3650000Y22354394D03*
X2380000Y22354394D03*
D36*
X9400000Y10704394D03*
X10800000Y10704394D03*
X8700000Y11404394D03*
X10100000Y11404394D03*
X11500000Y11404394D03*
X9400000Y12104394D03*
D37*
X10100000Y12104394D03*
D36*
X10800000Y12104394D03*
X8700000Y12804394D03*
X10100000Y12804394D03*
X11500000Y12804394D03*
X9400000Y13504394D03*
X10800000Y13504394D03*
G04 #@! TD*
D38*
G04 #@! TO.C,C2*
X46600000Y17975000D03*
X46600000Y15025000D03*
G04 #@! TD*
D39*
G04 #@! TO.C,C3*
X41000000Y7550000D03*
X41000000Y9450000D03*
G04 #@! TD*
D31*
G04 #@! TO.C,C13*
X5150000Y2000000D03*
X7050000Y2000000D03*
G04 #@! TD*
D23*
G04 #@! TO.C,P2*
X38000000Y1700000D03*
D24*
X38000000Y4700000D03*
G04 #@! TD*
D39*
G04 #@! TO.C,C4*
X47900000Y1550000D03*
X47900000Y3450000D03*
G04 #@! TD*
D15*
G04 #@! TO.C,C15*
X39125000Y30400000D03*
X40675000Y30400000D03*
G04 #@! TD*
%LPD*%
M02*
