M48
; DRILL file KiCad 10.0.6 date 2026-09-16T08:03:41
; FORMAT={-:-/ absolute / metric / decimal}
; #@! TF.CreationDate,2026-09-16T08:03:41+02:00
; #@! TF.GenerationSoftware,Kicad,Pcbnew,10.0.6
; #@! TF.FileFunction,Plated,1,4,PTH
FMAT,2
METRIC
; #@! TA.AperFunction,Plated,PTH,ViaDrill
T1C0.300
; #@! TA.AperFunction,Plated,PTH,ComponentDrill
T2C0.300
; #@! TA.AperFunction,Plated,PTH,ComponentDrill
T3C1.000
; #@! TA.AperFunction,Plated,PTH,ComponentDrill
T4C1.500
; #@! TA.AperFunction,Plated,PTH,ComponentDrill
T5C2.000
%
G90
G05
T1
X0.77Y2.0
X1.36Y23.42
X1.4Y3.7
X3.58Y0.75
X4.92Y3.4
X5.89Y0.72
X6.19Y24.0
X7.05Y0.75
X7.46Y24.0
X7.91Y0.72
X10.87Y2.0
X12.03Y2.0
X15.0Y23.7
X16.35Y3.4
X16.4Y23.6
X17.6Y1.1
X17.7Y2.5
X19.7Y3.5
X20.6Y2.8
X21.5Y14.7
X21.5Y12.97
X21.5Y9.16
X21.5Y6.62
X22.0Y1.15
X22.3Y18.3
X22.3Y14.5
X22.3Y11.0
X22.4Y17.3
X22.6Y23.9
X22.7Y28.4
X23.0Y12.7
X24.2Y27.4
X24.55Y18.5
X25.0Y20.1
X25.75Y7.7
X26.3Y9.3
X27.3Y22.1
X27.9Y30.7
X28.94Y6.17
X32.9Y10.65
X34.59Y31.23
X35.3Y30.5
X35.4Y28.0
X35.4Y26.73
X35.4Y25.46
X36.6Y23.8
X36.6Y22.5
X37.4Y25.5
X38.2Y29.31
X39.12Y29.15
X39.52Y7.55
X41.0Y10.93
X41.93Y30.4
X42.2Y10.2
X44.53Y15.03
X45.2Y6.1
X45.25Y12.55
X45.36Y14.46
X46.62Y0.81
X48.3Y27.0
X48.55Y15.65
X48.89Y1.55
X49.0Y6.0
X49.38Y3.45
X50.0Y1.0
X51.8Y29.9
X53.35Y15.92
X53.67Y15.03
T2
X8.7Y12.804
X8.7Y11.404
X9.4Y13.504
X9.4Y12.104
X9.4Y10.704
X10.1Y12.804
X10.1Y11.404
X10.8Y13.504
X10.8Y12.104
X10.8Y10.704
X11.5Y12.804
X11.5Y11.404
X49.5Y12.2
X49.5Y11.0
X50.6Y12.2
X50.6Y11.0
X51.9Y12.2
X51.9Y11.0
X53.1Y12.2
X53.1Y11.0
T3
X1.5Y26.5
X4.04Y26.5
X6.58Y26.5
X9.12Y26.5
X11.66Y26.5
X14.2Y26.5
X16.74Y26.5
X38.0Y9.0
X44.0Y20.0
T4
X23.4Y5.4
X32.7Y5.7
T5
X38.0Y4.7
X43.5Y4.7
M30
