G04 #@! TF.GenerationSoftware,KiCad,Pcbnew,10.0.6*
G04 #@! TF.CreationDate,2026-09-15T12:52:44+02:00*
G04 #@! TF.ProjectId,canfd-mc,63616e66-642d-46d6-932e-6b696361645f,1.0*
G04 #@! TF.SameCoordinates,Original*
G04 #@! TF.FileFunction,Legend,Bot*
G04 #@! TF.FilePolarity,Positive*
%FSLAX46Y46*%
G04 Gerber Fmt 4.6, Leading zero omitted, Abs format (unit mm)*
G04 Created by KiCad (PCBNEW 10.0.6) date 2026-09-15 12:52:44*
%MOMM*%
%LPD*%
G01*
G04 APERTURE LIST*
%ADD10C,0.120000*%
%ADD11C,0.200000*%
%ADD12C,1.200000*%
%ADD13C,3.400000*%
%ADD14C,2.800000*%
%ADD15C,1.500000*%
G04 APERTURE END LIST*
D10*
X31352380Y9655193D02*
X31238094Y9617098D01*
X31238094Y9617098D02*
X31199999Y9579002D01*
X31199999Y9579002D02*
X31161903Y9502812D01*
X31161903Y9502812D02*
X31161903Y9388526D01*
X31161903Y9388526D02*
X31199999Y9312336D01*
X31199999Y9312336D02*
X31238094Y9274240D01*
X31238094Y9274240D02*
X31314284Y9236145D01*
X31314284Y9236145D02*
X31619046Y9236145D01*
X31619046Y9236145D02*
X31619046Y10036145D01*
X31619046Y10036145D02*
X31352380Y10036145D01*
X31352380Y10036145D02*
X31276189Y9998050D01*
X31276189Y9998050D02*
X31238094Y9959955D01*
X31238094Y9959955D02*
X31199999Y9883764D01*
X31199999Y9883764D02*
X31199999Y9807574D01*
X31199999Y9807574D02*
X31238094Y9731383D01*
X31238094Y9731383D02*
X31276189Y9693288D01*
X31276189Y9693288D02*
X31352380Y9655193D01*
X31352380Y9655193D02*
X31619046Y9655193D01*
X30819046Y9655193D02*
X30552380Y9655193D01*
X30438094Y9236145D02*
X30819046Y9236145D01*
X30819046Y9236145D02*
X30819046Y10036145D01*
X30819046Y10036145D02*
X30438094Y10036145D01*
X30095236Y9236145D02*
X30095236Y10036145D01*
X30095236Y10036145D02*
X29638093Y9236145D01*
X29638093Y9236145D02*
X29638093Y10036145D01*
X28799998Y9312336D02*
X28838094Y9274240D01*
X28838094Y9274240D02*
X28952379Y9236145D01*
X28952379Y9236145D02*
X29028570Y9236145D01*
X29028570Y9236145D02*
X29142856Y9274240D01*
X29142856Y9274240D02*
X29219046Y9350431D01*
X29219046Y9350431D02*
X29257141Y9426621D01*
X29257141Y9426621D02*
X29295237Y9579002D01*
X29295237Y9579002D02*
X29295237Y9693288D01*
X29295237Y9693288D02*
X29257141Y9845669D01*
X29257141Y9845669D02*
X29219046Y9921860D01*
X29219046Y9921860D02*
X29142856Y9998050D01*
X29142856Y9998050D02*
X29028570Y10036145D01*
X29028570Y10036145D02*
X28952379Y10036145D01*
X28952379Y10036145D02*
X28838094Y9998050D01*
X28838094Y9998050D02*
X28799998Y9959955D01*
X28457141Y9236145D02*
X28457141Y10036145D01*
X28457141Y9655193D02*
X27999998Y9655193D01*
X27999998Y9236145D02*
X27999998Y10036145D01*
X26857141Y10036145D02*
X26704760Y10036145D01*
X26704760Y10036145D02*
X26628570Y9998050D01*
X26628570Y9998050D02*
X26552379Y9921860D01*
X26552379Y9921860D02*
X26514284Y9769479D01*
X26514284Y9769479D02*
X26514284Y9502812D01*
X26514284Y9502812D02*
X26552379Y9350431D01*
X26552379Y9350431D02*
X26628570Y9274240D01*
X26628570Y9274240D02*
X26704760Y9236145D01*
X26704760Y9236145D02*
X26857141Y9236145D01*
X26857141Y9236145D02*
X26933332Y9274240D01*
X26933332Y9274240D02*
X27009522Y9350431D01*
X27009522Y9350431D02*
X27047618Y9502812D01*
X27047618Y9502812D02*
X27047618Y9769479D01*
X27047618Y9769479D02*
X27009522Y9921860D01*
X27009522Y9921860D02*
X26933332Y9998050D01*
X26933332Y9998050D02*
X26857141Y10036145D01*
X26171427Y9236145D02*
X26171427Y10036145D01*
X26171427Y10036145D02*
X25714284Y9236145D01*
X25714284Y9236145D02*
X25714284Y10036145D01*
X24952380Y9236145D02*
X25333332Y9236145D01*
X25333332Y9236145D02*
X25333332Y10036145D01*
X24533332Y9617098D02*
X24533332Y9236145D01*
X24799999Y10036145D02*
X24533332Y9617098D01*
X24533332Y9617098D02*
X24266666Y10036145D01*
D11*
X45685711Y16512400D02*
X45514283Y16455258D01*
X45514283Y16455258D02*
X45228568Y16455258D01*
X45228568Y16455258D02*
X45114283Y16512400D01*
X45114283Y16512400D02*
X45057140Y16569543D01*
X45057140Y16569543D02*
X44999997Y16683829D01*
X44999997Y16683829D02*
X44999997Y16798115D01*
X44999997Y16798115D02*
X45057140Y16912400D01*
X45057140Y16912400D02*
X45114283Y16969543D01*
X45114283Y16969543D02*
X45228568Y17026686D01*
X45228568Y17026686D02*
X45457140Y17083829D01*
X45457140Y17083829D02*
X45571425Y17140972D01*
X45571425Y17140972D02*
X45628568Y17198115D01*
X45628568Y17198115D02*
X45685711Y17312400D01*
X45685711Y17312400D02*
X45685711Y17426686D01*
X45685711Y17426686D02*
X45628568Y17540972D01*
X45628568Y17540972D02*
X45571425Y17598115D01*
X45571425Y17598115D02*
X45457140Y17655258D01*
X45457140Y17655258D02*
X45171425Y17655258D01*
X45171425Y17655258D02*
X44999997Y17598115D01*
X44485711Y17255258D02*
X44485711Y16055258D01*
X44485711Y17198115D02*
X44371426Y17255258D01*
X44371426Y17255258D02*
X44142854Y17255258D01*
X44142854Y17255258D02*
X44028568Y17198115D01*
X44028568Y17198115D02*
X43971426Y17140972D01*
X43971426Y17140972D02*
X43914283Y17026686D01*
X43914283Y17026686D02*
X43914283Y16683829D01*
X43914283Y16683829D02*
X43971426Y16569543D01*
X43971426Y16569543D02*
X44028568Y16512400D01*
X44028568Y16512400D02*
X44142854Y16455258D01*
X44142854Y16455258D02*
X44371426Y16455258D01*
X44371426Y16455258D02*
X44485711Y16512400D01*
X43399997Y16455258D02*
X43399997Y17255258D01*
X43399997Y17026686D02*
X43342854Y17140972D01*
X43342854Y17140972D02*
X43285712Y17198115D01*
X43285712Y17198115D02*
X43171426Y17255258D01*
X43171426Y17255258D02*
X43057140Y17255258D01*
X42657140Y16455258D02*
X42657140Y17255258D01*
X42657140Y17655258D02*
X42714283Y17598115D01*
X42714283Y17598115D02*
X42657140Y17540972D01*
X42657140Y17540972D02*
X42599997Y17598115D01*
X42599997Y17598115D02*
X42657140Y17655258D01*
X42657140Y17655258D02*
X42657140Y17540972D01*
X42085711Y17255258D02*
X42085711Y16455258D01*
X42085711Y17140972D02*
X42028568Y17198115D01*
X42028568Y17198115D02*
X41914283Y17255258D01*
X41914283Y17255258D02*
X41742854Y17255258D01*
X41742854Y17255258D02*
X41628568Y17198115D01*
X41628568Y17198115D02*
X41571426Y17083829D01*
X41571426Y17083829D02*
X41571426Y16455258D01*
X40485712Y17255258D02*
X40485712Y16283829D01*
X40485712Y16283829D02*
X40542854Y16169543D01*
X40542854Y16169543D02*
X40599997Y16112400D01*
X40599997Y16112400D02*
X40714283Y16055258D01*
X40714283Y16055258D02*
X40885712Y16055258D01*
X40885712Y16055258D02*
X40999997Y16112400D01*
X40485712Y16512400D02*
X40599997Y16455258D01*
X40599997Y16455258D02*
X40828569Y16455258D01*
X40828569Y16455258D02*
X40942854Y16512400D01*
X40942854Y16512400D02*
X40999997Y16569543D01*
X40999997Y16569543D02*
X41057140Y16683829D01*
X41057140Y16683829D02*
X41057140Y17026686D01*
X41057140Y17026686D02*
X40999997Y17140972D01*
X40999997Y17140972D02*
X40942854Y17198115D01*
X40942854Y17198115D02*
X40828569Y17255258D01*
X40828569Y17255258D02*
X40599997Y17255258D01*
X40599997Y17255258D02*
X40485712Y17198115D01*
X39399998Y16512400D02*
X39514283Y16455258D01*
X39514283Y16455258D02*
X39742855Y16455258D01*
X39742855Y16455258D02*
X39857140Y16512400D01*
X39857140Y16512400D02*
X39914283Y16569543D01*
X39914283Y16569543D02*
X39971426Y16683829D01*
X39971426Y16683829D02*
X39971426Y17026686D01*
X39971426Y17026686D02*
X39914283Y17140972D01*
X39914283Y17140972D02*
X39857140Y17198115D01*
X39857140Y17198115D02*
X39742855Y17255258D01*
X39742855Y17255258D02*
X39514283Y17255258D01*
X39514283Y17255258D02*
X39399998Y17198115D01*
X38714284Y16455258D02*
X38828569Y16512400D01*
X38828569Y16512400D02*
X38885712Y16569543D01*
X38885712Y16569543D02*
X38942855Y16683829D01*
X38942855Y16683829D02*
X38942855Y17026686D01*
X38942855Y17026686D02*
X38885712Y17140972D01*
X38885712Y17140972D02*
X38828569Y17198115D01*
X38828569Y17198115D02*
X38714284Y17255258D01*
X38714284Y17255258D02*
X38542855Y17255258D01*
X38542855Y17255258D02*
X38428569Y17198115D01*
X38428569Y17198115D02*
X38371427Y17140972D01*
X38371427Y17140972D02*
X38314284Y17026686D01*
X38314284Y17026686D02*
X38314284Y16683829D01*
X38314284Y16683829D02*
X38371427Y16569543D01*
X38371427Y16569543D02*
X38428569Y16512400D01*
X38428569Y16512400D02*
X38542855Y16455258D01*
X38542855Y16455258D02*
X38714284Y16455258D01*
X37799998Y16455258D02*
X37799998Y17255258D01*
X37799998Y17140972D02*
X37742855Y17198115D01*
X37742855Y17198115D02*
X37628570Y17255258D01*
X37628570Y17255258D02*
X37457141Y17255258D01*
X37457141Y17255258D02*
X37342855Y17198115D01*
X37342855Y17198115D02*
X37285713Y17083829D01*
X37285713Y17083829D02*
X37285713Y16455258D01*
X37285713Y17083829D02*
X37228570Y17198115D01*
X37228570Y17198115D02*
X37114284Y17255258D01*
X37114284Y17255258D02*
X36942855Y17255258D01*
X36942855Y17255258D02*
X36828570Y17198115D01*
X36828570Y17198115D02*
X36771427Y17083829D01*
X36771427Y17083829D02*
X36771427Y16455258D01*
X36199998Y16455258D02*
X36199998Y17255258D01*
X36199998Y17140972D02*
X36142855Y17198115D01*
X36142855Y17198115D02*
X36028570Y17255258D01*
X36028570Y17255258D02*
X35857141Y17255258D01*
X35857141Y17255258D02*
X35742855Y17198115D01*
X35742855Y17198115D02*
X35685713Y17083829D01*
X35685713Y17083829D02*
X35685713Y16455258D01*
X35685713Y17083829D02*
X35628570Y17198115D01*
X35628570Y17198115D02*
X35514284Y17255258D01*
X35514284Y17255258D02*
X35342855Y17255258D01*
X35342855Y17255258D02*
X35228570Y17198115D01*
X35228570Y17198115D02*
X35171427Y17083829D01*
X35171427Y17083829D02*
X35171427Y16455258D01*
X34085713Y16455258D02*
X34085713Y17083829D01*
X34085713Y17083829D02*
X34142855Y17198115D01*
X34142855Y17198115D02*
X34257141Y17255258D01*
X34257141Y17255258D02*
X34485713Y17255258D01*
X34485713Y17255258D02*
X34599998Y17198115D01*
X34085713Y16512400D02*
X34199998Y16455258D01*
X34199998Y16455258D02*
X34485713Y16455258D01*
X34485713Y16455258D02*
X34599998Y16512400D01*
X34599998Y16512400D02*
X34657141Y16626686D01*
X34657141Y16626686D02*
X34657141Y16740972D01*
X34657141Y16740972D02*
X34599998Y16855258D01*
X34599998Y16855258D02*
X34485713Y16912400D01*
X34485713Y16912400D02*
X34199998Y16912400D01*
X34199998Y16912400D02*
X34085713Y16969543D01*
X33514284Y17255258D02*
X33514284Y16455258D01*
X33514284Y17140972D02*
X33457141Y17198115D01*
X33457141Y17198115D02*
X33342856Y17255258D01*
X33342856Y17255258D02*
X33171427Y17255258D01*
X33171427Y17255258D02*
X33057141Y17198115D01*
X33057141Y17198115D02*
X32999999Y17083829D01*
X32999999Y17083829D02*
X32999999Y16455258D01*
X31914285Y16455258D02*
X31914285Y17655258D01*
X31914285Y16512400D02*
X32028570Y16455258D01*
X32028570Y16455258D02*
X32257142Y16455258D01*
X32257142Y16455258D02*
X32371427Y16512400D01*
X32371427Y16512400D02*
X32428570Y16569543D01*
X32428570Y16569543D02*
X32485713Y16683829D01*
X32485713Y16683829D02*
X32485713Y17026686D01*
X32485713Y17026686D02*
X32428570Y17140972D01*
X32428570Y17140972D02*
X32371427Y17198115D01*
X32371427Y17198115D02*
X32257142Y17255258D01*
X32257142Y17255258D02*
X32028570Y17255258D01*
X32028570Y17255258D02*
X31914285Y17198115D01*
X30428570Y16912400D02*
X29514285Y16912400D01*
X28028570Y16455258D02*
X28028570Y17655258D01*
X28028570Y17655258D02*
X27342856Y16455258D01*
X27342856Y16455258D02*
X27342856Y17655258D01*
X26257142Y16455258D02*
X26257142Y17083829D01*
X26257142Y17083829D02*
X26314284Y17198115D01*
X26314284Y17198115D02*
X26428570Y17255258D01*
X26428570Y17255258D02*
X26657142Y17255258D01*
X26657142Y17255258D02*
X26771427Y17198115D01*
X26257142Y16512400D02*
X26371427Y16455258D01*
X26371427Y16455258D02*
X26657142Y16455258D01*
X26657142Y16455258D02*
X26771427Y16512400D01*
X26771427Y16512400D02*
X26828570Y16626686D01*
X26828570Y16626686D02*
X26828570Y16740972D01*
X26828570Y16740972D02*
X26771427Y16855258D01*
X26771427Y16855258D02*
X26657142Y16912400D01*
X26657142Y16912400D02*
X26371427Y16912400D01*
X26371427Y16912400D02*
X26257142Y16969543D01*
X25685713Y17255258D02*
X25685713Y16455258D01*
X25685713Y17140972D02*
X25628570Y17198115D01*
X25628570Y17198115D02*
X25514285Y17255258D01*
X25514285Y17255258D02*
X25342856Y17255258D01*
X25342856Y17255258D02*
X25228570Y17198115D01*
X25228570Y17198115D02*
X25171428Y17083829D01*
X25171428Y17083829D02*
X25171428Y16455258D01*
X24599999Y17255258D02*
X24599999Y16455258D01*
X24599999Y17140972D02*
X24542856Y17198115D01*
X24542856Y17198115D02*
X24428571Y17255258D01*
X24428571Y17255258D02*
X24257142Y17255258D01*
X24257142Y17255258D02*
X24142856Y17198115D01*
X24142856Y17198115D02*
X24085714Y17083829D01*
X24085714Y17083829D02*
X24085714Y16455258D01*
X23000000Y16455258D02*
X23000000Y17083829D01*
X23000000Y17083829D02*
X23057142Y17198115D01*
X23057142Y17198115D02*
X23171428Y17255258D01*
X23171428Y17255258D02*
X23400000Y17255258D01*
X23400000Y17255258D02*
X23514285Y17198115D01*
X23000000Y16512400D02*
X23114285Y16455258D01*
X23114285Y16455258D02*
X23400000Y16455258D01*
X23400000Y16455258D02*
X23514285Y16512400D01*
X23514285Y16512400D02*
X23571428Y16626686D01*
X23571428Y16626686D02*
X23571428Y16740972D01*
X23571428Y16740972D02*
X23514285Y16855258D01*
X23514285Y16855258D02*
X23400000Y16912400D01*
X23400000Y16912400D02*
X23114285Y16912400D01*
X23114285Y16912400D02*
X23000000Y16969543D01*
X21571428Y16798115D02*
X21000000Y16798115D01*
X21685714Y16455258D02*
X21285714Y17655258D01*
X21285714Y17655258D02*
X20885714Y16455258D01*
X19971429Y17255258D02*
X19971429Y16283829D01*
X19971429Y16283829D02*
X20028571Y16169543D01*
X20028571Y16169543D02*
X20085714Y16112400D01*
X20085714Y16112400D02*
X20200000Y16055258D01*
X20200000Y16055258D02*
X20371429Y16055258D01*
X20371429Y16055258D02*
X20485714Y16112400D01*
X19971429Y16512400D02*
X20085714Y16455258D01*
X20085714Y16455258D02*
X20314286Y16455258D01*
X20314286Y16455258D02*
X20428571Y16512400D01*
X20428571Y16512400D02*
X20485714Y16569543D01*
X20485714Y16569543D02*
X20542857Y16683829D01*
X20542857Y16683829D02*
X20542857Y17026686D01*
X20542857Y17026686D02*
X20485714Y17140972D01*
X20485714Y17140972D02*
X20428571Y17198115D01*
X20428571Y17198115D02*
X20314286Y17255258D01*
X20314286Y17255258D02*
X20085714Y17255258D01*
X20085714Y17255258D02*
X19971429Y17198115D01*
X18942857Y16512400D02*
X19057143Y16455258D01*
X19057143Y16455258D02*
X19285715Y16455258D01*
X19285715Y16455258D02*
X19400000Y16512400D01*
X19400000Y16512400D02*
X19457143Y16626686D01*
X19457143Y16626686D02*
X19457143Y17083829D01*
X19457143Y17083829D02*
X19400000Y17198115D01*
X19400000Y17198115D02*
X19285715Y17255258D01*
X19285715Y17255258D02*
X19057143Y17255258D01*
X19057143Y17255258D02*
X18942857Y17198115D01*
X18942857Y17198115D02*
X18885715Y17083829D01*
X18885715Y17083829D02*
X18885715Y16969543D01*
X18885715Y16969543D02*
X19457143Y16855258D01*
X18428572Y16512400D02*
X18314286Y16455258D01*
X18314286Y16455258D02*
X18085715Y16455258D01*
X18085715Y16455258D02*
X17971429Y16512400D01*
X17971429Y16512400D02*
X17914286Y16626686D01*
X17914286Y16626686D02*
X17914286Y16683829D01*
X17914286Y16683829D02*
X17971429Y16798115D01*
X17971429Y16798115D02*
X18085715Y16855258D01*
X18085715Y16855258D02*
X18257144Y16855258D01*
X18257144Y16855258D02*
X18371429Y16912400D01*
X18371429Y16912400D02*
X18428572Y17026686D01*
X18428572Y17026686D02*
X18428572Y17083829D01*
X18428572Y17083829D02*
X18371429Y17198115D01*
X18371429Y17198115D02*
X18257144Y17255258D01*
X18257144Y17255258D02*
X18085715Y17255258D01*
X18085715Y17255258D02*
X17971429Y17198115D01*
X16942857Y16512400D02*
X17057143Y16455258D01*
X17057143Y16455258D02*
X17285715Y16455258D01*
X17285715Y16455258D02*
X17400000Y16512400D01*
X17400000Y16512400D02*
X17457143Y16626686D01*
X17457143Y16626686D02*
X17457143Y17083829D01*
X17457143Y17083829D02*
X17400000Y17198115D01*
X17400000Y17198115D02*
X17285715Y17255258D01*
X17285715Y17255258D02*
X17057143Y17255258D01*
X17057143Y17255258D02*
X16942857Y17198115D01*
X16942857Y17198115D02*
X16885715Y17083829D01*
X16885715Y17083829D02*
X16885715Y16969543D01*
X16885715Y16969543D02*
X17457143Y16855258D01*
X16371429Y17255258D02*
X16371429Y16455258D01*
X16371429Y17140972D02*
X16314286Y17198115D01*
X16314286Y17198115D02*
X16200001Y17255258D01*
X16200001Y17255258D02*
X16028572Y17255258D01*
X16028572Y17255258D02*
X15914286Y17198115D01*
X15914286Y17198115D02*
X15857144Y17083829D01*
X15857144Y17083829D02*
X15857144Y16455258D01*
X14428572Y17540972D02*
X14371429Y17598115D01*
X14371429Y17598115D02*
X14257144Y17655258D01*
X14257144Y17655258D02*
X13971429Y17655258D01*
X13971429Y17655258D02*
X13857144Y17598115D01*
X13857144Y17598115D02*
X13800001Y17540972D01*
X13800001Y17540972D02*
X13742858Y17426686D01*
X13742858Y17426686D02*
X13742858Y17312400D01*
X13742858Y17312400D02*
X13800001Y17140972D01*
X13800001Y17140972D02*
X14485715Y16455258D01*
X14485715Y16455258D02*
X13742858Y16455258D01*
X13000001Y17655258D02*
X12885715Y17655258D01*
X12885715Y17655258D02*
X12771429Y17598115D01*
X12771429Y17598115D02*
X12714287Y17540972D01*
X12714287Y17540972D02*
X12657144Y17426686D01*
X12657144Y17426686D02*
X12600001Y17198115D01*
X12600001Y17198115D02*
X12600001Y16912400D01*
X12600001Y16912400D02*
X12657144Y16683829D01*
X12657144Y16683829D02*
X12714287Y16569543D01*
X12714287Y16569543D02*
X12771429Y16512400D01*
X12771429Y16512400D02*
X12885715Y16455258D01*
X12885715Y16455258D02*
X13000001Y16455258D01*
X13000001Y16455258D02*
X13114287Y16512400D01*
X13114287Y16512400D02*
X13171429Y16569543D01*
X13171429Y16569543D02*
X13228572Y16683829D01*
X13228572Y16683829D02*
X13285715Y16912400D01*
X13285715Y16912400D02*
X13285715Y17198115D01*
X13285715Y17198115D02*
X13228572Y17426686D01*
X13228572Y17426686D02*
X13171429Y17540972D01*
X13171429Y17540972D02*
X13114287Y17598115D01*
X13114287Y17598115D02*
X13000001Y17655258D01*
X12142858Y17540972D02*
X12085715Y17598115D01*
X12085715Y17598115D02*
X11971430Y17655258D01*
X11971430Y17655258D02*
X11685715Y17655258D01*
X11685715Y17655258D02*
X11571430Y17598115D01*
X11571430Y17598115D02*
X11514287Y17540972D01*
X11514287Y17540972D02*
X11457144Y17426686D01*
X11457144Y17426686D02*
X11457144Y17312400D01*
X11457144Y17312400D02*
X11514287Y17140972D01*
X11514287Y17140972D02*
X12200001Y16455258D01*
X12200001Y16455258D02*
X11457144Y16455258D01*
X10428573Y17655258D02*
X10657144Y17655258D01*
X10657144Y17655258D02*
X10771430Y17598115D01*
X10771430Y17598115D02*
X10828573Y17540972D01*
X10828573Y17540972D02*
X10942858Y17369543D01*
X10942858Y17369543D02*
X11000001Y17140972D01*
X11000001Y17140972D02*
X11000001Y16683829D01*
X11000001Y16683829D02*
X10942858Y16569543D01*
X10942858Y16569543D02*
X10885715Y16512400D01*
X10885715Y16512400D02*
X10771430Y16455258D01*
X10771430Y16455258D02*
X10542858Y16455258D01*
X10542858Y16455258D02*
X10428573Y16512400D01*
X10428573Y16512400D02*
X10371430Y16569543D01*
X10371430Y16569543D02*
X10314287Y16683829D01*
X10314287Y16683829D02*
X10314287Y16969543D01*
X10314287Y16969543D02*
X10371430Y17083829D01*
X10371430Y17083829D02*
X10428573Y17140972D01*
X10428573Y17140972D02*
X10542858Y17198115D01*
X10542858Y17198115D02*
X10771430Y17198115D01*
X10771430Y17198115D02*
X10885715Y17140972D01*
X10885715Y17140972D02*
X10942858Y17083829D01*
X10942858Y17083829D02*
X11000001Y16969543D01*
X38885713Y14169543D02*
X38942856Y14112400D01*
X38942856Y14112400D02*
X39114284Y14055258D01*
X39114284Y14055258D02*
X39228570Y14055258D01*
X39228570Y14055258D02*
X39399999Y14112400D01*
X39399999Y14112400D02*
X39514284Y14226686D01*
X39514284Y14226686D02*
X39571427Y14340972D01*
X39571427Y14340972D02*
X39628570Y14569543D01*
X39628570Y14569543D02*
X39628570Y14740972D01*
X39628570Y14740972D02*
X39571427Y14969543D01*
X39571427Y14969543D02*
X39514284Y15083829D01*
X39514284Y15083829D02*
X39399999Y15198115D01*
X39399999Y15198115D02*
X39228570Y15255258D01*
X39228570Y15255258D02*
X39114284Y15255258D01*
X39114284Y15255258D02*
X38942856Y15198115D01*
X38942856Y15198115D02*
X38885713Y15140972D01*
X38428570Y14398115D02*
X37857142Y14398115D01*
X38542856Y14055258D02*
X38142856Y15255258D01*
X38142856Y15255258D02*
X37742856Y14055258D01*
X37342856Y14055258D02*
X37342856Y15255258D01*
X37342856Y15255258D02*
X36657142Y14055258D01*
X36657142Y14055258D02*
X36657142Y15255258D01*
X35685713Y14683829D02*
X36085713Y14683829D01*
X36085713Y14055258D02*
X36085713Y15255258D01*
X36085713Y15255258D02*
X35514285Y15255258D01*
X35057142Y14055258D02*
X35057142Y15255258D01*
X35057142Y15255258D02*
X34771428Y15255258D01*
X34771428Y15255258D02*
X34599999Y15198115D01*
X34599999Y15198115D02*
X34485714Y15083829D01*
X34485714Y15083829D02*
X34428571Y14969543D01*
X34428571Y14969543D02*
X34371428Y14740972D01*
X34371428Y14740972D02*
X34371428Y14569543D01*
X34371428Y14569543D02*
X34428571Y14340972D01*
X34428571Y14340972D02*
X34485714Y14226686D01*
X34485714Y14226686D02*
X34599999Y14112400D01*
X34599999Y14112400D02*
X34771428Y14055258D01*
X34771428Y14055258D02*
X35057142Y14055258D01*
X33857142Y14512400D02*
X32942857Y14512400D01*
X32371428Y14055258D02*
X32371428Y15255258D01*
X32371428Y15255258D02*
X31971428Y14398115D01*
X31971428Y14398115D02*
X31571428Y15255258D01*
X31571428Y15255258D02*
X31571428Y14055258D01*
X30314285Y14169543D02*
X30371428Y14112400D01*
X30371428Y14112400D02*
X30542856Y14055258D01*
X30542856Y14055258D02*
X30657142Y14055258D01*
X30657142Y14055258D02*
X30828571Y14112400D01*
X30828571Y14112400D02*
X30942856Y14226686D01*
X30942856Y14226686D02*
X30999999Y14340972D01*
X30999999Y14340972D02*
X31057142Y14569543D01*
X31057142Y14569543D02*
X31057142Y14740972D01*
X31057142Y14740972D02*
X30999999Y14969543D01*
X30999999Y14969543D02*
X30942856Y15083829D01*
X30942856Y15083829D02*
X30828571Y15198115D01*
X30828571Y15198115D02*
X30657142Y15255258D01*
X30657142Y15255258D02*
X30542856Y15255258D01*
X30542856Y15255258D02*
X30371428Y15198115D01*
X30371428Y15198115D02*
X30314285Y15140972D01*
X28999999Y14855258D02*
X28714285Y14055258D01*
X28714285Y14055258D02*
X28428570Y14855258D01*
X27342856Y14055258D02*
X28028570Y14055258D01*
X27685713Y14055258D02*
X27685713Y15255258D01*
X27685713Y15255258D02*
X27799999Y15083829D01*
X27799999Y15083829D02*
X27914284Y14969543D01*
X27914284Y14969543D02*
X28028570Y14912400D01*
X26828570Y14169543D02*
X26771427Y14112400D01*
X26771427Y14112400D02*
X26828570Y14055258D01*
X26828570Y14055258D02*
X26885713Y14112400D01*
X26885713Y14112400D02*
X26828570Y14169543D01*
X26828570Y14169543D02*
X26828570Y14055258D01*
X26028570Y15255258D02*
X25914284Y15255258D01*
X25914284Y15255258D02*
X25799998Y15198115D01*
X25799998Y15198115D02*
X25742856Y15140972D01*
X25742856Y15140972D02*
X25685713Y15026686D01*
X25685713Y15026686D02*
X25628570Y14798115D01*
X25628570Y14798115D02*
X25628570Y14512400D01*
X25628570Y14512400D02*
X25685713Y14283829D01*
X25685713Y14283829D02*
X25742856Y14169543D01*
X25742856Y14169543D02*
X25799998Y14112400D01*
X25799998Y14112400D02*
X25914284Y14055258D01*
X25914284Y14055258D02*
X26028570Y14055258D01*
X26028570Y14055258D02*
X26142856Y14112400D01*
X26142856Y14112400D02*
X26199998Y14169543D01*
X26199998Y14169543D02*
X26257141Y14283829D01*
X26257141Y14283829D02*
X26314284Y14512400D01*
X26314284Y14512400D02*
X26314284Y14798115D01*
X26314284Y14798115D02*
X26257141Y15026686D01*
X26257141Y15026686D02*
X26199998Y15140972D01*
X26199998Y15140972D02*
X26142856Y15198115D01*
X26142856Y15198115D02*
X26028570Y15255258D01*
X24257141Y15140972D02*
X24199998Y15198115D01*
X24199998Y15198115D02*
X24085713Y15255258D01*
X24085713Y15255258D02*
X23799998Y15255258D01*
X23799998Y15255258D02*
X23685713Y15198115D01*
X23685713Y15198115D02*
X23628570Y15140972D01*
X23628570Y15140972D02*
X23571427Y15026686D01*
X23571427Y15026686D02*
X23571427Y14912400D01*
X23571427Y14912400D02*
X23628570Y14740972D01*
X23628570Y14740972D02*
X24314284Y14055258D01*
X24314284Y14055258D02*
X23571427Y14055258D01*
X22828570Y15255258D02*
X22714284Y15255258D01*
X22714284Y15255258D02*
X22599998Y15198115D01*
X22599998Y15198115D02*
X22542856Y15140972D01*
X22542856Y15140972D02*
X22485713Y15026686D01*
X22485713Y15026686D02*
X22428570Y14798115D01*
X22428570Y14798115D02*
X22428570Y14512400D01*
X22428570Y14512400D02*
X22485713Y14283829D01*
X22485713Y14283829D02*
X22542856Y14169543D01*
X22542856Y14169543D02*
X22599998Y14112400D01*
X22599998Y14112400D02*
X22714284Y14055258D01*
X22714284Y14055258D02*
X22828570Y14055258D01*
X22828570Y14055258D02*
X22942856Y14112400D01*
X22942856Y14112400D02*
X22999998Y14169543D01*
X22999998Y14169543D02*
X23057141Y14283829D01*
X23057141Y14283829D02*
X23114284Y14512400D01*
X23114284Y14512400D02*
X23114284Y14798115D01*
X23114284Y14798115D02*
X23057141Y15026686D01*
X23057141Y15026686D02*
X22999998Y15140972D01*
X22999998Y15140972D02*
X22942856Y15198115D01*
X22942856Y15198115D02*
X22828570Y15255258D01*
X21971427Y15140972D02*
X21914284Y15198115D01*
X21914284Y15198115D02*
X21799999Y15255258D01*
X21799999Y15255258D02*
X21514284Y15255258D01*
X21514284Y15255258D02*
X21399999Y15198115D01*
X21399999Y15198115D02*
X21342856Y15140972D01*
X21342856Y15140972D02*
X21285713Y15026686D01*
X21285713Y15026686D02*
X21285713Y14912400D01*
X21285713Y14912400D02*
X21342856Y14740972D01*
X21342856Y14740972D02*
X22028570Y14055258D01*
X22028570Y14055258D02*
X21285713Y14055258D01*
X20257142Y15255258D02*
X20485713Y15255258D01*
X20485713Y15255258D02*
X20599999Y15198115D01*
X20599999Y15198115D02*
X20657142Y15140972D01*
X20657142Y15140972D02*
X20771427Y14969543D01*
X20771427Y14969543D02*
X20828570Y14740972D01*
X20828570Y14740972D02*
X20828570Y14283829D01*
X20828570Y14283829D02*
X20771427Y14169543D01*
X20771427Y14169543D02*
X20714284Y14112400D01*
X20714284Y14112400D02*
X20599999Y14055258D01*
X20599999Y14055258D02*
X20371427Y14055258D01*
X20371427Y14055258D02*
X20257142Y14112400D01*
X20257142Y14112400D02*
X20199999Y14169543D01*
X20199999Y14169543D02*
X20142856Y14283829D01*
X20142856Y14283829D02*
X20142856Y14569543D01*
X20142856Y14569543D02*
X20199999Y14683829D01*
X20199999Y14683829D02*
X20257142Y14740972D01*
X20257142Y14740972D02*
X20371427Y14798115D01*
X20371427Y14798115D02*
X20599999Y14798115D01*
X20599999Y14798115D02*
X20714284Y14740972D01*
X20714284Y14740972D02*
X20771427Y14683829D01*
X20771427Y14683829D02*
X20828570Y14569543D01*
X19628570Y14512400D02*
X18714285Y14512400D01*
X17914285Y15255258D02*
X17799999Y15255258D01*
X17799999Y15255258D02*
X17685713Y15198115D01*
X17685713Y15198115D02*
X17628571Y15140972D01*
X17628571Y15140972D02*
X17571428Y15026686D01*
X17571428Y15026686D02*
X17514285Y14798115D01*
X17514285Y14798115D02*
X17514285Y14512400D01*
X17514285Y14512400D02*
X17571428Y14283829D01*
X17571428Y14283829D02*
X17628571Y14169543D01*
X17628571Y14169543D02*
X17685713Y14112400D01*
X17685713Y14112400D02*
X17799999Y14055258D01*
X17799999Y14055258D02*
X17914285Y14055258D01*
X17914285Y14055258D02*
X18028571Y14112400D01*
X18028571Y14112400D02*
X18085713Y14169543D01*
X18085713Y14169543D02*
X18142856Y14283829D01*
X18142856Y14283829D02*
X18199999Y14512400D01*
X18199999Y14512400D02*
X18199999Y14798115D01*
X18199999Y14798115D02*
X18142856Y15026686D01*
X18142856Y15026686D02*
X18085713Y15140972D01*
X18085713Y15140972D02*
X18028571Y15198115D01*
X18028571Y15198115D02*
X17914285Y15255258D01*
X16942856Y14055258D02*
X16714285Y14055258D01*
X16714285Y14055258D02*
X16599999Y14112400D01*
X16599999Y14112400D02*
X16542856Y14169543D01*
X16542856Y14169543D02*
X16428571Y14340972D01*
X16428571Y14340972D02*
X16371428Y14569543D01*
X16371428Y14569543D02*
X16371428Y15026686D01*
X16371428Y15026686D02*
X16428571Y15140972D01*
X16428571Y15140972D02*
X16485714Y15198115D01*
X16485714Y15198115D02*
X16599999Y15255258D01*
X16599999Y15255258D02*
X16828571Y15255258D01*
X16828571Y15255258D02*
X16942856Y15198115D01*
X16942856Y15198115D02*
X16999999Y15140972D01*
X16999999Y15140972D02*
X17057142Y15026686D01*
X17057142Y15026686D02*
X17057142Y14740972D01*
X17057142Y14740972D02*
X16999999Y14626686D01*
X16999999Y14626686D02*
X16942856Y14569543D01*
X16942856Y14569543D02*
X16828571Y14512400D01*
X16828571Y14512400D02*
X16599999Y14512400D01*
X16599999Y14512400D02*
X16485714Y14569543D01*
X16485714Y14569543D02*
X16428571Y14626686D01*
X16428571Y14626686D02*
X16371428Y14740972D01*
D10*
X8683855Y24961905D02*
X9331474Y24961905D01*
X9331474Y24961905D02*
X9407664Y24923810D01*
X9407664Y24923810D02*
X9445760Y24885715D01*
X9445760Y24885715D02*
X9483855Y24809524D01*
X9483855Y24809524D02*
X9483855Y24657143D01*
X9483855Y24657143D02*
X9445760Y24580953D01*
X9445760Y24580953D02*
X9407664Y24542858D01*
X9407664Y24542858D02*
X9331474Y24504762D01*
X9331474Y24504762D02*
X8683855Y24504762D01*
X9255283Y24161906D02*
X9255283Y23780953D01*
X9483855Y24238096D02*
X8683855Y23971429D01*
X8683855Y23971429D02*
X9483855Y23704763D01*
X9483855Y22980953D02*
X9102902Y23247620D01*
X9483855Y23438096D02*
X8683855Y23438096D01*
X8683855Y23438096D02*
X8683855Y23133334D01*
X8683855Y23133334D02*
X8721950Y23057144D01*
X8721950Y23057144D02*
X8760045Y23019049D01*
X8760045Y23019049D02*
X8836236Y22980953D01*
X8836236Y22980953D02*
X8950521Y22980953D01*
X8950521Y22980953D02*
X9026712Y23019049D01*
X9026712Y23019049D02*
X9064807Y23057144D01*
X9064807Y23057144D02*
X9102902Y23133334D01*
X9102902Y23133334D02*
X9102902Y23438096D01*
X8683855Y22752382D02*
X8683855Y22295239D01*
X9483855Y22523811D02*
X8683855Y22523811D01*
X9560045Y22219048D02*
X9560045Y21609525D01*
X9483855Y20961905D02*
X9102902Y21228572D01*
X9483855Y21419048D02*
X8683855Y21419048D01*
X8683855Y21419048D02*
X8683855Y21114286D01*
X8683855Y21114286D02*
X8721950Y21038096D01*
X8721950Y21038096D02*
X8760045Y21000001D01*
X8760045Y21000001D02*
X8836236Y20961905D01*
X8836236Y20961905D02*
X8950521Y20961905D01*
X8950521Y20961905D02*
X9026712Y21000001D01*
X9026712Y21000001D02*
X9064807Y21038096D01*
X9064807Y21038096D02*
X9102902Y21114286D01*
X9102902Y21114286D02*
X9102902Y21419048D01*
X8683855Y20695239D02*
X9483855Y20161905D01*
X8683855Y20161905D02*
X9483855Y20695239D01*
X13763855Y24714286D02*
X14411474Y24714286D01*
X14411474Y24714286D02*
X14487664Y24676191D01*
X14487664Y24676191D02*
X14525760Y24638096D01*
X14525760Y24638096D02*
X14563855Y24561905D01*
X14563855Y24561905D02*
X14563855Y24409524D01*
X14563855Y24409524D02*
X14525760Y24333334D01*
X14525760Y24333334D02*
X14487664Y24295239D01*
X14487664Y24295239D02*
X14411474Y24257143D01*
X14411474Y24257143D02*
X13763855Y24257143D01*
X14525760Y23914287D02*
X14563855Y23800001D01*
X14563855Y23800001D02*
X14563855Y23609525D01*
X14563855Y23609525D02*
X14525760Y23533334D01*
X14525760Y23533334D02*
X14487664Y23495239D01*
X14487664Y23495239D02*
X14411474Y23457144D01*
X14411474Y23457144D02*
X14335283Y23457144D01*
X14335283Y23457144D02*
X14259093Y23495239D01*
X14259093Y23495239D02*
X14220998Y23533334D01*
X14220998Y23533334D02*
X14182902Y23609525D01*
X14182902Y23609525D02*
X14144807Y23761906D01*
X14144807Y23761906D02*
X14106712Y23838096D01*
X14106712Y23838096D02*
X14068617Y23876191D01*
X14068617Y23876191D02*
X13992426Y23914287D01*
X13992426Y23914287D02*
X13916236Y23914287D01*
X13916236Y23914287D02*
X13840045Y23876191D01*
X13840045Y23876191D02*
X13801950Y23838096D01*
X13801950Y23838096D02*
X13763855Y23761906D01*
X13763855Y23761906D02*
X13763855Y23571429D01*
X13763855Y23571429D02*
X13801950Y23457144D01*
X14144807Y22847620D02*
X14182902Y22733334D01*
X14182902Y22733334D02*
X14220998Y22695239D01*
X14220998Y22695239D02*
X14297188Y22657143D01*
X14297188Y22657143D02*
X14411474Y22657143D01*
X14411474Y22657143D02*
X14487664Y22695239D01*
X14487664Y22695239D02*
X14525760Y22733334D01*
X14525760Y22733334D02*
X14563855Y22809524D01*
X14563855Y22809524D02*
X14563855Y23114286D01*
X14563855Y23114286D02*
X13763855Y23114286D01*
X13763855Y23114286D02*
X13763855Y22847620D01*
X13763855Y22847620D02*
X13801950Y22771429D01*
X13801950Y22771429D02*
X13840045Y22733334D01*
X13840045Y22733334D02*
X13916236Y22695239D01*
X13916236Y22695239D02*
X13992426Y22695239D01*
X13992426Y22695239D02*
X14068617Y22733334D01*
X14068617Y22733334D02*
X14106712Y22771429D01*
X14106712Y22771429D02*
X14144807Y22847620D01*
X14144807Y22847620D02*
X14144807Y23114286D01*
X14640045Y22504762D02*
X14640045Y21895239D01*
X14563855Y21704762D02*
X13763855Y21704762D01*
X13763855Y21704762D02*
X13763855Y21514286D01*
X13763855Y21514286D02*
X13801950Y21400000D01*
X13801950Y21400000D02*
X13878140Y21323810D01*
X13878140Y21323810D02*
X13954331Y21285715D01*
X13954331Y21285715D02*
X14106712Y21247619D01*
X14106712Y21247619D02*
X14220998Y21247619D01*
X14220998Y21247619D02*
X14373379Y21285715D01*
X14373379Y21285715D02*
X14449569Y21323810D01*
X14449569Y21323810D02*
X14525760Y21400000D01*
X14525760Y21400000D02*
X14563855Y21514286D01*
X14563855Y21514286D02*
X14563855Y21704762D01*
X14563855Y20904762D02*
X13763855Y20904762D01*
X13763855Y20904762D02*
X13763855Y20600000D01*
X13763855Y20600000D02*
X13801950Y20523810D01*
X13801950Y20523810D02*
X13840045Y20485715D01*
X13840045Y20485715D02*
X13916236Y20447619D01*
X13916236Y20447619D02*
X14030521Y20447619D01*
X14030521Y20447619D02*
X14106712Y20485715D01*
X14106712Y20485715D02*
X14144807Y20523810D01*
X14144807Y20523810D02*
X14182902Y20600000D01*
X14182902Y20600000D02*
X14182902Y20904762D01*
X12023855Y23400000D02*
X11223855Y23400000D01*
X11223855Y22866667D02*
X11223855Y22714286D01*
X11223855Y22714286D02*
X11261950Y22638096D01*
X11261950Y22638096D02*
X11338140Y22561905D01*
X11338140Y22561905D02*
X11490521Y22523810D01*
X11490521Y22523810D02*
X11757188Y22523810D01*
X11757188Y22523810D02*
X11909569Y22561905D01*
X11909569Y22561905D02*
X11985760Y22638096D01*
X11985760Y22638096D02*
X12023855Y22714286D01*
X12023855Y22714286D02*
X12023855Y22866667D01*
X12023855Y22866667D02*
X11985760Y22942858D01*
X11985760Y22942858D02*
X11909569Y23019048D01*
X11909569Y23019048D02*
X11757188Y23057144D01*
X11757188Y23057144D02*
X11490521Y23057144D01*
X11490521Y23057144D02*
X11338140Y23019048D01*
X11338140Y23019048D02*
X11261950Y22942858D01*
X11261950Y22942858D02*
X11223855Y22866667D01*
X11223855Y22028572D02*
X11223855Y21952382D01*
X11223855Y21952382D02*
X11261950Y21876191D01*
X11261950Y21876191D02*
X11300045Y21838096D01*
X11300045Y21838096D02*
X11376236Y21800001D01*
X11376236Y21800001D02*
X11528617Y21761906D01*
X11528617Y21761906D02*
X11719093Y21761906D01*
X11719093Y21761906D02*
X11871474Y21800001D01*
X11871474Y21800001D02*
X11947664Y21838096D01*
X11947664Y21838096D02*
X11985760Y21876191D01*
X11985760Y21876191D02*
X12023855Y21952382D01*
X12023855Y21952382D02*
X12023855Y22028572D01*
X12023855Y22028572D02*
X11985760Y22104763D01*
X11985760Y22104763D02*
X11947664Y22142858D01*
X11947664Y22142858D02*
X11871474Y22180953D01*
X11871474Y22180953D02*
X11719093Y22219049D01*
X11719093Y22219049D02*
X11528617Y22219049D01*
X11528617Y22219049D02*
X11376236Y22180953D01*
X11376236Y22180953D02*
X11300045Y22142858D01*
X11300045Y22142858D02*
X11261950Y22104763D01*
X11261950Y22104763D02*
X11223855Y22028572D01*
X6143855Y24866667D02*
X6791474Y24866667D01*
X6791474Y24866667D02*
X6867664Y24828572D01*
X6867664Y24828572D02*
X6905760Y24790477D01*
X6905760Y24790477D02*
X6943855Y24714286D01*
X6943855Y24714286D02*
X6943855Y24561905D01*
X6943855Y24561905D02*
X6905760Y24485715D01*
X6905760Y24485715D02*
X6867664Y24447620D01*
X6867664Y24447620D02*
X6791474Y24409524D01*
X6791474Y24409524D02*
X6143855Y24409524D01*
X6715283Y24066668D02*
X6715283Y23685715D01*
X6943855Y24142858D02*
X6143855Y23876191D01*
X6143855Y23876191D02*
X6943855Y23609525D01*
X6943855Y22885715D02*
X6562902Y23152382D01*
X6943855Y23342858D02*
X6143855Y23342858D01*
X6143855Y23342858D02*
X6143855Y23038096D01*
X6143855Y23038096D02*
X6181950Y22961906D01*
X6181950Y22961906D02*
X6220045Y22923811D01*
X6220045Y22923811D02*
X6296236Y22885715D01*
X6296236Y22885715D02*
X6410521Y22885715D01*
X6410521Y22885715D02*
X6486712Y22923811D01*
X6486712Y22923811D02*
X6524807Y22961906D01*
X6524807Y22961906D02*
X6562902Y23038096D01*
X6562902Y23038096D02*
X6562902Y23342858D01*
X6143855Y22657144D02*
X6143855Y22200001D01*
X6943855Y22428573D02*
X6143855Y22428573D01*
X7020045Y22123810D02*
X7020045Y21514287D01*
X6143855Y21438096D02*
X6143855Y20980953D01*
X6943855Y21209525D02*
X6143855Y21209525D01*
X6143855Y20790477D02*
X6943855Y20257143D01*
X6143855Y20257143D02*
X6943855Y20790477D01*
X16303854Y24733333D02*
X16951473Y24733333D01*
X16951473Y24733333D02*
X17027663Y24695238D01*
X17027663Y24695238D02*
X17065759Y24657143D01*
X17065759Y24657143D02*
X17103854Y24580952D01*
X17103854Y24580952D02*
X17103854Y24428571D01*
X17103854Y24428571D02*
X17065759Y24352381D01*
X17065759Y24352381D02*
X17027663Y24314286D01*
X17027663Y24314286D02*
X16951473Y24276190D01*
X16951473Y24276190D02*
X16303854Y24276190D01*
X17065759Y23933334D02*
X17103854Y23819048D01*
X17103854Y23819048D02*
X17103854Y23628572D01*
X17103854Y23628572D02*
X17065759Y23552381D01*
X17065759Y23552381D02*
X17027663Y23514286D01*
X17027663Y23514286D02*
X16951473Y23476191D01*
X16951473Y23476191D02*
X16875282Y23476191D01*
X16875282Y23476191D02*
X16799092Y23514286D01*
X16799092Y23514286D02*
X16760997Y23552381D01*
X16760997Y23552381D02*
X16722901Y23628572D01*
X16722901Y23628572D02*
X16684806Y23780953D01*
X16684806Y23780953D02*
X16646711Y23857143D01*
X16646711Y23857143D02*
X16608616Y23895238D01*
X16608616Y23895238D02*
X16532425Y23933334D01*
X16532425Y23933334D02*
X16456235Y23933334D01*
X16456235Y23933334D02*
X16380044Y23895238D01*
X16380044Y23895238D02*
X16341949Y23857143D01*
X16341949Y23857143D02*
X16303854Y23780953D01*
X16303854Y23780953D02*
X16303854Y23590476D01*
X16303854Y23590476D02*
X16341949Y23476191D01*
X16684806Y22866667D02*
X16722901Y22752381D01*
X16722901Y22752381D02*
X16760997Y22714286D01*
X16760997Y22714286D02*
X16837187Y22676190D01*
X16837187Y22676190D02*
X16951473Y22676190D01*
X16951473Y22676190D02*
X17027663Y22714286D01*
X17027663Y22714286D02*
X17065759Y22752381D01*
X17065759Y22752381D02*
X17103854Y22828571D01*
X17103854Y22828571D02*
X17103854Y23133333D01*
X17103854Y23133333D02*
X16303854Y23133333D01*
X16303854Y23133333D02*
X16303854Y22866667D01*
X16303854Y22866667D02*
X16341949Y22790476D01*
X16341949Y22790476D02*
X16380044Y22752381D01*
X16380044Y22752381D02*
X16456235Y22714286D01*
X16456235Y22714286D02*
X16532425Y22714286D01*
X16532425Y22714286D02*
X16608616Y22752381D01*
X16608616Y22752381D02*
X16646711Y22790476D01*
X16646711Y22790476D02*
X16684806Y22866667D01*
X16684806Y22866667D02*
X16684806Y23133333D01*
X17180044Y22523809D02*
X17180044Y21914286D01*
X17103854Y21723809D02*
X16303854Y21723809D01*
X16303854Y21723809D02*
X16303854Y21533333D01*
X16303854Y21533333D02*
X16341949Y21419047D01*
X16341949Y21419047D02*
X16418139Y21342857D01*
X16418139Y21342857D02*
X16494330Y21304762D01*
X16494330Y21304762D02*
X16646711Y21266666D01*
X16646711Y21266666D02*
X16760997Y21266666D01*
X16760997Y21266666D02*
X16913378Y21304762D01*
X16913378Y21304762D02*
X16989568Y21342857D01*
X16989568Y21342857D02*
X17065759Y21419047D01*
X17065759Y21419047D02*
X17103854Y21533333D01*
X17103854Y21533333D02*
X17103854Y21723809D01*
X17103854Y20923809D02*
X16303854Y20923809D01*
X16303854Y20923809D02*
X17103854Y20466666D01*
X17103854Y20466666D02*
X16303854Y20466666D01*
X3984807Y24638096D02*
X3984807Y24371430D01*
X4403855Y24257144D02*
X4403855Y24638096D01*
X4403855Y24638096D02*
X3603855Y24638096D01*
X3603855Y24638096D02*
X3603855Y24257144D01*
X4365760Y23952382D02*
X4403855Y23838096D01*
X4403855Y23838096D02*
X4403855Y23647620D01*
X4403855Y23647620D02*
X4365760Y23571429D01*
X4365760Y23571429D02*
X4327664Y23533334D01*
X4327664Y23533334D02*
X4251474Y23495239D01*
X4251474Y23495239D02*
X4175283Y23495239D01*
X4175283Y23495239D02*
X4099093Y23533334D01*
X4099093Y23533334D02*
X4060998Y23571429D01*
X4060998Y23571429D02*
X4022902Y23647620D01*
X4022902Y23647620D02*
X3984807Y23800001D01*
X3984807Y23800001D02*
X3946712Y23876191D01*
X3946712Y23876191D02*
X3908617Y23914286D01*
X3908617Y23914286D02*
X3832426Y23952382D01*
X3832426Y23952382D02*
X3756236Y23952382D01*
X3756236Y23952382D02*
X3680045Y23914286D01*
X3680045Y23914286D02*
X3641950Y23876191D01*
X3641950Y23876191D02*
X3603855Y23800001D01*
X3603855Y23800001D02*
X3603855Y23609524D01*
X3603855Y23609524D02*
X3641950Y23495239D01*
X4403855Y23152381D02*
X3603855Y23152381D01*
X3603855Y23152381D02*
X3603855Y22847619D01*
X3603855Y22847619D02*
X3641950Y22771429D01*
X3641950Y22771429D02*
X3680045Y22733334D01*
X3680045Y22733334D02*
X3756236Y22695238D01*
X3756236Y22695238D02*
X3870521Y22695238D01*
X3870521Y22695238D02*
X3946712Y22733334D01*
X3946712Y22733334D02*
X3984807Y22771429D01*
X3984807Y22771429D02*
X4022902Y22847619D01*
X4022902Y22847619D02*
X4022902Y23152381D01*
X4480045Y22542857D02*
X4480045Y21933334D01*
X3984807Y21742857D02*
X3984807Y21476191D01*
X4403855Y21361905D02*
X4403855Y21742857D01*
X4403855Y21742857D02*
X3603855Y21742857D01*
X3603855Y21742857D02*
X3603855Y21361905D01*
X4403855Y21019047D02*
X3603855Y21019047D01*
X3603855Y21019047D02*
X4403855Y20561904D01*
X4403855Y20561904D02*
X3603855Y20561904D01*
X1101950Y23209524D02*
X1063855Y23285714D01*
X1063855Y23285714D02*
X1063855Y23400000D01*
X1063855Y23400000D02*
X1101950Y23514286D01*
X1101950Y23514286D02*
X1178140Y23590476D01*
X1178140Y23590476D02*
X1254331Y23628571D01*
X1254331Y23628571D02*
X1406712Y23666667D01*
X1406712Y23666667D02*
X1520998Y23666667D01*
X1520998Y23666667D02*
X1673379Y23628571D01*
X1673379Y23628571D02*
X1749569Y23590476D01*
X1749569Y23590476D02*
X1825760Y23514286D01*
X1825760Y23514286D02*
X1863855Y23400000D01*
X1863855Y23400000D02*
X1863855Y23323809D01*
X1863855Y23323809D02*
X1825760Y23209524D01*
X1825760Y23209524D02*
X1787664Y23171428D01*
X1787664Y23171428D02*
X1520998Y23171428D01*
X1520998Y23171428D02*
X1520998Y23323809D01*
X1863855Y22828571D02*
X1063855Y22828571D01*
X1063855Y22828571D02*
X1863855Y22371428D01*
X1863855Y22371428D02*
X1063855Y22371428D01*
X1863855Y21990476D02*
X1063855Y21990476D01*
X1063855Y21990476D02*
X1063855Y21800000D01*
X1063855Y21800000D02*
X1101950Y21685714D01*
X1101950Y21685714D02*
X1178140Y21609524D01*
X1178140Y21609524D02*
X1254331Y21571429D01*
X1254331Y21571429D02*
X1406712Y21533333D01*
X1406712Y21533333D02*
X1520998Y21533333D01*
X1520998Y21533333D02*
X1673379Y21571429D01*
X1673379Y21571429D02*
X1749569Y21609524D01*
X1749569Y21609524D02*
X1825760Y21685714D01*
X1825760Y21685714D02*
X1863855Y21800000D01*
X1863855Y21800000D02*
X1863855Y21990476D01*
G04 #@! TO.C,TP7*
X10070000Y26000000D02*
G75*
G02*
X8170000Y26000000I-950000J0D01*
G01*
X8170000Y26000000D02*
G75*
G02*
X10070000Y26000000I950000J0D01*
G01*
G04 #@! TO.C,TP3*
X15150000Y26000000D02*
G75*
G02*
X13250000Y26000000I-950000J0D01*
G01*
X13250000Y26000000D02*
G75*
G02*
X15150000Y26000000I950000J0D01*
G01*
G04 #@! TO.C,TP4*
X12610000Y26000000D02*
G75*
G02*
X10710000Y26000000I-950000J0D01*
G01*
X10710000Y26000000D02*
G75*
G02*
X12610000Y26000000I950000J0D01*
G01*
G04 #@! TO.C,TP6*
X7530000Y26000000D02*
G75*
G02*
X5630000Y26000000I-950000J0D01*
G01*
X5630000Y26000000D02*
G75*
G02*
X7530000Y26000000I950000J0D01*
G01*
G04 #@! TO.C,TP2*
X17689999Y26000000D02*
G75*
G02*
X15789999Y26000000I-950000J0D01*
G01*
X15789999Y26000000D02*
G75*
G02*
X17689999Y26000000I950000J0D01*
G01*
G04 #@! TO.C,TP5*
X4990000Y26000000D02*
G75*
G02*
X3090000Y26000000I-950000J0D01*
G01*
X3090000Y26000000D02*
G75*
G02*
X4990000Y26000000I950000J0D01*
G01*
G04 #@! TO.C,TP1*
X2450000Y26000000D02*
G75*
G02*
X550000Y26000000I-950000J0D01*
G01*
X550000Y26000000D02*
G75*
G02*
X2450000Y26000000I950000J0D01*
G01*
G04 #@! TD*
%LPC*%
D12*
G04 #@! TO.C,P1*
X43500000Y1700000D03*
D13*
X43500000Y4700000D03*
G04 #@! TD*
D12*
G04 #@! TO.C,P4*
X23400000Y2400000D03*
D14*
X23400000Y5400000D03*
G04 #@! TD*
D12*
G04 #@! TO.C,P3*
X32700000Y2700000D03*
D14*
X32700000Y5700000D03*
G04 #@! TD*
D12*
G04 #@! TO.C,P2*
X38000000Y1700000D03*
D13*
X38000000Y4700000D03*
G04 #@! TD*
D15*
G04 #@! TO.C,TP7*
X9120000Y26000000D03*
G04 #@! TD*
G04 #@! TO.C,TP3*
X14200000Y26000000D03*
G04 #@! TD*
G04 #@! TO.C,TP4*
X11660000Y26000000D03*
G04 #@! TD*
G04 #@! TO.C,TP6*
X6580000Y26000000D03*
G04 #@! TD*
G04 #@! TO.C,TP2*
X16739999Y26000000D03*
G04 #@! TD*
G04 #@! TO.C,TP5*
X4040000Y26000000D03*
G04 #@! TD*
G04 #@! TO.C,TP1*
X1500000Y26000000D03*
G04 #@! TD*
%LPD*%
M02*
