%TF.GenerationSoftware,KiCad,Pcbnew,10.0.6*%
%TF.CreationDate,2026-09-15T12:52:44+02:00*%
%TF.ProjectId,canfd-mc,63616e66-642d-46d6-932e-6b696361645f,1.0*%
%TF.SameCoordinates,Original*%
%TF.FileFunction,Drillmap*%
%TF.FilePolarity,Positive*%
%FSLAX45Y45*%
G04 Gerber Fmt 4.5, Leading zero omitted, Abs format (unit mm)*
G04 Created by KiCad (PCBNEW 10.0.6) date 2026-09-15 12:52:44*
%MOMM*%
%LPD*%
G01*
G04 APERTURE LIST*
%ADD10C,0.100000*%
%ADD11C,0.200000*%
%ADD12C,0.150000*%
G04 APERTURE END LIST*
D10*
X0Y3200000D02*
X5500000Y3200000D01*
X0Y0D02*
X0Y3200000D01*
X5500000Y3200000D02*
X5500000Y0D01*
X5500000Y0D02*
X0Y0D01*
D11*
D10*
X62000Y215000D02*
X92000Y185000D01*
X92000Y215000D02*
X62000Y185000D01*
X121000Y2357000D02*
X151000Y2327000D01*
X151000Y2357000D02*
X121000Y2327000D01*
X125000Y385000D02*
X155000Y355000D01*
X155000Y385000D02*
X125000Y355000D01*
X343000Y90000D02*
X373000Y60000D01*
X373000Y90000D02*
X343000Y60000D01*
X477000Y355000D02*
X507000Y325000D01*
X507000Y355000D02*
X477000Y325000D01*
X574000Y87000D02*
X604000Y57000D01*
X604000Y87000D02*
X574000Y57000D01*
X604000Y2415000D02*
X634000Y2385000D01*
X634000Y2415000D02*
X604000Y2385000D01*
X690000Y90000D02*
X720000Y60000D01*
X720000Y90000D02*
X690000Y60000D01*
X731000Y2415000D02*
X761000Y2385000D01*
X761000Y2415000D02*
X731000Y2385000D01*
X776000Y87000D02*
X806000Y57000D01*
X806000Y87000D02*
X776000Y57000D01*
X1072000Y215000D02*
X1102000Y185000D01*
X1102000Y215000D02*
X1072000Y185000D01*
X1188000Y215000D02*
X1218000Y185000D01*
X1218000Y215000D02*
X1188000Y185000D01*
X1485000Y2385000D02*
X1515000Y2355000D01*
X1515000Y2385000D02*
X1485000Y2355000D01*
X1620000Y355000D02*
X1650000Y325000D01*
X1650000Y355000D02*
X1620000Y325000D01*
X1625000Y2375000D02*
X1655000Y2345000D01*
X1655000Y2375000D02*
X1625000Y2345000D01*
X1745000Y125000D02*
X1775000Y95000D01*
X1775000Y125000D02*
X1745000Y95000D01*
X1755000Y265000D02*
X1785000Y235000D01*
X1785000Y265000D02*
X1755000Y235000D01*
X1955000Y365000D02*
X1985000Y335000D01*
X1985000Y365000D02*
X1955000Y335000D01*
X2045000Y295000D02*
X2075000Y265000D01*
X2075000Y295000D02*
X2045000Y265000D01*
X2135000Y1485000D02*
X2165000Y1455000D01*
X2165000Y1485000D02*
X2135000Y1455000D01*
X2135000Y1312000D02*
X2165000Y1282000D01*
X2165000Y1312000D02*
X2135000Y1282000D01*
X2135000Y931000D02*
X2165000Y901000D01*
X2165000Y931000D02*
X2135000Y901000D01*
X2135000Y677000D02*
X2165000Y647000D01*
X2165000Y677000D02*
X2135000Y647000D01*
X2185000Y130000D02*
X2215000Y100000D01*
X2215000Y130000D02*
X2185000Y100000D01*
X2215000Y1845000D02*
X2245000Y1815000D01*
X2245000Y1845000D02*
X2215000Y1815000D01*
X2215000Y1465000D02*
X2245000Y1435000D01*
X2245000Y1465000D02*
X2215000Y1435000D01*
X2215000Y1115000D02*
X2245000Y1085000D01*
X2245000Y1115000D02*
X2215000Y1085000D01*
X2225000Y1745000D02*
X2255000Y1715000D01*
X2255000Y1745000D02*
X2225000Y1715000D01*
X2245000Y2405000D02*
X2275000Y2375000D01*
X2275000Y2405000D02*
X2245000Y2375000D01*
X2255000Y2855000D02*
X2285000Y2825000D01*
X2285000Y2855000D02*
X2255000Y2825000D01*
X2285000Y1285000D02*
X2315000Y1255000D01*
X2315000Y1285000D02*
X2285000Y1255000D01*
X2405000Y2755000D02*
X2435000Y2725000D01*
X2435000Y2755000D02*
X2405000Y2725000D01*
X2440000Y1865000D02*
X2470000Y1835000D01*
X2470000Y1865000D02*
X2440000Y1835000D01*
X2485000Y2025000D02*
X2515000Y1995000D01*
X2515000Y2025000D02*
X2485000Y1995000D01*
X2560000Y785000D02*
X2590000Y755000D01*
X2590000Y785000D02*
X2560000Y755000D01*
X2615000Y945000D02*
X2645000Y915000D01*
X2645000Y945000D02*
X2615000Y915000D01*
X2715000Y2225000D02*
X2745000Y2195000D01*
X2745000Y2225000D02*
X2715000Y2195000D01*
X2775000Y3085000D02*
X2805000Y3055000D01*
X2805000Y3085000D02*
X2775000Y3055000D01*
X2879000Y632000D02*
X2909000Y602000D01*
X2909000Y632000D02*
X2879000Y602000D01*
X3275000Y1080000D02*
X3305000Y1050000D01*
X3305000Y1080000D02*
X3275000Y1050000D01*
X3444000Y3138000D02*
X3474000Y3108000D01*
X3474000Y3138000D02*
X3444000Y3108000D01*
X3515000Y3065000D02*
X3545000Y3035000D01*
X3545000Y3065000D02*
X3515000Y3035000D01*
X3525000Y2815000D02*
X3555000Y2785000D01*
X3555000Y2815000D02*
X3525000Y2785000D01*
X3525000Y2688000D02*
X3555000Y2658000D01*
X3555000Y2688000D02*
X3525000Y2658000D01*
X3525000Y2561000D02*
X3555000Y2531000D01*
X3555000Y2561000D02*
X3525000Y2531000D01*
X3645000Y2395000D02*
X3675000Y2365000D01*
X3675000Y2395000D02*
X3645000Y2365000D01*
X3645000Y2265000D02*
X3675000Y2235000D01*
X3675000Y2265000D02*
X3645000Y2235000D01*
X3725000Y2565000D02*
X3755000Y2535000D01*
X3755000Y2565000D02*
X3725000Y2535000D01*
X3805000Y2946000D02*
X3835000Y2916000D01*
X3835000Y2946000D02*
X3805000Y2916000D01*
X3897000Y2930000D02*
X3927000Y2900000D01*
X3927000Y2930000D02*
X3897000Y2900000D01*
X3937000Y770000D02*
X3967000Y740000D01*
X3967000Y770000D02*
X3937000Y740000D01*
X4085000Y1108000D02*
X4115000Y1078000D01*
X4115000Y1108000D02*
X4085000Y1078000D01*
X4178000Y3055000D02*
X4208000Y3025000D01*
X4208000Y3055000D02*
X4178000Y3025000D01*
X4205000Y1035000D02*
X4235000Y1005000D01*
X4235000Y1035000D02*
X4205000Y1005000D01*
X4438000Y1518000D02*
X4468000Y1488000D01*
X4468000Y1518000D02*
X4438000Y1488000D01*
X4505000Y625000D02*
X4535000Y595000D01*
X4535000Y625000D02*
X4505000Y595000D01*
X4510000Y1270000D02*
X4540000Y1240000D01*
X4540000Y1270000D02*
X4510000Y1240000D01*
X4521000Y1461000D02*
X4551000Y1431000D01*
X4551000Y1461000D02*
X4521000Y1431000D01*
X4647000Y96000D02*
X4677000Y66000D01*
X4677000Y96000D02*
X4647000Y66000D01*
X4815000Y2715000D02*
X4845000Y2685000D01*
X4845000Y2715000D02*
X4815000Y2685000D01*
X4840000Y1580000D02*
X4870000Y1550000D01*
X4870000Y1580000D02*
X4840000Y1550000D01*
X4874000Y170000D02*
X4904000Y140000D01*
X4904000Y170000D02*
X4874000Y140000D01*
X4885000Y615000D02*
X4915000Y585000D01*
X4915000Y615000D02*
X4885000Y585000D01*
X4923000Y360000D02*
X4953000Y330000D01*
X4953000Y360000D02*
X4923000Y330000D01*
X4985000Y115000D02*
X5015000Y85000D01*
X5015000Y115000D02*
X4985000Y85000D01*
X5165000Y3005000D02*
X5195000Y2975000D01*
X5195000Y3005000D02*
X5165000Y2975000D01*
X5320000Y1607000D02*
X5350000Y1577000D01*
X5350000Y1607000D02*
X5320000Y1577000D01*
X5352000Y1518000D02*
X5382000Y1488000D01*
X5382000Y1518000D02*
X5352000Y1488000D01*
X885000Y1280439D02*
G75*
G02*
X855000Y1280439I-15000J0D01*
G01*
X855000Y1280439D02*
G75*
G02*
X885000Y1280439I15000J0D01*
G01*
X885000Y1140439D02*
G75*
G02*
X855000Y1140439I-15000J0D01*
G01*
X855000Y1140439D02*
G75*
G02*
X885000Y1140439I15000J0D01*
G01*
X955000Y1350439D02*
G75*
G02*
X925000Y1350439I-15000J0D01*
G01*
X925000Y1350439D02*
G75*
G02*
X955000Y1350439I15000J0D01*
G01*
X955000Y1210439D02*
G75*
G02*
X925000Y1210439I-15000J0D01*
G01*
X925000Y1210439D02*
G75*
G02*
X955000Y1210439I15000J0D01*
G01*
X955000Y1070439D02*
G75*
G02*
X925000Y1070439I-15000J0D01*
G01*
X925000Y1070439D02*
G75*
G02*
X955000Y1070439I15000J0D01*
G01*
X1025000Y1280439D02*
G75*
G02*
X995000Y1280439I-15000J0D01*
G01*
X995000Y1280439D02*
G75*
G02*
X1025000Y1280439I15000J0D01*
G01*
X1025000Y1140439D02*
G75*
G02*
X995000Y1140439I-15000J0D01*
G01*
X995000Y1140439D02*
G75*
G02*
X1025000Y1140439I15000J0D01*
G01*
X1095000Y1350439D02*
G75*
G02*
X1065000Y1350439I-15000J0D01*
G01*
X1065000Y1350439D02*
G75*
G02*
X1095000Y1350439I15000J0D01*
G01*
X1095000Y1210439D02*
G75*
G02*
X1065000Y1210439I-15000J0D01*
G01*
X1065000Y1210439D02*
G75*
G02*
X1095000Y1210439I15000J0D01*
G01*
X1095000Y1070439D02*
G75*
G02*
X1065000Y1070439I-15000J0D01*
G01*
X1065000Y1070439D02*
G75*
G02*
X1095000Y1070439I15000J0D01*
G01*
X1165000Y1280439D02*
G75*
G02*
X1135000Y1280439I-15000J0D01*
G01*
X1135000Y1280439D02*
G75*
G02*
X1165000Y1280439I15000J0D01*
G01*
X1165000Y1140439D02*
G75*
G02*
X1135000Y1140439I-15000J0D01*
G01*
X1135000Y1140439D02*
G75*
G02*
X1165000Y1140439I15000J0D01*
G01*
X4965000Y1220000D02*
G75*
G02*
X4935000Y1220000I-15000J0D01*
G01*
X4935000Y1220000D02*
G75*
G02*
X4965000Y1220000I15000J0D01*
G01*
X4965000Y1100000D02*
G75*
G02*
X4935000Y1100000I-15000J0D01*
G01*
X4935000Y1100000D02*
G75*
G02*
X4965000Y1100000I15000J0D01*
G01*
X5075000Y1220000D02*
G75*
G02*
X5045000Y1220000I-15000J0D01*
G01*
X5045000Y1220000D02*
G75*
G02*
X5075000Y1220000I15000J0D01*
G01*
X5075000Y1100000D02*
G75*
G02*
X5045000Y1100000I-15000J0D01*
G01*
X5045000Y1100000D02*
G75*
G02*
X5075000Y1100000I15000J0D01*
G01*
X5205000Y1220000D02*
G75*
G02*
X5175000Y1220000I-15000J0D01*
G01*
X5175000Y1220000D02*
G75*
G02*
X5205000Y1220000I15000J0D01*
G01*
X5205000Y1100000D02*
G75*
G02*
X5175000Y1100000I-15000J0D01*
G01*
X5175000Y1100000D02*
G75*
G02*
X5205000Y1100000I15000J0D01*
G01*
X5325000Y1220000D02*
G75*
G02*
X5295000Y1220000I-15000J0D01*
G01*
X5295000Y1220000D02*
G75*
G02*
X5325000Y1220000I15000J0D01*
G01*
X5325000Y1100000D02*
G75*
G02*
X5295000Y1100000I-15000J0D01*
G01*
X5295000Y1100000D02*
G75*
G02*
X5325000Y1100000I15000J0D01*
G01*
D12*
X2340000Y615000D02*
X2340000Y465000D01*
X2265000Y540000D02*
X2415000Y540000D01*
X3270000Y645000D02*
X3270000Y495000D01*
X3195000Y570000D02*
X3345000Y570000D01*
D11*
X3870711Y399289D02*
X3870711Y540711D01*
X3729289Y540711D01*
X3729289Y399289D01*
X3870711Y399289D01*
X4420711Y399289D02*
X4420711Y540711D01*
X4279289Y540711D01*
X4279289Y399289D01*
X4420711Y399289D01*
X255777Y-316484D02*
X255777Y-116484D01*
X255777Y-116484D02*
X303396Y-116484D01*
X303396Y-116484D02*
X331967Y-126008D01*
X331967Y-126008D02*
X351015Y-145055D01*
X351015Y-145055D02*
X360539Y-164103D01*
X360539Y-164103D02*
X370062Y-202198D01*
X370062Y-202198D02*
X370062Y-230769D01*
X370062Y-230769D02*
X360539Y-268865D01*
X360539Y-268865D02*
X351015Y-287912D01*
X351015Y-287912D02*
X331967Y-306960D01*
X331967Y-306960D02*
X303396Y-316484D01*
X303396Y-316484D02*
X255777Y-316484D01*
X455777Y-316484D02*
X455777Y-183150D01*
X455777Y-221246D02*
X465301Y-202198D01*
X465301Y-202198D02*
X474824Y-192674D01*
X474824Y-192674D02*
X493872Y-183150D01*
X493872Y-183150D02*
X512920Y-183150D01*
X579586Y-316484D02*
X579586Y-183150D01*
X579586Y-116484D02*
X570063Y-126008D01*
X570063Y-126008D02*
X579586Y-135531D01*
X579586Y-135531D02*
X589110Y-126008D01*
X589110Y-126008D02*
X579586Y-116484D01*
X579586Y-116484D02*
X579586Y-135531D01*
X703396Y-316484D02*
X684348Y-306960D01*
X684348Y-306960D02*
X674824Y-287912D01*
X674824Y-287912D02*
X674824Y-116484D01*
X808158Y-316484D02*
X789110Y-306960D01*
X789110Y-306960D02*
X779586Y-287912D01*
X779586Y-287912D02*
X779586Y-116484D01*
X1036729Y-316484D02*
X1036729Y-116484D01*
X1036729Y-116484D02*
X1103396Y-259341D01*
X1103396Y-259341D02*
X1170063Y-116484D01*
X1170063Y-116484D02*
X1170063Y-316484D01*
X1351015Y-316484D02*
X1351015Y-211722D01*
X1351015Y-211722D02*
X1341491Y-192674D01*
X1341491Y-192674D02*
X1322444Y-183150D01*
X1322444Y-183150D02*
X1284348Y-183150D01*
X1284348Y-183150D02*
X1265301Y-192674D01*
X1351015Y-306960D02*
X1331967Y-316484D01*
X1331967Y-316484D02*
X1284348Y-316484D01*
X1284348Y-316484D02*
X1265301Y-306960D01*
X1265301Y-306960D02*
X1255777Y-287912D01*
X1255777Y-287912D02*
X1255777Y-268865D01*
X1255777Y-268865D02*
X1265301Y-249817D01*
X1265301Y-249817D02*
X1284348Y-240293D01*
X1284348Y-240293D02*
X1331967Y-240293D01*
X1331967Y-240293D02*
X1351015Y-230769D01*
X1446253Y-183150D02*
X1446253Y-383150D01*
X1446253Y-192674D02*
X1465301Y-183150D01*
X1465301Y-183150D02*
X1503396Y-183150D01*
X1503396Y-183150D02*
X1522443Y-192674D01*
X1522443Y-192674D02*
X1531967Y-202198D01*
X1531967Y-202198D02*
X1541491Y-221246D01*
X1541491Y-221246D02*
X1541491Y-278389D01*
X1541491Y-278389D02*
X1531967Y-297436D01*
X1531967Y-297436D02*
X1522443Y-306960D01*
X1522443Y-306960D02*
X1503396Y-316484D01*
X1503396Y-316484D02*
X1465301Y-316484D01*
X1465301Y-316484D02*
X1446253Y-306960D01*
X1627205Y-297436D02*
X1636729Y-306960D01*
X1636729Y-306960D02*
X1627205Y-316484D01*
X1627205Y-316484D02*
X1617682Y-306960D01*
X1617682Y-306960D02*
X1627205Y-297436D01*
X1627205Y-297436D02*
X1627205Y-316484D01*
X1627205Y-192674D02*
X1636729Y-202198D01*
X1636729Y-202198D02*
X1627205Y-211722D01*
X1627205Y-211722D02*
X1617682Y-202198D01*
X1617682Y-202198D02*
X1627205Y-192674D01*
X1627205Y-192674D02*
X1627205Y-211722D01*
D10*
X-35000Y-630000D02*
X-5000Y-660000D01*
X-5000Y-630000D02*
X-35000Y-660000D01*
D11*
X293872Y-536484D02*
X312920Y-536484D01*
X312920Y-536484D02*
X331967Y-546008D01*
X331967Y-546008D02*
X341491Y-555531D01*
X341491Y-555531D02*
X351015Y-574579D01*
X351015Y-574579D02*
X360539Y-612674D01*
X360539Y-612674D02*
X360539Y-660293D01*
X360539Y-660293D02*
X351015Y-698389D01*
X351015Y-698389D02*
X341491Y-717436D01*
X341491Y-717436D02*
X331967Y-726960D01*
X331967Y-726960D02*
X312920Y-736484D01*
X312920Y-736484D02*
X293872Y-736484D01*
X293872Y-736484D02*
X274824Y-726960D01*
X274824Y-726960D02*
X265301Y-717436D01*
X265301Y-717436D02*
X255777Y-698389D01*
X255777Y-698389D02*
X246253Y-660293D01*
X246253Y-660293D02*
X246253Y-612674D01*
X246253Y-612674D02*
X255777Y-574579D01*
X255777Y-574579D02*
X265301Y-555531D01*
X265301Y-555531D02*
X274824Y-546008D01*
X274824Y-546008D02*
X293872Y-536484D01*
X455777Y-726960D02*
X455777Y-736484D01*
X455777Y-736484D02*
X446253Y-755531D01*
X446253Y-755531D02*
X436729Y-765055D01*
X522443Y-536484D02*
X646253Y-536484D01*
X646253Y-536484D02*
X579586Y-612674D01*
X579586Y-612674D02*
X608158Y-612674D01*
X608158Y-612674D02*
X627205Y-622198D01*
X627205Y-622198D02*
X636729Y-631722D01*
X636729Y-631722D02*
X646253Y-650770D01*
X646253Y-650770D02*
X646253Y-698389D01*
X646253Y-698389D02*
X636729Y-717436D01*
X636729Y-717436D02*
X627205Y-726960D01*
X627205Y-726960D02*
X608158Y-736484D01*
X608158Y-736484D02*
X551015Y-736484D01*
X551015Y-736484D02*
X531967Y-726960D01*
X531967Y-726960D02*
X522443Y-717436D01*
X770062Y-536484D02*
X789110Y-536484D01*
X789110Y-536484D02*
X808158Y-546008D01*
X808158Y-546008D02*
X817682Y-555531D01*
X817682Y-555531D02*
X827205Y-574579D01*
X827205Y-574579D02*
X836729Y-612674D01*
X836729Y-612674D02*
X836729Y-660293D01*
X836729Y-660293D02*
X827205Y-698389D01*
X827205Y-698389D02*
X817682Y-717436D01*
X817682Y-717436D02*
X808158Y-726960D01*
X808158Y-726960D02*
X789110Y-736484D01*
X789110Y-736484D02*
X770062Y-736484D01*
X770062Y-736484D02*
X751015Y-726960D01*
X751015Y-726960D02*
X741491Y-717436D01*
X741491Y-717436D02*
X731967Y-698389D01*
X731967Y-698389D02*
X722443Y-660293D01*
X722443Y-660293D02*
X722443Y-612674D01*
X722443Y-612674D02*
X731967Y-574579D01*
X731967Y-574579D02*
X741491Y-555531D01*
X741491Y-555531D02*
X751015Y-546008D01*
X751015Y-546008D02*
X770062Y-536484D01*
X960539Y-536484D02*
X979586Y-536484D01*
X979586Y-536484D02*
X998634Y-546008D01*
X998634Y-546008D02*
X1008158Y-555531D01*
X1008158Y-555531D02*
X1017682Y-574579D01*
X1017682Y-574579D02*
X1027205Y-612674D01*
X1027205Y-612674D02*
X1027205Y-660293D01*
X1027205Y-660293D02*
X1017682Y-698389D01*
X1017682Y-698389D02*
X1008158Y-717436D01*
X1008158Y-717436D02*
X998634Y-726960D01*
X998634Y-726960D02*
X979586Y-736484D01*
X979586Y-736484D02*
X960539Y-736484D01*
X960539Y-736484D02*
X941491Y-726960D01*
X941491Y-726960D02*
X931967Y-717436D01*
X931967Y-717436D02*
X922443Y-698389D01*
X922443Y-698389D02*
X912920Y-660293D01*
X912920Y-660293D02*
X912920Y-612674D01*
X912920Y-612674D02*
X922443Y-574579D01*
X922443Y-574579D02*
X931967Y-555531D01*
X931967Y-555531D02*
X941491Y-546008D01*
X941491Y-546008D02*
X960539Y-536484D01*
X1112920Y-736484D02*
X1112920Y-603150D01*
X1112920Y-622198D02*
X1122444Y-612674D01*
X1122444Y-612674D02*
X1141491Y-603150D01*
X1141491Y-603150D02*
X1170063Y-603150D01*
X1170063Y-603150D02*
X1189110Y-612674D01*
X1189110Y-612674D02*
X1198634Y-631722D01*
X1198634Y-631722D02*
X1198634Y-736484D01*
X1198634Y-631722D02*
X1208158Y-612674D01*
X1208158Y-612674D02*
X1227205Y-603150D01*
X1227205Y-603150D02*
X1255777Y-603150D01*
X1255777Y-603150D02*
X1274825Y-612674D01*
X1274825Y-612674D02*
X1284348Y-631722D01*
X1284348Y-631722D02*
X1284348Y-736484D01*
X1379586Y-736484D02*
X1379586Y-603150D01*
X1379586Y-622198D02*
X1389110Y-612674D01*
X1389110Y-612674D02*
X1408158Y-603150D01*
X1408158Y-603150D02*
X1436729Y-603150D01*
X1436729Y-603150D02*
X1455777Y-612674D01*
X1455777Y-612674D02*
X1465301Y-631722D01*
X1465301Y-631722D02*
X1465301Y-736484D01*
X1465301Y-631722D02*
X1474824Y-612674D01*
X1474824Y-612674D02*
X1493872Y-603150D01*
X1493872Y-603150D02*
X1522443Y-603150D01*
X1522443Y-603150D02*
X1541491Y-612674D01*
X1541491Y-612674D02*
X1551015Y-631722D01*
X1551015Y-631722D02*
X1551015Y-736484D01*
X1941491Y-526960D02*
X1770063Y-784103D01*
X2198634Y-536484D02*
X2217682Y-536484D01*
X2217682Y-536484D02*
X2236729Y-546008D01*
X2236729Y-546008D02*
X2246253Y-555531D01*
X2246253Y-555531D02*
X2255777Y-574579D01*
X2255777Y-574579D02*
X2265301Y-612674D01*
X2265301Y-612674D02*
X2265301Y-660293D01*
X2265301Y-660293D02*
X2255777Y-698389D01*
X2255777Y-698389D02*
X2246253Y-717436D01*
X2246253Y-717436D02*
X2236729Y-726960D01*
X2236729Y-726960D02*
X2217682Y-736484D01*
X2217682Y-736484D02*
X2198634Y-736484D01*
X2198634Y-736484D02*
X2179587Y-726960D01*
X2179587Y-726960D02*
X2170063Y-717436D01*
X2170063Y-717436D02*
X2160539Y-698389D01*
X2160539Y-698389D02*
X2151015Y-660293D01*
X2151015Y-660293D02*
X2151015Y-612674D01*
X2151015Y-612674D02*
X2160539Y-574579D01*
X2160539Y-574579D02*
X2170063Y-555531D01*
X2170063Y-555531D02*
X2179587Y-546008D01*
X2179587Y-546008D02*
X2198634Y-536484D01*
X2360539Y-726960D02*
X2360539Y-736484D01*
X2360539Y-736484D02*
X2351015Y-755531D01*
X2351015Y-755531D02*
X2341491Y-765055D01*
X2484348Y-536484D02*
X2503396Y-536484D01*
X2503396Y-536484D02*
X2522444Y-546008D01*
X2522444Y-546008D02*
X2531968Y-555531D01*
X2531968Y-555531D02*
X2541491Y-574579D01*
X2541491Y-574579D02*
X2551015Y-612674D01*
X2551015Y-612674D02*
X2551015Y-660293D01*
X2551015Y-660293D02*
X2541491Y-698389D01*
X2541491Y-698389D02*
X2531968Y-717436D01*
X2531968Y-717436D02*
X2522444Y-726960D01*
X2522444Y-726960D02*
X2503396Y-736484D01*
X2503396Y-736484D02*
X2484348Y-736484D01*
X2484348Y-736484D02*
X2465301Y-726960D01*
X2465301Y-726960D02*
X2455777Y-717436D01*
X2455777Y-717436D02*
X2446253Y-698389D01*
X2446253Y-698389D02*
X2436729Y-660293D01*
X2436729Y-660293D02*
X2436729Y-612674D01*
X2436729Y-612674D02*
X2446253Y-574579D01*
X2446253Y-574579D02*
X2455777Y-555531D01*
X2455777Y-555531D02*
X2465301Y-546008D01*
X2465301Y-546008D02*
X2484348Y-536484D01*
X2741491Y-736484D02*
X2627206Y-736484D01*
X2684348Y-736484D02*
X2684348Y-536484D01*
X2684348Y-536484D02*
X2665301Y-565055D01*
X2665301Y-565055D02*
X2646253Y-584103D01*
X2646253Y-584103D02*
X2627206Y-593627D01*
X2931967Y-736484D02*
X2817682Y-736484D01*
X2874825Y-736484D02*
X2874825Y-536484D01*
X2874825Y-536484D02*
X2855777Y-565055D01*
X2855777Y-565055D02*
X2836729Y-584103D01*
X2836729Y-584103D02*
X2817682Y-593627D01*
X3046253Y-622198D02*
X3027206Y-612674D01*
X3027206Y-612674D02*
X3017682Y-603150D01*
X3017682Y-603150D02*
X3008158Y-584103D01*
X3008158Y-584103D02*
X3008158Y-574579D01*
X3008158Y-574579D02*
X3017682Y-555531D01*
X3017682Y-555531D02*
X3027206Y-546008D01*
X3027206Y-546008D02*
X3046253Y-536484D01*
X3046253Y-536484D02*
X3084348Y-536484D01*
X3084348Y-536484D02*
X3103396Y-546008D01*
X3103396Y-546008D02*
X3112920Y-555531D01*
X3112920Y-555531D02*
X3122444Y-574579D01*
X3122444Y-574579D02*
X3122444Y-584103D01*
X3122444Y-584103D02*
X3112920Y-603150D01*
X3112920Y-603150D02*
X3103396Y-612674D01*
X3103396Y-612674D02*
X3084348Y-622198D01*
X3084348Y-622198D02*
X3046253Y-622198D01*
X3046253Y-622198D02*
X3027206Y-631722D01*
X3027206Y-631722D02*
X3017682Y-641246D01*
X3017682Y-641246D02*
X3008158Y-660293D01*
X3008158Y-660293D02*
X3008158Y-698389D01*
X3008158Y-698389D02*
X3017682Y-717436D01*
X3017682Y-717436D02*
X3027206Y-726960D01*
X3027206Y-726960D02*
X3046253Y-736484D01*
X3046253Y-736484D02*
X3084348Y-736484D01*
X3084348Y-736484D02*
X3103396Y-726960D01*
X3103396Y-726960D02*
X3112920Y-717436D01*
X3112920Y-717436D02*
X3122444Y-698389D01*
X3122444Y-698389D02*
X3122444Y-660293D01*
X3122444Y-660293D02*
X3112920Y-641246D01*
X3112920Y-641246D02*
X3103396Y-631722D01*
X3103396Y-631722D02*
X3084348Y-622198D01*
X3198634Y-536484D02*
X3198634Y-574579D01*
X3274825Y-536484D02*
X3274825Y-574579D01*
X3570063Y-812674D02*
X3560539Y-803150D01*
X3560539Y-803150D02*
X3541491Y-774579D01*
X3541491Y-774579D02*
X3531968Y-755531D01*
X3531968Y-755531D02*
X3522444Y-726960D01*
X3522444Y-726960D02*
X3512920Y-679341D01*
X3512920Y-679341D02*
X3512920Y-641246D01*
X3512920Y-641246D02*
X3522444Y-593627D01*
X3522444Y-593627D02*
X3531968Y-565055D01*
X3531968Y-565055D02*
X3541491Y-546008D01*
X3541491Y-546008D02*
X3560539Y-517436D01*
X3560539Y-517436D02*
X3570063Y-507912D01*
X3731968Y-536484D02*
X3693872Y-536484D01*
X3693872Y-536484D02*
X3674825Y-546008D01*
X3674825Y-546008D02*
X3665301Y-555531D01*
X3665301Y-555531D02*
X3646253Y-584103D01*
X3646253Y-584103D02*
X3636729Y-622198D01*
X3636729Y-622198D02*
X3636729Y-698389D01*
X3636729Y-698389D02*
X3646253Y-717436D01*
X3646253Y-717436D02*
X3655777Y-726960D01*
X3655777Y-726960D02*
X3674825Y-736484D01*
X3674825Y-736484D02*
X3712920Y-736484D01*
X3712920Y-736484D02*
X3731968Y-726960D01*
X3731968Y-726960D02*
X3741491Y-717436D01*
X3741491Y-717436D02*
X3751015Y-698389D01*
X3751015Y-698389D02*
X3751015Y-650770D01*
X3751015Y-650770D02*
X3741491Y-631722D01*
X3741491Y-631722D02*
X3731968Y-622198D01*
X3731968Y-622198D02*
X3712920Y-612674D01*
X3712920Y-612674D02*
X3674825Y-612674D01*
X3674825Y-612674D02*
X3655777Y-622198D01*
X3655777Y-622198D02*
X3646253Y-631722D01*
X3646253Y-631722D02*
X3636729Y-650770D01*
X3865301Y-622198D02*
X3846253Y-612674D01*
X3846253Y-612674D02*
X3836729Y-603150D01*
X3836729Y-603150D02*
X3827206Y-584103D01*
X3827206Y-584103D02*
X3827206Y-574579D01*
X3827206Y-574579D02*
X3836729Y-555531D01*
X3836729Y-555531D02*
X3846253Y-546008D01*
X3846253Y-546008D02*
X3865301Y-536484D01*
X3865301Y-536484D02*
X3903396Y-536484D01*
X3903396Y-536484D02*
X3922444Y-546008D01*
X3922444Y-546008D02*
X3931968Y-555531D01*
X3931968Y-555531D02*
X3941491Y-574579D01*
X3941491Y-574579D02*
X3941491Y-584103D01*
X3941491Y-584103D02*
X3931968Y-603150D01*
X3931968Y-603150D02*
X3922444Y-612674D01*
X3922444Y-612674D02*
X3903396Y-622198D01*
X3903396Y-622198D02*
X3865301Y-622198D01*
X3865301Y-622198D02*
X3846253Y-631722D01*
X3846253Y-631722D02*
X3836729Y-641246D01*
X3836729Y-641246D02*
X3827206Y-660293D01*
X3827206Y-660293D02*
X3827206Y-698389D01*
X3827206Y-698389D02*
X3836729Y-717436D01*
X3836729Y-717436D02*
X3846253Y-726960D01*
X3846253Y-726960D02*
X3865301Y-736484D01*
X3865301Y-736484D02*
X3903396Y-736484D01*
X3903396Y-736484D02*
X3922444Y-726960D01*
X3922444Y-726960D02*
X3931968Y-717436D01*
X3931968Y-717436D02*
X3941491Y-698389D01*
X3941491Y-698389D02*
X3941491Y-660293D01*
X3941491Y-660293D02*
X3931968Y-641246D01*
X3931968Y-641246D02*
X3922444Y-631722D01*
X3922444Y-631722D02*
X3903396Y-622198D01*
X4179587Y-736484D02*
X4179587Y-536484D01*
X4265301Y-736484D02*
X4265301Y-631722D01*
X4265301Y-631722D02*
X4255777Y-612674D01*
X4255777Y-612674D02*
X4236730Y-603150D01*
X4236730Y-603150D02*
X4208158Y-603150D01*
X4208158Y-603150D02*
X4189110Y-612674D01*
X4189110Y-612674D02*
X4179587Y-622198D01*
X4389111Y-736484D02*
X4370063Y-726960D01*
X4370063Y-726960D02*
X4360539Y-717436D01*
X4360539Y-717436D02*
X4351015Y-698389D01*
X4351015Y-698389D02*
X4351015Y-641246D01*
X4351015Y-641246D02*
X4360539Y-622198D01*
X4360539Y-622198D02*
X4370063Y-612674D01*
X4370063Y-612674D02*
X4389111Y-603150D01*
X4389111Y-603150D02*
X4417682Y-603150D01*
X4417682Y-603150D02*
X4436730Y-612674D01*
X4436730Y-612674D02*
X4446253Y-622198D01*
X4446253Y-622198D02*
X4455777Y-641246D01*
X4455777Y-641246D02*
X4455777Y-698389D01*
X4455777Y-698389D02*
X4446253Y-717436D01*
X4446253Y-717436D02*
X4436730Y-726960D01*
X4436730Y-726960D02*
X4417682Y-736484D01*
X4417682Y-736484D02*
X4389111Y-736484D01*
X4570063Y-736484D02*
X4551015Y-726960D01*
X4551015Y-726960D02*
X4541492Y-707912D01*
X4541492Y-707912D02*
X4541492Y-536484D01*
X4722444Y-726960D02*
X4703396Y-736484D01*
X4703396Y-736484D02*
X4665301Y-736484D01*
X4665301Y-736484D02*
X4646253Y-726960D01*
X4646253Y-726960D02*
X4636730Y-707912D01*
X4636730Y-707912D02*
X4636730Y-631722D01*
X4636730Y-631722D02*
X4646253Y-612674D01*
X4646253Y-612674D02*
X4665301Y-603150D01*
X4665301Y-603150D02*
X4703396Y-603150D01*
X4703396Y-603150D02*
X4722444Y-612674D01*
X4722444Y-612674D02*
X4731968Y-631722D01*
X4731968Y-631722D02*
X4731968Y-650770D01*
X4731968Y-650770D02*
X4636730Y-669817D01*
X4808158Y-726960D02*
X4827206Y-736484D01*
X4827206Y-736484D02*
X4865301Y-736484D01*
X4865301Y-736484D02*
X4884349Y-726960D01*
X4884349Y-726960D02*
X4893873Y-707912D01*
X4893873Y-707912D02*
X4893873Y-698389D01*
X4893873Y-698389D02*
X4884349Y-679341D01*
X4884349Y-679341D02*
X4865301Y-669817D01*
X4865301Y-669817D02*
X4836730Y-669817D01*
X4836730Y-669817D02*
X4817682Y-660293D01*
X4817682Y-660293D02*
X4808158Y-641246D01*
X4808158Y-641246D02*
X4808158Y-631722D01*
X4808158Y-631722D02*
X4817682Y-612674D01*
X4817682Y-612674D02*
X4836730Y-603150D01*
X4836730Y-603150D02*
X4865301Y-603150D01*
X4865301Y-603150D02*
X4884349Y-612674D01*
X4960539Y-812674D02*
X4970063Y-803150D01*
X4970063Y-803150D02*
X4989111Y-774579D01*
X4989111Y-774579D02*
X4998634Y-755531D01*
X4998634Y-755531D02*
X5008158Y-726960D01*
X5008158Y-726960D02*
X5017682Y-679341D01*
X5017682Y-679341D02*
X5017682Y-641246D01*
X5017682Y-641246D02*
X5008158Y-593627D01*
X5008158Y-593627D02*
X4998634Y-565055D01*
X4998634Y-565055D02*
X4989111Y-546008D01*
X4989111Y-546008D02*
X4970063Y-517436D01*
X4970063Y-517436D02*
X4960539Y-507912D01*
D10*
X-5000Y-909000D02*
G75*
G02*
X-35000Y-909000I-15000J0D01*
G01*
X-35000Y-909000D02*
G75*
G02*
X-5000Y-909000I15000J0D01*
G01*
D11*
X293872Y-800484D02*
X312920Y-800484D01*
X312920Y-800484D02*
X331967Y-810008D01*
X331967Y-810008D02*
X341491Y-819531D01*
X341491Y-819531D02*
X351015Y-838579D01*
X351015Y-838579D02*
X360539Y-876674D01*
X360539Y-876674D02*
X360539Y-924293D01*
X360539Y-924293D02*
X351015Y-962388D01*
X351015Y-962388D02*
X341491Y-981436D01*
X341491Y-981436D02*
X331967Y-990960D01*
X331967Y-990960D02*
X312920Y-1000484D01*
X312920Y-1000484D02*
X293872Y-1000484D01*
X293872Y-1000484D02*
X274824Y-990960D01*
X274824Y-990960D02*
X265301Y-981436D01*
X265301Y-981436D02*
X255777Y-962388D01*
X255777Y-962388D02*
X246253Y-924293D01*
X246253Y-924293D02*
X246253Y-876674D01*
X246253Y-876674D02*
X255777Y-838579D01*
X255777Y-838579D02*
X265301Y-819531D01*
X265301Y-819531D02*
X274824Y-810008D01*
X274824Y-810008D02*
X293872Y-800484D01*
X455777Y-990960D02*
X455777Y-1000484D01*
X455777Y-1000484D02*
X446253Y-1019531D01*
X446253Y-1019531D02*
X436729Y-1029055D01*
X522443Y-800484D02*
X646253Y-800484D01*
X646253Y-800484D02*
X579586Y-876674D01*
X579586Y-876674D02*
X608158Y-876674D01*
X608158Y-876674D02*
X627205Y-886198D01*
X627205Y-886198D02*
X636729Y-895722D01*
X636729Y-895722D02*
X646253Y-914769D01*
X646253Y-914769D02*
X646253Y-962388D01*
X646253Y-962388D02*
X636729Y-981436D01*
X636729Y-981436D02*
X627205Y-990960D01*
X627205Y-990960D02*
X608158Y-1000484D01*
X608158Y-1000484D02*
X551015Y-1000484D01*
X551015Y-1000484D02*
X531967Y-990960D01*
X531967Y-990960D02*
X522443Y-981436D01*
X770062Y-800484D02*
X789110Y-800484D01*
X789110Y-800484D02*
X808158Y-810008D01*
X808158Y-810008D02*
X817682Y-819531D01*
X817682Y-819531D02*
X827205Y-838579D01*
X827205Y-838579D02*
X836729Y-876674D01*
X836729Y-876674D02*
X836729Y-924293D01*
X836729Y-924293D02*
X827205Y-962388D01*
X827205Y-962388D02*
X817682Y-981436D01*
X817682Y-981436D02*
X808158Y-990960D01*
X808158Y-990960D02*
X789110Y-1000484D01*
X789110Y-1000484D02*
X770062Y-1000484D01*
X770062Y-1000484D02*
X751015Y-990960D01*
X751015Y-990960D02*
X741491Y-981436D01*
X741491Y-981436D02*
X731967Y-962388D01*
X731967Y-962388D02*
X722443Y-924293D01*
X722443Y-924293D02*
X722443Y-876674D01*
X722443Y-876674D02*
X731967Y-838579D01*
X731967Y-838579D02*
X741491Y-819531D01*
X741491Y-819531D02*
X751015Y-810008D01*
X751015Y-810008D02*
X770062Y-800484D01*
X960539Y-800484D02*
X979586Y-800484D01*
X979586Y-800484D02*
X998634Y-810008D01*
X998634Y-810008D02*
X1008158Y-819531D01*
X1008158Y-819531D02*
X1017682Y-838579D01*
X1017682Y-838579D02*
X1027205Y-876674D01*
X1027205Y-876674D02*
X1027205Y-924293D01*
X1027205Y-924293D02*
X1017682Y-962388D01*
X1017682Y-962388D02*
X1008158Y-981436D01*
X1008158Y-981436D02*
X998634Y-990960D01*
X998634Y-990960D02*
X979586Y-1000484D01*
X979586Y-1000484D02*
X960539Y-1000484D01*
X960539Y-1000484D02*
X941491Y-990960D01*
X941491Y-990960D02*
X931967Y-981436D01*
X931967Y-981436D02*
X922443Y-962388D01*
X922443Y-962388D02*
X912920Y-924293D01*
X912920Y-924293D02*
X912920Y-876674D01*
X912920Y-876674D02*
X922443Y-838579D01*
X922443Y-838579D02*
X931967Y-819531D01*
X931967Y-819531D02*
X941491Y-810008D01*
X941491Y-810008D02*
X960539Y-800484D01*
X1112920Y-1000484D02*
X1112920Y-867150D01*
X1112920Y-886198D02*
X1122444Y-876674D01*
X1122444Y-876674D02*
X1141491Y-867150D01*
X1141491Y-867150D02*
X1170063Y-867150D01*
X1170063Y-867150D02*
X1189110Y-876674D01*
X1189110Y-876674D02*
X1198634Y-895722D01*
X1198634Y-895722D02*
X1198634Y-1000484D01*
X1198634Y-895722D02*
X1208158Y-876674D01*
X1208158Y-876674D02*
X1227205Y-867150D01*
X1227205Y-867150D02*
X1255777Y-867150D01*
X1255777Y-867150D02*
X1274825Y-876674D01*
X1274825Y-876674D02*
X1284348Y-895722D01*
X1284348Y-895722D02*
X1284348Y-1000484D01*
X1379586Y-1000484D02*
X1379586Y-867150D01*
X1379586Y-886198D02*
X1389110Y-876674D01*
X1389110Y-876674D02*
X1408158Y-867150D01*
X1408158Y-867150D02*
X1436729Y-867150D01*
X1436729Y-867150D02*
X1455777Y-876674D01*
X1455777Y-876674D02*
X1465301Y-895722D01*
X1465301Y-895722D02*
X1465301Y-1000484D01*
X1465301Y-895722D02*
X1474824Y-876674D01*
X1474824Y-876674D02*
X1493872Y-867150D01*
X1493872Y-867150D02*
X1522443Y-867150D01*
X1522443Y-867150D02*
X1541491Y-876674D01*
X1541491Y-876674D02*
X1551015Y-895722D01*
X1551015Y-895722D02*
X1551015Y-1000484D01*
X1941491Y-790960D02*
X1770063Y-1048103D01*
X2198634Y-800484D02*
X2217682Y-800484D01*
X2217682Y-800484D02*
X2236729Y-810008D01*
X2236729Y-810008D02*
X2246253Y-819531D01*
X2246253Y-819531D02*
X2255777Y-838579D01*
X2255777Y-838579D02*
X2265301Y-876674D01*
X2265301Y-876674D02*
X2265301Y-924293D01*
X2265301Y-924293D02*
X2255777Y-962388D01*
X2255777Y-962388D02*
X2246253Y-981436D01*
X2246253Y-981436D02*
X2236729Y-990960D01*
X2236729Y-990960D02*
X2217682Y-1000484D01*
X2217682Y-1000484D02*
X2198634Y-1000484D01*
X2198634Y-1000484D02*
X2179587Y-990960D01*
X2179587Y-990960D02*
X2170063Y-981436D01*
X2170063Y-981436D02*
X2160539Y-962388D01*
X2160539Y-962388D02*
X2151015Y-924293D01*
X2151015Y-924293D02*
X2151015Y-876674D01*
X2151015Y-876674D02*
X2160539Y-838579D01*
X2160539Y-838579D02*
X2170063Y-819531D01*
X2170063Y-819531D02*
X2179587Y-810008D01*
X2179587Y-810008D02*
X2198634Y-800484D01*
X2360539Y-990960D02*
X2360539Y-1000484D01*
X2360539Y-1000484D02*
X2351015Y-1019531D01*
X2351015Y-1019531D02*
X2341491Y-1029055D01*
X2484348Y-800484D02*
X2503396Y-800484D01*
X2503396Y-800484D02*
X2522444Y-810008D01*
X2522444Y-810008D02*
X2531968Y-819531D01*
X2531968Y-819531D02*
X2541491Y-838579D01*
X2541491Y-838579D02*
X2551015Y-876674D01*
X2551015Y-876674D02*
X2551015Y-924293D01*
X2551015Y-924293D02*
X2541491Y-962388D01*
X2541491Y-962388D02*
X2531968Y-981436D01*
X2531968Y-981436D02*
X2522444Y-990960D01*
X2522444Y-990960D02*
X2503396Y-1000484D01*
X2503396Y-1000484D02*
X2484348Y-1000484D01*
X2484348Y-1000484D02*
X2465301Y-990960D01*
X2465301Y-990960D02*
X2455777Y-981436D01*
X2455777Y-981436D02*
X2446253Y-962388D01*
X2446253Y-962388D02*
X2436729Y-924293D01*
X2436729Y-924293D02*
X2436729Y-876674D01*
X2436729Y-876674D02*
X2446253Y-838579D01*
X2446253Y-838579D02*
X2455777Y-819531D01*
X2455777Y-819531D02*
X2465301Y-810008D01*
X2465301Y-810008D02*
X2484348Y-800484D01*
X2741491Y-1000484D02*
X2627206Y-1000484D01*
X2684348Y-1000484D02*
X2684348Y-800484D01*
X2684348Y-800484D02*
X2665301Y-829055D01*
X2665301Y-829055D02*
X2646253Y-848103D01*
X2646253Y-848103D02*
X2627206Y-857627D01*
X2931967Y-1000484D02*
X2817682Y-1000484D01*
X2874825Y-1000484D02*
X2874825Y-800484D01*
X2874825Y-800484D02*
X2855777Y-829055D01*
X2855777Y-829055D02*
X2836729Y-848103D01*
X2836729Y-848103D02*
X2817682Y-857627D01*
X3046253Y-886198D02*
X3027206Y-876674D01*
X3027206Y-876674D02*
X3017682Y-867150D01*
X3017682Y-867150D02*
X3008158Y-848103D01*
X3008158Y-848103D02*
X3008158Y-838579D01*
X3008158Y-838579D02*
X3017682Y-819531D01*
X3017682Y-819531D02*
X3027206Y-810008D01*
X3027206Y-810008D02*
X3046253Y-800484D01*
X3046253Y-800484D02*
X3084348Y-800484D01*
X3084348Y-800484D02*
X3103396Y-810008D01*
X3103396Y-810008D02*
X3112920Y-819531D01*
X3112920Y-819531D02*
X3122444Y-838579D01*
X3122444Y-838579D02*
X3122444Y-848103D01*
X3122444Y-848103D02*
X3112920Y-867150D01*
X3112920Y-867150D02*
X3103396Y-876674D01*
X3103396Y-876674D02*
X3084348Y-886198D01*
X3084348Y-886198D02*
X3046253Y-886198D01*
X3046253Y-886198D02*
X3027206Y-895722D01*
X3027206Y-895722D02*
X3017682Y-905246D01*
X3017682Y-905246D02*
X3008158Y-924293D01*
X3008158Y-924293D02*
X3008158Y-962388D01*
X3008158Y-962388D02*
X3017682Y-981436D01*
X3017682Y-981436D02*
X3027206Y-990960D01*
X3027206Y-990960D02*
X3046253Y-1000484D01*
X3046253Y-1000484D02*
X3084348Y-1000484D01*
X3084348Y-1000484D02*
X3103396Y-990960D01*
X3103396Y-990960D02*
X3112920Y-981436D01*
X3112920Y-981436D02*
X3122444Y-962388D01*
X3122444Y-962388D02*
X3122444Y-924293D01*
X3122444Y-924293D02*
X3112920Y-905246D01*
X3112920Y-905246D02*
X3103396Y-895722D01*
X3103396Y-895722D02*
X3084348Y-886198D01*
X3198634Y-800484D02*
X3198634Y-838579D01*
X3274825Y-800484D02*
X3274825Y-838579D01*
X3570063Y-1076674D02*
X3560539Y-1067150D01*
X3560539Y-1067150D02*
X3541491Y-1038579D01*
X3541491Y-1038579D02*
X3531968Y-1019531D01*
X3531968Y-1019531D02*
X3522444Y-990960D01*
X3522444Y-990960D02*
X3512920Y-943341D01*
X3512920Y-943341D02*
X3512920Y-905246D01*
X3512920Y-905246D02*
X3522444Y-857627D01*
X3522444Y-857627D02*
X3531968Y-829055D01*
X3531968Y-829055D02*
X3541491Y-810008D01*
X3541491Y-810008D02*
X3560539Y-781436D01*
X3560539Y-781436D02*
X3570063Y-771912D01*
X3636729Y-819531D02*
X3646253Y-810008D01*
X3646253Y-810008D02*
X3665301Y-800484D01*
X3665301Y-800484D02*
X3712920Y-800484D01*
X3712920Y-800484D02*
X3731968Y-810008D01*
X3731968Y-810008D02*
X3741491Y-819531D01*
X3741491Y-819531D02*
X3751015Y-838579D01*
X3751015Y-838579D02*
X3751015Y-857627D01*
X3751015Y-857627D02*
X3741491Y-886198D01*
X3741491Y-886198D02*
X3627206Y-1000484D01*
X3627206Y-1000484D02*
X3751015Y-1000484D01*
X3874825Y-800484D02*
X3893872Y-800484D01*
X3893872Y-800484D02*
X3912920Y-810008D01*
X3912920Y-810008D02*
X3922444Y-819531D01*
X3922444Y-819531D02*
X3931968Y-838579D01*
X3931968Y-838579D02*
X3941491Y-876674D01*
X3941491Y-876674D02*
X3941491Y-924293D01*
X3941491Y-924293D02*
X3931968Y-962388D01*
X3931968Y-962388D02*
X3922444Y-981436D01*
X3922444Y-981436D02*
X3912920Y-990960D01*
X3912920Y-990960D02*
X3893872Y-1000484D01*
X3893872Y-1000484D02*
X3874825Y-1000484D01*
X3874825Y-1000484D02*
X3855777Y-990960D01*
X3855777Y-990960D02*
X3846253Y-981436D01*
X3846253Y-981436D02*
X3836729Y-962388D01*
X3836729Y-962388D02*
X3827206Y-924293D01*
X3827206Y-924293D02*
X3827206Y-876674D01*
X3827206Y-876674D02*
X3836729Y-838579D01*
X3836729Y-838579D02*
X3846253Y-819531D01*
X3846253Y-819531D02*
X3855777Y-810008D01*
X3855777Y-810008D02*
X3874825Y-800484D01*
X4179587Y-1000484D02*
X4179587Y-800484D01*
X4265301Y-1000484D02*
X4265301Y-895722D01*
X4265301Y-895722D02*
X4255777Y-876674D01*
X4255777Y-876674D02*
X4236730Y-867150D01*
X4236730Y-867150D02*
X4208158Y-867150D01*
X4208158Y-867150D02*
X4189110Y-876674D01*
X4189110Y-876674D02*
X4179587Y-886198D01*
X4389111Y-1000484D02*
X4370063Y-990960D01*
X4370063Y-990960D02*
X4360539Y-981436D01*
X4360539Y-981436D02*
X4351015Y-962388D01*
X4351015Y-962388D02*
X4351015Y-905246D01*
X4351015Y-905246D02*
X4360539Y-886198D01*
X4360539Y-886198D02*
X4370063Y-876674D01*
X4370063Y-876674D02*
X4389111Y-867150D01*
X4389111Y-867150D02*
X4417682Y-867150D01*
X4417682Y-867150D02*
X4436730Y-876674D01*
X4436730Y-876674D02*
X4446253Y-886198D01*
X4446253Y-886198D02*
X4455777Y-905246D01*
X4455777Y-905246D02*
X4455777Y-962388D01*
X4455777Y-962388D02*
X4446253Y-981436D01*
X4446253Y-981436D02*
X4436730Y-990960D01*
X4436730Y-990960D02*
X4417682Y-1000484D01*
X4417682Y-1000484D02*
X4389111Y-1000484D01*
X4570063Y-1000484D02*
X4551015Y-990960D01*
X4551015Y-990960D02*
X4541492Y-971912D01*
X4541492Y-971912D02*
X4541492Y-800484D01*
X4722444Y-990960D02*
X4703396Y-1000484D01*
X4703396Y-1000484D02*
X4665301Y-1000484D01*
X4665301Y-1000484D02*
X4646253Y-990960D01*
X4646253Y-990960D02*
X4636730Y-971912D01*
X4636730Y-971912D02*
X4636730Y-895722D01*
X4636730Y-895722D02*
X4646253Y-876674D01*
X4646253Y-876674D02*
X4665301Y-867150D01*
X4665301Y-867150D02*
X4703396Y-867150D01*
X4703396Y-867150D02*
X4722444Y-876674D01*
X4722444Y-876674D02*
X4731968Y-895722D01*
X4731968Y-895722D02*
X4731968Y-914769D01*
X4731968Y-914769D02*
X4636730Y-933817D01*
X4808158Y-990960D02*
X4827206Y-1000484D01*
X4827206Y-1000484D02*
X4865301Y-1000484D01*
X4865301Y-1000484D02*
X4884349Y-990960D01*
X4884349Y-990960D02*
X4893873Y-971912D01*
X4893873Y-971912D02*
X4893873Y-962388D01*
X4893873Y-962388D02*
X4884349Y-943341D01*
X4884349Y-943341D02*
X4865301Y-933817D01*
X4865301Y-933817D02*
X4836730Y-933817D01*
X4836730Y-933817D02*
X4817682Y-924293D01*
X4817682Y-924293D02*
X4808158Y-905246D01*
X4808158Y-905246D02*
X4808158Y-895722D01*
X4808158Y-895722D02*
X4817682Y-876674D01*
X4817682Y-876674D02*
X4836730Y-867150D01*
X4836730Y-867150D02*
X4865301Y-867150D01*
X4865301Y-867150D02*
X4884349Y-876674D01*
X4960539Y-1076674D02*
X4970063Y-1067150D01*
X4970063Y-1067150D02*
X4989111Y-1038579D01*
X4989111Y-1038579D02*
X4998634Y-1019531D01*
X4998634Y-1019531D02*
X5008158Y-990960D01*
X5008158Y-990960D02*
X5017682Y-943341D01*
X5017682Y-943341D02*
X5017682Y-905246D01*
X5017682Y-905246D02*
X5008158Y-857627D01*
X5008158Y-857627D02*
X4998634Y-829055D01*
X4998634Y-829055D02*
X4989111Y-810008D01*
X4989111Y-810008D02*
X4970063Y-781436D01*
X4970063Y-781436D02*
X4960539Y-771912D01*
D12*
X-80000Y-1098000D02*
X-80000Y-1248000D01*
X-155000Y-1173000D02*
X-5000Y-1173000D01*
D11*
X360539Y-1264484D02*
X246253Y-1264484D01*
X303396Y-1264484D02*
X303396Y-1064484D01*
X303396Y-1064484D02*
X284348Y-1093055D01*
X284348Y-1093055D02*
X265301Y-1112103D01*
X265301Y-1112103D02*
X246253Y-1121627D01*
X455777Y-1254960D02*
X455777Y-1264484D01*
X455777Y-1264484D02*
X446253Y-1283531D01*
X446253Y-1283531D02*
X436729Y-1293055D01*
X636729Y-1064484D02*
X541491Y-1064484D01*
X541491Y-1064484D02*
X531967Y-1159722D01*
X531967Y-1159722D02*
X541491Y-1150198D01*
X541491Y-1150198D02*
X560539Y-1140674D01*
X560539Y-1140674D02*
X608158Y-1140674D01*
X608158Y-1140674D02*
X627205Y-1150198D01*
X627205Y-1150198D02*
X636729Y-1159722D01*
X636729Y-1159722D02*
X646253Y-1178770D01*
X646253Y-1178770D02*
X646253Y-1226389D01*
X646253Y-1226389D02*
X636729Y-1245436D01*
X636729Y-1245436D02*
X627205Y-1254960D01*
X627205Y-1254960D02*
X608158Y-1264484D01*
X608158Y-1264484D02*
X560539Y-1264484D01*
X560539Y-1264484D02*
X541491Y-1254960D01*
X541491Y-1254960D02*
X531967Y-1245436D01*
X770062Y-1064484D02*
X789110Y-1064484D01*
X789110Y-1064484D02*
X808158Y-1074008D01*
X808158Y-1074008D02*
X817682Y-1083531D01*
X817682Y-1083531D02*
X827205Y-1102579D01*
X827205Y-1102579D02*
X836729Y-1140674D01*
X836729Y-1140674D02*
X836729Y-1188293D01*
X836729Y-1188293D02*
X827205Y-1226389D01*
X827205Y-1226389D02*
X817682Y-1245436D01*
X817682Y-1245436D02*
X808158Y-1254960D01*
X808158Y-1254960D02*
X789110Y-1264484D01*
X789110Y-1264484D02*
X770062Y-1264484D01*
X770062Y-1264484D02*
X751015Y-1254960D01*
X751015Y-1254960D02*
X741491Y-1245436D01*
X741491Y-1245436D02*
X731967Y-1226389D01*
X731967Y-1226389D02*
X722443Y-1188293D01*
X722443Y-1188293D02*
X722443Y-1140674D01*
X722443Y-1140674D02*
X731967Y-1102579D01*
X731967Y-1102579D02*
X741491Y-1083531D01*
X741491Y-1083531D02*
X751015Y-1074008D01*
X751015Y-1074008D02*
X770062Y-1064484D01*
X960539Y-1064484D02*
X979586Y-1064484D01*
X979586Y-1064484D02*
X998634Y-1074008D01*
X998634Y-1074008D02*
X1008158Y-1083531D01*
X1008158Y-1083531D02*
X1017682Y-1102579D01*
X1017682Y-1102579D02*
X1027205Y-1140674D01*
X1027205Y-1140674D02*
X1027205Y-1188293D01*
X1027205Y-1188293D02*
X1017682Y-1226389D01*
X1017682Y-1226389D02*
X1008158Y-1245436D01*
X1008158Y-1245436D02*
X998634Y-1254960D01*
X998634Y-1254960D02*
X979586Y-1264484D01*
X979586Y-1264484D02*
X960539Y-1264484D01*
X960539Y-1264484D02*
X941491Y-1254960D01*
X941491Y-1254960D02*
X931967Y-1245436D01*
X931967Y-1245436D02*
X922443Y-1226389D01*
X922443Y-1226389D02*
X912920Y-1188293D01*
X912920Y-1188293D02*
X912920Y-1140674D01*
X912920Y-1140674D02*
X922443Y-1102579D01*
X922443Y-1102579D02*
X931967Y-1083531D01*
X931967Y-1083531D02*
X941491Y-1074008D01*
X941491Y-1074008D02*
X960539Y-1064484D01*
X1112920Y-1264484D02*
X1112920Y-1131150D01*
X1112920Y-1150198D02*
X1122444Y-1140674D01*
X1122444Y-1140674D02*
X1141491Y-1131150D01*
X1141491Y-1131150D02*
X1170063Y-1131150D01*
X1170063Y-1131150D02*
X1189110Y-1140674D01*
X1189110Y-1140674D02*
X1198634Y-1159722D01*
X1198634Y-1159722D02*
X1198634Y-1264484D01*
X1198634Y-1159722D02*
X1208158Y-1140674D01*
X1208158Y-1140674D02*
X1227205Y-1131150D01*
X1227205Y-1131150D02*
X1255777Y-1131150D01*
X1255777Y-1131150D02*
X1274825Y-1140674D01*
X1274825Y-1140674D02*
X1284348Y-1159722D01*
X1284348Y-1159722D02*
X1284348Y-1264484D01*
X1379586Y-1264484D02*
X1379586Y-1131150D01*
X1379586Y-1150198D02*
X1389110Y-1140674D01*
X1389110Y-1140674D02*
X1408158Y-1131150D01*
X1408158Y-1131150D02*
X1436729Y-1131150D01*
X1436729Y-1131150D02*
X1455777Y-1140674D01*
X1455777Y-1140674D02*
X1465301Y-1159722D01*
X1465301Y-1159722D02*
X1465301Y-1264484D01*
X1465301Y-1159722D02*
X1474824Y-1140674D01*
X1474824Y-1140674D02*
X1493872Y-1131150D01*
X1493872Y-1131150D02*
X1522443Y-1131150D01*
X1522443Y-1131150D02*
X1541491Y-1140674D01*
X1541491Y-1140674D02*
X1551015Y-1159722D01*
X1551015Y-1159722D02*
X1551015Y-1264484D01*
X1941491Y-1054960D02*
X1770063Y-1312103D01*
X2198634Y-1064484D02*
X2217682Y-1064484D01*
X2217682Y-1064484D02*
X2236729Y-1074008D01*
X2236729Y-1074008D02*
X2246253Y-1083531D01*
X2246253Y-1083531D02*
X2255777Y-1102579D01*
X2255777Y-1102579D02*
X2265301Y-1140674D01*
X2265301Y-1140674D02*
X2265301Y-1188293D01*
X2265301Y-1188293D02*
X2255777Y-1226389D01*
X2255777Y-1226389D02*
X2246253Y-1245436D01*
X2246253Y-1245436D02*
X2236729Y-1254960D01*
X2236729Y-1254960D02*
X2217682Y-1264484D01*
X2217682Y-1264484D02*
X2198634Y-1264484D01*
X2198634Y-1264484D02*
X2179587Y-1254960D01*
X2179587Y-1254960D02*
X2170063Y-1245436D01*
X2170063Y-1245436D02*
X2160539Y-1226389D01*
X2160539Y-1226389D02*
X2151015Y-1188293D01*
X2151015Y-1188293D02*
X2151015Y-1140674D01*
X2151015Y-1140674D02*
X2160539Y-1102579D01*
X2160539Y-1102579D02*
X2170063Y-1083531D01*
X2170063Y-1083531D02*
X2179587Y-1074008D01*
X2179587Y-1074008D02*
X2198634Y-1064484D01*
X2360539Y-1254960D02*
X2360539Y-1264484D01*
X2360539Y-1264484D02*
X2351015Y-1283531D01*
X2351015Y-1283531D02*
X2341491Y-1293055D01*
X2484348Y-1064484D02*
X2503396Y-1064484D01*
X2503396Y-1064484D02*
X2522444Y-1074008D01*
X2522444Y-1074008D02*
X2531968Y-1083531D01*
X2531968Y-1083531D02*
X2541491Y-1102579D01*
X2541491Y-1102579D02*
X2551015Y-1140674D01*
X2551015Y-1140674D02*
X2551015Y-1188293D01*
X2551015Y-1188293D02*
X2541491Y-1226389D01*
X2541491Y-1226389D02*
X2531968Y-1245436D01*
X2531968Y-1245436D02*
X2522444Y-1254960D01*
X2522444Y-1254960D02*
X2503396Y-1264484D01*
X2503396Y-1264484D02*
X2484348Y-1264484D01*
X2484348Y-1264484D02*
X2465301Y-1254960D01*
X2465301Y-1254960D02*
X2455777Y-1245436D01*
X2455777Y-1245436D02*
X2446253Y-1226389D01*
X2446253Y-1226389D02*
X2436729Y-1188293D01*
X2436729Y-1188293D02*
X2436729Y-1140674D01*
X2436729Y-1140674D02*
X2446253Y-1102579D01*
X2446253Y-1102579D02*
X2455777Y-1083531D01*
X2455777Y-1083531D02*
X2465301Y-1074008D01*
X2465301Y-1074008D02*
X2484348Y-1064484D01*
X2731968Y-1064484D02*
X2636729Y-1064484D01*
X2636729Y-1064484D02*
X2627206Y-1159722D01*
X2627206Y-1159722D02*
X2636729Y-1150198D01*
X2636729Y-1150198D02*
X2655777Y-1140674D01*
X2655777Y-1140674D02*
X2703396Y-1140674D01*
X2703396Y-1140674D02*
X2722444Y-1150198D01*
X2722444Y-1150198D02*
X2731968Y-1159722D01*
X2731968Y-1159722D02*
X2741491Y-1178770D01*
X2741491Y-1178770D02*
X2741491Y-1226389D01*
X2741491Y-1226389D02*
X2731968Y-1245436D01*
X2731968Y-1245436D02*
X2722444Y-1254960D01*
X2722444Y-1254960D02*
X2703396Y-1264484D01*
X2703396Y-1264484D02*
X2655777Y-1264484D01*
X2655777Y-1264484D02*
X2636729Y-1254960D01*
X2636729Y-1254960D02*
X2627206Y-1245436D01*
X2836729Y-1264484D02*
X2874825Y-1264484D01*
X2874825Y-1264484D02*
X2893872Y-1254960D01*
X2893872Y-1254960D02*
X2903396Y-1245436D01*
X2903396Y-1245436D02*
X2922444Y-1216865D01*
X2922444Y-1216865D02*
X2931967Y-1178770D01*
X2931967Y-1178770D02*
X2931967Y-1102579D01*
X2931967Y-1102579D02*
X2922444Y-1083531D01*
X2922444Y-1083531D02*
X2912920Y-1074008D01*
X2912920Y-1074008D02*
X2893872Y-1064484D01*
X2893872Y-1064484D02*
X2855777Y-1064484D01*
X2855777Y-1064484D02*
X2836729Y-1074008D01*
X2836729Y-1074008D02*
X2827206Y-1083531D01*
X2827206Y-1083531D02*
X2817682Y-1102579D01*
X2817682Y-1102579D02*
X2817682Y-1150198D01*
X2817682Y-1150198D02*
X2827206Y-1169246D01*
X2827206Y-1169246D02*
X2836729Y-1178770D01*
X2836729Y-1178770D02*
X2855777Y-1188293D01*
X2855777Y-1188293D02*
X2893872Y-1188293D01*
X2893872Y-1188293D02*
X2912920Y-1178770D01*
X2912920Y-1178770D02*
X2922444Y-1169246D01*
X2922444Y-1169246D02*
X2931967Y-1150198D01*
X3122444Y-1264484D02*
X3008158Y-1264484D01*
X3065301Y-1264484D02*
X3065301Y-1064484D01*
X3065301Y-1064484D02*
X3046253Y-1093055D01*
X3046253Y-1093055D02*
X3027206Y-1112103D01*
X3027206Y-1112103D02*
X3008158Y-1121627D01*
X3198634Y-1064484D02*
X3198634Y-1102579D01*
X3274825Y-1064484D02*
X3274825Y-1102579D01*
X3570063Y-1340674D02*
X3560539Y-1331150D01*
X3560539Y-1331150D02*
X3541491Y-1302579D01*
X3541491Y-1302579D02*
X3531968Y-1283531D01*
X3531968Y-1283531D02*
X3522444Y-1254960D01*
X3522444Y-1254960D02*
X3512920Y-1207341D01*
X3512920Y-1207341D02*
X3512920Y-1169246D01*
X3512920Y-1169246D02*
X3522444Y-1121627D01*
X3522444Y-1121627D02*
X3531968Y-1093055D01*
X3531968Y-1093055D02*
X3541491Y-1074008D01*
X3541491Y-1074008D02*
X3560539Y-1045436D01*
X3560539Y-1045436D02*
X3570063Y-1035912D01*
X3636729Y-1083531D02*
X3646253Y-1074008D01*
X3646253Y-1074008D02*
X3665301Y-1064484D01*
X3665301Y-1064484D02*
X3712920Y-1064484D01*
X3712920Y-1064484D02*
X3731968Y-1074008D01*
X3731968Y-1074008D02*
X3741491Y-1083531D01*
X3741491Y-1083531D02*
X3751015Y-1102579D01*
X3751015Y-1102579D02*
X3751015Y-1121627D01*
X3751015Y-1121627D02*
X3741491Y-1150198D01*
X3741491Y-1150198D02*
X3627206Y-1264484D01*
X3627206Y-1264484D02*
X3751015Y-1264484D01*
X3989110Y-1264484D02*
X3989110Y-1064484D01*
X4074825Y-1264484D02*
X4074825Y-1159722D01*
X4074825Y-1159722D02*
X4065301Y-1140674D01*
X4065301Y-1140674D02*
X4046253Y-1131150D01*
X4046253Y-1131150D02*
X4017682Y-1131150D01*
X4017682Y-1131150D02*
X3998634Y-1140674D01*
X3998634Y-1140674D02*
X3989110Y-1150198D01*
X4198634Y-1264484D02*
X4179587Y-1254960D01*
X4179587Y-1254960D02*
X4170063Y-1245436D01*
X4170063Y-1245436D02*
X4160539Y-1226389D01*
X4160539Y-1226389D02*
X4160539Y-1169246D01*
X4160539Y-1169246D02*
X4170063Y-1150198D01*
X4170063Y-1150198D02*
X4179587Y-1140674D01*
X4179587Y-1140674D02*
X4198634Y-1131150D01*
X4198634Y-1131150D02*
X4227206Y-1131150D01*
X4227206Y-1131150D02*
X4246253Y-1140674D01*
X4246253Y-1140674D02*
X4255777Y-1150198D01*
X4255777Y-1150198D02*
X4265301Y-1169246D01*
X4265301Y-1169246D02*
X4265301Y-1226389D01*
X4265301Y-1226389D02*
X4255777Y-1245436D01*
X4255777Y-1245436D02*
X4246253Y-1254960D01*
X4246253Y-1254960D02*
X4227206Y-1264484D01*
X4227206Y-1264484D02*
X4198634Y-1264484D01*
X4379587Y-1264484D02*
X4360539Y-1254960D01*
X4360539Y-1254960D02*
X4351015Y-1235912D01*
X4351015Y-1235912D02*
X4351015Y-1064484D01*
X4531968Y-1254960D02*
X4512920Y-1264484D01*
X4512920Y-1264484D02*
X4474825Y-1264484D01*
X4474825Y-1264484D02*
X4455777Y-1254960D01*
X4455777Y-1254960D02*
X4446253Y-1235912D01*
X4446253Y-1235912D02*
X4446253Y-1159722D01*
X4446253Y-1159722D02*
X4455777Y-1140674D01*
X4455777Y-1140674D02*
X4474825Y-1131150D01*
X4474825Y-1131150D02*
X4512920Y-1131150D01*
X4512920Y-1131150D02*
X4531968Y-1140674D01*
X4531968Y-1140674D02*
X4541492Y-1159722D01*
X4541492Y-1159722D02*
X4541492Y-1178770D01*
X4541492Y-1178770D02*
X4446253Y-1197817D01*
X4617682Y-1254960D02*
X4636730Y-1264484D01*
X4636730Y-1264484D02*
X4674825Y-1264484D01*
X4674825Y-1264484D02*
X4693873Y-1254960D01*
X4693873Y-1254960D02*
X4703396Y-1235912D01*
X4703396Y-1235912D02*
X4703396Y-1226389D01*
X4703396Y-1226389D02*
X4693873Y-1207341D01*
X4693873Y-1207341D02*
X4674825Y-1197817D01*
X4674825Y-1197817D02*
X4646253Y-1197817D01*
X4646253Y-1197817D02*
X4627206Y-1188293D01*
X4627206Y-1188293D02*
X4617682Y-1169246D01*
X4617682Y-1169246D02*
X4617682Y-1159722D01*
X4617682Y-1159722D02*
X4627206Y-1140674D01*
X4627206Y-1140674D02*
X4646253Y-1131150D01*
X4646253Y-1131150D02*
X4674825Y-1131150D01*
X4674825Y-1131150D02*
X4693873Y-1140674D01*
X4770063Y-1340674D02*
X4779587Y-1331150D01*
X4779587Y-1331150D02*
X4798634Y-1302579D01*
X4798634Y-1302579D02*
X4808158Y-1283531D01*
X4808158Y-1283531D02*
X4817682Y-1254960D01*
X4817682Y-1254960D02*
X4827206Y-1207341D01*
X4827206Y-1207341D02*
X4827206Y-1169246D01*
X4827206Y-1169246D02*
X4817682Y-1121627D01*
X4817682Y-1121627D02*
X4808158Y-1093055D01*
X4808158Y-1093055D02*
X4798634Y-1074008D01*
X4798634Y-1074008D02*
X4779587Y-1045436D01*
X4779587Y-1045436D02*
X4770063Y-1035912D01*
X-34289Y-1513711D02*
X-34289Y-1372289D01*
X-175711Y-1372289D01*
X-175711Y-1513711D01*
X-34289Y-1513711D01*
X246253Y-1353531D02*
X255777Y-1344008D01*
X255777Y-1344008D02*
X274824Y-1334484D01*
X274824Y-1334484D02*
X322444Y-1334484D01*
X322444Y-1334484D02*
X341491Y-1344008D01*
X341491Y-1344008D02*
X351015Y-1353531D01*
X351015Y-1353531D02*
X360539Y-1372579D01*
X360539Y-1372579D02*
X360539Y-1391627D01*
X360539Y-1391627D02*
X351015Y-1420198D01*
X351015Y-1420198D02*
X236729Y-1534484D01*
X236729Y-1534484D02*
X360539Y-1534484D01*
X455777Y-1524960D02*
X455777Y-1534484D01*
X455777Y-1534484D02*
X446253Y-1553531D01*
X446253Y-1553531D02*
X436729Y-1563055D01*
X579586Y-1334484D02*
X598634Y-1334484D01*
X598634Y-1334484D02*
X617682Y-1344008D01*
X617682Y-1344008D02*
X627205Y-1353531D01*
X627205Y-1353531D02*
X636729Y-1372579D01*
X636729Y-1372579D02*
X646253Y-1410674D01*
X646253Y-1410674D02*
X646253Y-1458293D01*
X646253Y-1458293D02*
X636729Y-1496388D01*
X636729Y-1496388D02*
X627205Y-1515436D01*
X627205Y-1515436D02*
X617682Y-1524960D01*
X617682Y-1524960D02*
X598634Y-1534484D01*
X598634Y-1534484D02*
X579586Y-1534484D01*
X579586Y-1534484D02*
X560539Y-1524960D01*
X560539Y-1524960D02*
X551015Y-1515436D01*
X551015Y-1515436D02*
X541491Y-1496388D01*
X541491Y-1496388D02*
X531967Y-1458293D01*
X531967Y-1458293D02*
X531967Y-1410674D01*
X531967Y-1410674D02*
X541491Y-1372579D01*
X541491Y-1372579D02*
X551015Y-1353531D01*
X551015Y-1353531D02*
X560539Y-1344008D01*
X560539Y-1344008D02*
X579586Y-1334484D01*
X770062Y-1334484D02*
X789110Y-1334484D01*
X789110Y-1334484D02*
X808158Y-1344008D01*
X808158Y-1344008D02*
X817682Y-1353531D01*
X817682Y-1353531D02*
X827205Y-1372579D01*
X827205Y-1372579D02*
X836729Y-1410674D01*
X836729Y-1410674D02*
X836729Y-1458293D01*
X836729Y-1458293D02*
X827205Y-1496388D01*
X827205Y-1496388D02*
X817682Y-1515436D01*
X817682Y-1515436D02*
X808158Y-1524960D01*
X808158Y-1524960D02*
X789110Y-1534484D01*
X789110Y-1534484D02*
X770062Y-1534484D01*
X770062Y-1534484D02*
X751015Y-1524960D01*
X751015Y-1524960D02*
X741491Y-1515436D01*
X741491Y-1515436D02*
X731967Y-1496388D01*
X731967Y-1496388D02*
X722443Y-1458293D01*
X722443Y-1458293D02*
X722443Y-1410674D01*
X722443Y-1410674D02*
X731967Y-1372579D01*
X731967Y-1372579D02*
X741491Y-1353531D01*
X741491Y-1353531D02*
X751015Y-1344008D01*
X751015Y-1344008D02*
X770062Y-1334484D01*
X960539Y-1334484D02*
X979586Y-1334484D01*
X979586Y-1334484D02*
X998634Y-1344008D01*
X998634Y-1344008D02*
X1008158Y-1353531D01*
X1008158Y-1353531D02*
X1017682Y-1372579D01*
X1017682Y-1372579D02*
X1027205Y-1410674D01*
X1027205Y-1410674D02*
X1027205Y-1458293D01*
X1027205Y-1458293D02*
X1017682Y-1496388D01*
X1017682Y-1496388D02*
X1008158Y-1515436D01*
X1008158Y-1515436D02*
X998634Y-1524960D01*
X998634Y-1524960D02*
X979586Y-1534484D01*
X979586Y-1534484D02*
X960539Y-1534484D01*
X960539Y-1534484D02*
X941491Y-1524960D01*
X941491Y-1524960D02*
X931967Y-1515436D01*
X931967Y-1515436D02*
X922443Y-1496388D01*
X922443Y-1496388D02*
X912920Y-1458293D01*
X912920Y-1458293D02*
X912920Y-1410674D01*
X912920Y-1410674D02*
X922443Y-1372579D01*
X922443Y-1372579D02*
X931967Y-1353531D01*
X931967Y-1353531D02*
X941491Y-1344008D01*
X941491Y-1344008D02*
X960539Y-1334484D01*
X1112920Y-1534484D02*
X1112920Y-1401150D01*
X1112920Y-1420198D02*
X1122444Y-1410674D01*
X1122444Y-1410674D02*
X1141491Y-1401150D01*
X1141491Y-1401150D02*
X1170063Y-1401150D01*
X1170063Y-1401150D02*
X1189110Y-1410674D01*
X1189110Y-1410674D02*
X1198634Y-1429722D01*
X1198634Y-1429722D02*
X1198634Y-1534484D01*
X1198634Y-1429722D02*
X1208158Y-1410674D01*
X1208158Y-1410674D02*
X1227205Y-1401150D01*
X1227205Y-1401150D02*
X1255777Y-1401150D01*
X1255777Y-1401150D02*
X1274825Y-1410674D01*
X1274825Y-1410674D02*
X1284348Y-1429722D01*
X1284348Y-1429722D02*
X1284348Y-1534484D01*
X1379586Y-1534484D02*
X1379586Y-1401150D01*
X1379586Y-1420198D02*
X1389110Y-1410674D01*
X1389110Y-1410674D02*
X1408158Y-1401150D01*
X1408158Y-1401150D02*
X1436729Y-1401150D01*
X1436729Y-1401150D02*
X1455777Y-1410674D01*
X1455777Y-1410674D02*
X1465301Y-1429722D01*
X1465301Y-1429722D02*
X1465301Y-1534484D01*
X1465301Y-1429722D02*
X1474824Y-1410674D01*
X1474824Y-1410674D02*
X1493872Y-1401150D01*
X1493872Y-1401150D02*
X1522443Y-1401150D01*
X1522443Y-1401150D02*
X1541491Y-1410674D01*
X1541491Y-1410674D02*
X1551015Y-1429722D01*
X1551015Y-1429722D02*
X1551015Y-1534484D01*
X1941491Y-1324960D02*
X1770063Y-1582103D01*
X2198634Y-1334484D02*
X2217682Y-1334484D01*
X2217682Y-1334484D02*
X2236729Y-1344008D01*
X2236729Y-1344008D02*
X2246253Y-1353531D01*
X2246253Y-1353531D02*
X2255777Y-1372579D01*
X2255777Y-1372579D02*
X2265301Y-1410674D01*
X2265301Y-1410674D02*
X2265301Y-1458293D01*
X2265301Y-1458293D02*
X2255777Y-1496388D01*
X2255777Y-1496388D02*
X2246253Y-1515436D01*
X2246253Y-1515436D02*
X2236729Y-1524960D01*
X2236729Y-1524960D02*
X2217682Y-1534484D01*
X2217682Y-1534484D02*
X2198634Y-1534484D01*
X2198634Y-1534484D02*
X2179587Y-1524960D01*
X2179587Y-1524960D02*
X2170063Y-1515436D01*
X2170063Y-1515436D02*
X2160539Y-1496388D01*
X2160539Y-1496388D02*
X2151015Y-1458293D01*
X2151015Y-1458293D02*
X2151015Y-1410674D01*
X2151015Y-1410674D02*
X2160539Y-1372579D01*
X2160539Y-1372579D02*
X2170063Y-1353531D01*
X2170063Y-1353531D02*
X2179587Y-1344008D01*
X2179587Y-1344008D02*
X2198634Y-1334484D01*
X2360539Y-1524960D02*
X2360539Y-1534484D01*
X2360539Y-1534484D02*
X2351015Y-1553531D01*
X2351015Y-1553531D02*
X2341491Y-1563055D01*
X2484348Y-1334484D02*
X2503396Y-1334484D01*
X2503396Y-1334484D02*
X2522444Y-1344008D01*
X2522444Y-1344008D02*
X2531968Y-1353531D01*
X2531968Y-1353531D02*
X2541491Y-1372579D01*
X2541491Y-1372579D02*
X2551015Y-1410674D01*
X2551015Y-1410674D02*
X2551015Y-1458293D01*
X2551015Y-1458293D02*
X2541491Y-1496388D01*
X2541491Y-1496388D02*
X2531968Y-1515436D01*
X2531968Y-1515436D02*
X2522444Y-1524960D01*
X2522444Y-1524960D02*
X2503396Y-1534484D01*
X2503396Y-1534484D02*
X2484348Y-1534484D01*
X2484348Y-1534484D02*
X2465301Y-1524960D01*
X2465301Y-1524960D02*
X2455777Y-1515436D01*
X2455777Y-1515436D02*
X2446253Y-1496388D01*
X2446253Y-1496388D02*
X2436729Y-1458293D01*
X2436729Y-1458293D02*
X2436729Y-1410674D01*
X2436729Y-1410674D02*
X2446253Y-1372579D01*
X2446253Y-1372579D02*
X2455777Y-1353531D01*
X2455777Y-1353531D02*
X2465301Y-1344008D01*
X2465301Y-1344008D02*
X2484348Y-1334484D01*
X2617682Y-1334484D02*
X2751015Y-1334484D01*
X2751015Y-1334484D02*
X2665301Y-1534484D01*
X2855777Y-1420198D02*
X2836729Y-1410674D01*
X2836729Y-1410674D02*
X2827206Y-1401150D01*
X2827206Y-1401150D02*
X2817682Y-1382103D01*
X2817682Y-1382103D02*
X2817682Y-1372579D01*
X2817682Y-1372579D02*
X2827206Y-1353531D01*
X2827206Y-1353531D02*
X2836729Y-1344008D01*
X2836729Y-1344008D02*
X2855777Y-1334484D01*
X2855777Y-1334484D02*
X2893872Y-1334484D01*
X2893872Y-1334484D02*
X2912920Y-1344008D01*
X2912920Y-1344008D02*
X2922444Y-1353531D01*
X2922444Y-1353531D02*
X2931967Y-1372579D01*
X2931967Y-1372579D02*
X2931967Y-1382103D01*
X2931967Y-1382103D02*
X2922444Y-1401150D01*
X2922444Y-1401150D02*
X2912920Y-1410674D01*
X2912920Y-1410674D02*
X2893872Y-1420198D01*
X2893872Y-1420198D02*
X2855777Y-1420198D01*
X2855777Y-1420198D02*
X2836729Y-1429722D01*
X2836729Y-1429722D02*
X2827206Y-1439246D01*
X2827206Y-1439246D02*
X2817682Y-1458293D01*
X2817682Y-1458293D02*
X2817682Y-1496388D01*
X2817682Y-1496388D02*
X2827206Y-1515436D01*
X2827206Y-1515436D02*
X2836729Y-1524960D01*
X2836729Y-1524960D02*
X2855777Y-1534484D01*
X2855777Y-1534484D02*
X2893872Y-1534484D01*
X2893872Y-1534484D02*
X2912920Y-1524960D01*
X2912920Y-1524960D02*
X2922444Y-1515436D01*
X2922444Y-1515436D02*
X2931967Y-1496388D01*
X2931967Y-1496388D02*
X2931967Y-1458293D01*
X2931967Y-1458293D02*
X2922444Y-1439246D01*
X2922444Y-1439246D02*
X2912920Y-1429722D01*
X2912920Y-1429722D02*
X2893872Y-1420198D01*
X2998634Y-1334484D02*
X3131967Y-1334484D01*
X3131967Y-1334484D02*
X3046253Y-1534484D01*
X3198634Y-1334484D02*
X3198634Y-1372579D01*
X3274825Y-1334484D02*
X3274825Y-1372579D01*
X3570063Y-1610674D02*
X3560539Y-1601150D01*
X3560539Y-1601150D02*
X3541491Y-1572579D01*
X3541491Y-1572579D02*
X3531968Y-1553531D01*
X3531968Y-1553531D02*
X3522444Y-1524960D01*
X3522444Y-1524960D02*
X3512920Y-1477341D01*
X3512920Y-1477341D02*
X3512920Y-1439246D01*
X3512920Y-1439246D02*
X3522444Y-1391627D01*
X3522444Y-1391627D02*
X3531968Y-1363055D01*
X3531968Y-1363055D02*
X3541491Y-1344008D01*
X3541491Y-1344008D02*
X3560539Y-1315436D01*
X3560539Y-1315436D02*
X3570063Y-1305912D01*
X3636729Y-1353531D02*
X3646253Y-1344008D01*
X3646253Y-1344008D02*
X3665301Y-1334484D01*
X3665301Y-1334484D02*
X3712920Y-1334484D01*
X3712920Y-1334484D02*
X3731968Y-1344008D01*
X3731968Y-1344008D02*
X3741491Y-1353531D01*
X3741491Y-1353531D02*
X3751015Y-1372579D01*
X3751015Y-1372579D02*
X3751015Y-1391627D01*
X3751015Y-1391627D02*
X3741491Y-1420198D01*
X3741491Y-1420198D02*
X3627206Y-1534484D01*
X3627206Y-1534484D02*
X3751015Y-1534484D01*
X3989110Y-1534484D02*
X3989110Y-1334484D01*
X4074825Y-1534484D02*
X4074825Y-1429722D01*
X4074825Y-1429722D02*
X4065301Y-1410674D01*
X4065301Y-1410674D02*
X4046253Y-1401150D01*
X4046253Y-1401150D02*
X4017682Y-1401150D01*
X4017682Y-1401150D02*
X3998634Y-1410674D01*
X3998634Y-1410674D02*
X3989110Y-1420198D01*
X4198634Y-1534484D02*
X4179587Y-1524960D01*
X4179587Y-1524960D02*
X4170063Y-1515436D01*
X4170063Y-1515436D02*
X4160539Y-1496388D01*
X4160539Y-1496388D02*
X4160539Y-1439246D01*
X4160539Y-1439246D02*
X4170063Y-1420198D01*
X4170063Y-1420198D02*
X4179587Y-1410674D01*
X4179587Y-1410674D02*
X4198634Y-1401150D01*
X4198634Y-1401150D02*
X4227206Y-1401150D01*
X4227206Y-1401150D02*
X4246253Y-1410674D01*
X4246253Y-1410674D02*
X4255777Y-1420198D01*
X4255777Y-1420198D02*
X4265301Y-1439246D01*
X4265301Y-1439246D02*
X4265301Y-1496388D01*
X4265301Y-1496388D02*
X4255777Y-1515436D01*
X4255777Y-1515436D02*
X4246253Y-1524960D01*
X4246253Y-1524960D02*
X4227206Y-1534484D01*
X4227206Y-1534484D02*
X4198634Y-1534484D01*
X4379587Y-1534484D02*
X4360539Y-1524960D01*
X4360539Y-1524960D02*
X4351015Y-1505912D01*
X4351015Y-1505912D02*
X4351015Y-1334484D01*
X4531968Y-1524960D02*
X4512920Y-1534484D01*
X4512920Y-1534484D02*
X4474825Y-1534484D01*
X4474825Y-1534484D02*
X4455777Y-1524960D01*
X4455777Y-1524960D02*
X4446253Y-1505912D01*
X4446253Y-1505912D02*
X4446253Y-1429722D01*
X4446253Y-1429722D02*
X4455777Y-1410674D01*
X4455777Y-1410674D02*
X4474825Y-1401150D01*
X4474825Y-1401150D02*
X4512920Y-1401150D01*
X4512920Y-1401150D02*
X4531968Y-1410674D01*
X4531968Y-1410674D02*
X4541492Y-1429722D01*
X4541492Y-1429722D02*
X4541492Y-1448769D01*
X4541492Y-1448769D02*
X4446253Y-1467817D01*
X4617682Y-1524960D02*
X4636730Y-1534484D01*
X4636730Y-1534484D02*
X4674825Y-1534484D01*
X4674825Y-1534484D02*
X4693873Y-1524960D01*
X4693873Y-1524960D02*
X4703396Y-1505912D01*
X4703396Y-1505912D02*
X4703396Y-1496388D01*
X4703396Y-1496388D02*
X4693873Y-1477341D01*
X4693873Y-1477341D02*
X4674825Y-1467817D01*
X4674825Y-1467817D02*
X4646253Y-1467817D01*
X4646253Y-1467817D02*
X4627206Y-1458293D01*
X4627206Y-1458293D02*
X4617682Y-1439246D01*
X4617682Y-1439246D02*
X4617682Y-1429722D01*
X4617682Y-1429722D02*
X4627206Y-1410674D01*
X4627206Y-1410674D02*
X4646253Y-1401150D01*
X4646253Y-1401150D02*
X4674825Y-1401150D01*
X4674825Y-1401150D02*
X4693873Y-1410674D01*
X4770063Y-1610674D02*
X4779587Y-1601150D01*
X4779587Y-1601150D02*
X4798634Y-1572579D01*
X4798634Y-1572579D02*
X4808158Y-1553531D01*
X4808158Y-1553531D02*
X4817682Y-1524960D01*
X4817682Y-1524960D02*
X4827206Y-1477341D01*
X4827206Y-1477341D02*
X4827206Y-1439246D01*
X4827206Y-1439246D02*
X4817682Y-1391627D01*
X4817682Y-1391627D02*
X4808158Y-1363055D01*
X4808158Y-1363055D02*
X4798634Y-1344008D01*
X4798634Y-1344008D02*
X4779587Y-1315436D01*
X4779587Y-1315436D02*
X4770063Y-1305912D01*
M02*
